<?xml version="1.0" encoding="UTF-8" standalone="no"?>
<svg
   xmlns:dc="http://purl.org/dc/elements/1.1/"
   xmlns:cc="http://creativecommons.org/ns#"
   xmlns:rdf="http://www.w3.org/1999/02/22-rdf-syntax-ns#"
   xmlns:svg="http://www.w3.org/2000/svg"
   xmlns="http://www.w3.org/2000/svg"
   xmlns:sodipodi="http://sodipodi.sourceforge.net/DTD/sodipodi-0.dtd"
   xmlns:inkscape="http://www.inkscape.org/namespaces/inkscape"
   version="1.1"
   id="Layer_2"
   x="0px"
   y="0px"
   viewBox="0 0 32.55 30.8"
   style="enable-background:new 0 0 32.55 30.8;"
   xml:space="preserve"
   sodipodi:docname="insicon_horn.svg"
   inkscape:version="1.0.1 (3bc2e813f5, 2020-09-07)"><metadata
   id="metadata11"><rdf:RDF><cc:Work
       rdf:about=""><dc:format>image/svg+xml</dc:format><dc:type
         rdf:resource="http://purl.org/dc/dcmitype/StillImage" /></cc:Work></rdf:RDF></metadata><defs
   id="defs9" /><sodipodi:namedview
   pagecolor="#ffffff"
   bordercolor="#666666"
   borderopacity="1"
   objecttolerance="10"
   gridtolerance="10"
   guidetolerance="10"
   inkscape:pageopacity="0"
   inkscape:pageshadow="2"
   inkscape:window-width="1280"
   inkscape:window-height="692"
   id="namedview7"
   showgrid="false"
   inkscape:zoom="5.6568543"
   inkscape:cx="18.528353"
   inkscape:cy="14.987084"
   inkscape:window-x="0"
   inkscape:window-y="154"
   inkscape:window-maximized="1"
   inkscape:current-layer="Layer_2" />
<style
   type="text/css"
   id="style2">
	.st0{fill:#FFFFFF;}
</style>
<path
   class="st0"
   d="m 26.475075,0.2150752 c 0,0.07 0.01,0.14 0.02,0.21 l 0.24,1.19 c 0.09,0.43 0.34,0.8 0.71,1.04 v 3.69 c -2.14,-2.2 -5.07,-3.43 -8.14,-3.42 -6.29,0.01 -11.3799998,5.1 -11.3899998,11.3899998 -0.01,3.06 1.22,6 3.4199998,8.14 h -0.71 c -4.6299998,0 -6.2599998,-3.32 -6.5099998,-3.9 v -0.44 c 0,-0.43 -0.17,-0.84 -0.47,-1.14 -0.3,-0.31 -0.72,-0.49 -1.15,-0.48 -0.9,0 -1.63,0.73 -1.63,1.63 v 11.92 c 0,0.43 0.17,0.84 0.47,1.15 0.31,0.31 0.72,0.48 1.16,0.48 0.9,0 1.63,-0.73 1.63,-1.63 v -0.43 c 0.24,-0.55 1.9,-3.91 6.5099998,-3.91 h 9.22 c 0.05,0 0.09,-0.01 0.14,-0.03 6.02,-0.35 10.72,-5.34 10.71,-11.36 V 2.6550752 c 0.36,-0.24 0.62,-0.61 0.71,-1.04 l 0.24,-1.19 c 0.01,-0.07 0.02,-0.14 0.02,-0.21 0,-0.6 -0.49,-1.08 -1.09,-1.08 h -3.02 c -0.6,-0.01 -1.09,0.48 -1.09,1.08 z m -6.63,16.8099998 h 2.17 v 1.08 h -2.17 v -1.08 z m -1.08,1.09 h -2.17 v -1.08 h 2.17 z m 4.34,-1.09 v 0 c 1.5,0 2.71,-1.21 2.71,-2.71 0,-1.5 -1.21,-2.71 -2.71,-2.71 v -1.08 c 0.3,0 0.54,-0.24 0.54,-0.5399998 0,-0.3 -0.24,-0.54 -0.54,-0.54 h -1.08 c -0.3,0 -0.54,0.24 -0.54,0.54 0,0.2999998 0.24,0.5399998 0.54,0.5399998 v 1.08 h -2.17 v -1.08 c 0.3,0 0.54,-0.24 0.54,-0.5399998 0,-0.3 -0.24,-0.54 -0.54,-0.54 h -1.09 c -0.3,0 -0.54,0.24 -0.54,0.54 0,0.2999998 0.24,0.5399998 0.54,0.5399998 v 1.08 h -2.17 v -1.08 c 0.3,0 0.54,-0.24 0.54,-0.5399998 0,-0.3 -0.24,-0.54 -0.54,-0.54 h -1.08 c -0.3,0 -0.54,0.24 -0.54,0.54 0,0.2999998 0.24,0.5399998 0.54,0.5399998 v 1.08 c -1.5,0 -2.71,1.21 -2.71,2.71 0,1.5 1.21,2.71 2.71,2.71 v 1.08 h -3.39 c -2.1,-3.97 -0.59,-8.8999998 3.38,-10.9999998 3.97,-2.1 8.9,-0.59 11,3.3799998 1.26,2.38 1.26,5.23 0,7.61 h -3.39 v -1.07 z m -6.51,-4.33 h 2.17 v 3.25 h -2.17 v -3.25 z m -1.08,3.25 c -0.9,0 -1.63,-0.73 -1.63,-1.63 0,-0.9 0.73,-1.63 1.63,-1.63 v 3.26 z m 4.33,-3.25 h 2.17 v 3.25 h -2.17 v -3.25 z m 3.26,0 c 0.9,0 1.63,0.73 1.63,1.63 0,0.9 -0.73,1.63 -1.63,1.63 z m -7.84,8.67 h 8.08 c -1.23,0.71 -2.62,1.08 -4.04,1.08 -1.42,0.01 -2.81,-0.37 -4.04,-1.08 z"
   id="path4" />
</svg>
