<?xml version="1.0" encoding="UTF-8" standalone="no"?>
<!-- Generator: Adobe Illustrator 24.1.2, SVG Export Plug-In . SVG Version: 6.00 Build 0)  -->

<svg
   xmlns:dc="http://purl.org/dc/elements/1.1/"
   xmlns:cc="http://creativecommons.org/ns#"
   xmlns:rdf="http://www.w3.org/1999/02/22-rdf-syntax-ns#"
   xmlns:svg="http://www.w3.org/2000/svg"
   xmlns="http://www.w3.org/2000/svg"
   xmlns:xlink="http://www.w3.org/1999/xlink"
   xmlns:sodipodi="http://sodipodi.sourceforge.net/DTD/sodipodi-0.dtd"
   xmlns:inkscape="http://www.inkscape.org/namespaces/inkscape"
   version="1.1"
   id="Layer_1"
   x="0px"
   y="0px"
   viewBox="0 0 367.13 577"
   style="enable-background:new 0 0 367.13 577;"
   xml:space="preserve"
   sodipodi:docname="mountain_foreground_left.svg"
   inkscape:version="0.92.5 (2060ec1f9f, 2020-04-08)"><metadata
   id="metadata62"><rdf:RDF><cc:Work
       rdf:about=""><dc:format>image/svg+xml</dc:format><dc:type
         rdf:resource="http://purl.org/dc/dcmitype/StillImage" /></cc:Work></rdf:RDF></metadata><defs
   id="defs60" /><sodipodi:namedview
   pagecolor="#ffffff"
   bordercolor="#666666"
   borderopacity="1"
   objecttolerance="10"
   gridtolerance="10"
   guidetolerance="10"
   inkscape:pageopacity="0"
   inkscape:pageshadow="2"
   inkscape:window-width="972"
   inkscape:window-height="493"
   id="namedview58"
   showgrid="false"
   inkscape:zoom="0.40901213"
   inkscape:cx="256.91246"
   inkscape:cy="288.5"
   inkscape:window-x="377"
   inkscape:window-y="633"
   inkscape:window-maximized="0"
   inkscape:current-layer="g55" />
<style
   type="text/css"
   id="style2">
	.st0{clip-path:url(#SVGID_2_);}
	.st1{fill:url(#SVGID_3_);}
	.st2{fill:url(#SVGID_4_);}
	.st3{fill:url(#SVGID_5_);}
	.st4{fill:url(#SVGID_6_);}
	.st5{fill:url(#SVGID_7_);}
</style>
<g
   id="g55">
	<defs
   id="defs5">
		<rect
   id="SVGID_1_"
   x="0.13"
   y="3"
   width="355"
   height="577" />
	</defs>
	<clipPath
   id="SVGID_2_">
		<use
   xlink:href="#SVGID_1_"
   style="overflow:visible;"
   id="use7" />
	</clipPath>
	<g
   class="st0"
   clip-path="url(#SVGID_2_)"
   id="g17">
		<linearGradient
   id="SVGID_3_"
   gradientUnits="userSpaceOnUse"
   x1="-0.1645"
   y1="245.9196"
   x2="141.8771"
   y2="245.9196">
			<stop
   offset="0"
   style="stop-color:#2E3025"
   id="stop10" />
			<stop
   offset="1"
   style="stop-color:#69633A"
   id="stop12" />
		</linearGradient>
		<path
   class="st1"
   d="M50.38,445.79c-1.17-3.96-3.71-7.49-7.09-9.85c7.5-10.06,19.63-16.53,32.17-17.13    c-4.62-3.58-9.23-7.17-13.85-10.75c6.6-1.69,13.48-2.29,20.27-1.76c-8-1.35-15.8-3.89-23.06-7.5c4.28-5.61,11.42-8.92,18.46-8.55    c-3.99-2.74-7.97-5.47-11.96-8.21c9.87-0.72,19.65-2.58,29.09-5.54c-11.3-3.77-22.61-7.53-33.91-11.3    c8.92-0.5,17.76-2.49,26.03-5.86c1.99-0.81,4.24-2.11,4.34-4.25c0.1-2.14-3.99-2.98-3.87-0.84c11.22-1.43,22.45-2.85,33.67-4.28    c-8.51-0.05-30.99-4.54-38.18-9.1c30.88,5.26,32.6,0,59.38-7.08c-48.8-6.98-48.61-3.75-94.69-21.27c4.54-0.96,8.89-2.8,12.74-5.39    c-6.15-1.02-12.3-2.05-18.45-3.07c8.14-3.82,17.21-5.62,26.19-5.18c-5.06-0.87-9.75-3.75-12.81-7.86    c16.38,1.83,33.05,1.01,49.17-2.42c-29.62-4.89-57.67-18.87-79.42-39.57c5.14-0.9,10.28-1.79,15.42-2.69    c-8.15-1.72-14.44-18.74-19.52-25.35c13.32,4.78,18.82,3.19,31.87-2.25c-7.84-6.1-21.13-12.85-28.97-18.95    c19.21,3.22,38.76,4.39,58.21,3.48c-14.78-2.45-28.96-8.5-40.95-17.47c6.14,0.84,5.18-9.38,1.51-14.38    c8.12,0.59,16.24,1.17,24.37,1.76c-22.46-9.83-41.42-27.46-52.85-49.15c3.71-2.1,7.41-4.21,11.12-6.31    c-2.66-3.04-5.32-6.08-7.98-9.12c6.42,0.4,12.84,0.79,19.26,1.19c-6.93-4.47-13.87-8.93-20.8-13.4    c11.16,1.6,22.52,1.84,33.74,0.72C26.66,93.7,8.13,73.2,6.97,50.6c6.01,2.44,12.81,2.88,19.08,1.22    C14.57,46.97,5.02,37.7-0.16,26.37v439.1L50.38,445.79z"
   id="path15" />
	</g>
	<g
   class="st0"
   clip-path="url(#SVGID_2_)"
   id="g26">
		<linearGradient
   id="SVGID_4_"
   gradientUnits="userSpaceOnUse"
   x1="139.1958"
   y1="545.6942"
   x2="247.2303"
   y2="545.6942">
			<stop
   offset="0"
   style="stop-color:#6D6670"
   id="stop19" />
			<stop
   offset="1"
   style="stop-color:#3A404A"
   id="stop21" />
		</linearGradient>
		<path
   class="st2"
   d="M150,530.05c11.23-6.42,23.21-11.52,35.62-15.17c12.16,3.33,26.42,8.33,38.05,13.19    c12.24,8.32,20.93,21.69,23.55,36.26l-3.65,12.18h-85.71l-18.67-35.19L150,530.05z"
   id="path24" />
	</g>
	<g
   class="st0"
   clip-path="url(#SVGID_2_)"
   id="g35">
		<linearGradient
   id="SVGID_5_"
   gradientUnits="userSpaceOnUse"
   x1="-12"
   y1="496.8625"
   x2="176.2066"
   y2="496.8625">
			<stop
   offset="0"
   style="stop-color:#6D6670"
   id="stop28" />
			<stop
   offset="1"
   style="stop-color:#3A404A"
   id="stop30" />
		</linearGradient>
		<path
   class="st3"
   d="M0.68,417.21c10.27,6.43,20.54,12.86,30.8,19.3c14.57,9.13,32.81,19.09,49.12,24.56    c7.59,12.08,17.77,26.24,23.07,39.48c5.48,5.16,14.3,4.16,21.07,7.48c3.4,1.67,6.16,4.38,8.79,7.1    c17.38,18,31.85,38.81,42.67,61.37H-12v-159.3H0.68z"
   id="path33" />
	</g>
	
	<g
   class="st0"
   clip-path="url(#SVGID_2_)"
   id="g53">
		
			<linearGradient
   id="SVGID_7_"
   gradientUnits="userSpaceOnUse"
   x1="-156.7358"
   y1="416.2343"
   x2="-53.8042"
   y2="416.2343"
   gradientTransform="matrix(0.9946 0.1039 -0.1039 0.9946 423.3826 152.3941)">
			<stop
   offset="0"
   style="stop-color:#69633A"
   id="stop46" />
			<stop
   offset="1"
   style="stop-color:#2E3025"
   id="stop48" />
		</linearGradient>
		<path
   class="st5"
   d="M271.31,538.24c0.34-2,1.66-3.84,3.6-5.04c2.3,1.51,3.43,4.13,2.76,6.4c0.28-1.98,0.57-3.96,0.85-5.94    c3.14,0.75,4.54,4.49,2.39,6.39c2.73-1.38,5.46-2.76,8.19-4.13c0.71,1.83,1.42,3.67,2.14,5.5c1.88,1.08,4.37,0.76,6.56,0.38    c2.19-0.38,4.68-0.71,6.56,0.37c1.89,1.07,1.74,4.1-0.51,4.15c0.84-1.31,3.2-1.74,4.74-0.87c1.55,0.87,1.93,2.85,0.77,3.98    c3.63,1.93,6.66,4.62,8.71,7.73c-1.9,0.79-3.79,1.57-5.69,2.36c4.62,1.6,9.24,3.2,13.87,4.81c-2.57,1.86-6.03,2.9-9.54,2.86    c1.55,0.83,2.42,2.44,2.09,3.88c-2.66-0.24-4.42,1.94-5.97,3.65c-1.55,1.71-4.65,3.24-6.64,1.72c-1.33-1.01-1.79-3.17-3.56-3.08    c-1.81,0.09-1.62,2.25-2.06,3.67c-1,3.27-6.95,3.19-10.58,1.38c-3.64-1.81-6.84-4.7-11.02-4.98c-2.67-0.18-5.23,0.78-7.91,0.73    c-2.67-0.05-5.8-1.97-4.97-4.01c-0.75,2.71-4.97,4.24-8.09,2.94s-4.21-5.07-2.1-7.21c-2.66,2.86-5.32,5.72-7.98,8.58    c-3.34-2.16-4.09-6.52-1.58-9.14c-2.16,1.73-5.44,2.89-8.33,1.89s-3.94-4.88-1.22-5.98c-5.04-0.72-9.8-3.01-13.06-6.3    c2.77-1.7,6.44-2.42,9.96-1.94c-1.95-0.09-3.88-0.89-5.14-2.15c0.84-2.73,5.28-4.12,8.31-2.61c-3.19-1.87-5.11-5.13-4.86-8.26    c1.95,0.49,3.89,0.98,5.84,1.46c-0.51-3.13-0.01-6.33,1.44-9.19c1.86,0.74,3.32,2.18,3.84,3.8c1.24-1.38,3.16-2.32,5.26-2.59    c3.81,2.46,8.77,3.67,13.48,3.28c-1.26,0.49-2.53,0.97-3.79,1.46L271.31,538.24z"
   id="path51" />
	</g>
</g>
</svg>