<?xml version="1.0" encoding="UTF-8" standalone="no"?>
<!-- Generator: Adobe Illustrator 24.1.2, SVG Export Plug-In . SVG Version: 6.00 Build 0)  -->

<svg
   xmlns:dc="http://purl.org/dc/elements/1.1/"
   xmlns:cc="http://creativecommons.org/ns#"
   xmlns:rdf="http://www.w3.org/1999/02/22-rdf-syntax-ns#"
   xmlns:svg="http://www.w3.org/2000/svg"
   xmlns="http://www.w3.org/2000/svg"
   xmlns:sodipodi="http://sodipodi.sourceforge.net/DTD/sodipodi-0.dtd"
   xmlns:inkscape="http://www.inkscape.org/namespaces/inkscape"
   version="1.1"
   id="Layer_1"
   x="0px"
   y="0px"
   viewBox="0 0 412.12 96.83"
   style="enable-background:new 0 0 412.12 96.83;"
   xml:space="preserve"
   sodipodi:docname="mountain_background_right.svg"
   inkscape:version="0.92.5 (2060ec1f9f, 2020-04-08)"><metadata
   id="metadata56"><rdf:RDF><cc:Work
       rdf:about=""><dc:format>image/svg+xml</dc:format><dc:type
         rdf:resource="http://purl.org/dc/dcmitype/StillImage" /></cc:Work></rdf:RDF></metadata><defs
   id="defs54" /><sodipodi:namedview
   pagecolor="#ffffff"
   bordercolor="#666666"
   borderopacity="1"
   objecttolerance="10"
   gridtolerance="10"
   guidetolerance="10"
   inkscape:pageopacity="0"
   inkscape:pageshadow="2"
   inkscape:window-width="3706"
   inkscape:window-height="2049"
   id="namedview52"
   showgrid="false"
   inkscape:zoom="4.8041808"
   inkscape:cx="173.79571"
   inkscape:cy="20.910941"
   inkscape:window-x="134"
   inkscape:window-y="55"
   inkscape:window-maximized="1"
   inkscape:current-layer="g49" />
<style
   type="text/css"
   id="style2">
	.st0{fill:url(#SVGID_1_);}
	.st1{fill:url(#SVGID_2_);}
	.st2{fill:url(#SVGID_3_);}
	.st3{fill:url(#SVGID_4_);}
	.st4{fill:url(#SVGID_5_);}
</style>
<g
   id="g49">
	<g
   id="g11"
   transform="translate(4.3711927,-7.2853212)">
		
			<linearGradient
   id="SVGID_1_"
   gradientUnits="userSpaceOnUse"
   x1="-891.41791"
   y1="-229.9117"
   x2="-824.61041"
   y2="-229.9117"
   gradientTransform="matrix(0.9582,0.286,-0.286,0.9582,988.4415,543.5917)">
			<stop
   offset="0"
   style="stop-color:#69633A"
   id="stop4" />
			<stop
   offset="1"
   style="stop-color:#2E3025"
   id="stop6" />
		</linearGradient>
		<path
   class="st0"
   d="m 205.41,80.59 c -2.99,0.79 -6.42,-0.63 -7.97,-3.3 0.81,-0.75 1.84,-1.25 2.93,-1.42 -0.63,-0.8 -1.25,-1.59 -1.88,-2.39 1.51,-1.34 3.92,-1.53 5.62,-0.45 -1.74,-1.62 -2.13,-4.5 -0.89,-6.53 1.55,0.61 3.11,1.22 4.66,1.83 -1.06,-1.57 -0.19,-4.05 1.62,-4.61 1.81,-0.56 3.93,1 3.94,2.89 2.67,-2 6.05,-3.03 9.37,-2.85 0.33,-1.87 1.18,-3.65 2.43,-5.08 1.09,0.62 2,1.54 2.6,2.64 1.47,-2.5 6.24,-1.04 6.05,1.85 1.2,-1.26 2.39,-2.52 3.59,-3.78 0.29,1.67 0.59,3.34 0.88,5.01 1.17,-0.52 2.35,-1.05 3.52,-1.57 0.13,1.87 0.26,3.74 0.39,5.61 1.76,0.25 3.58,0.1 5.27,-0.45 0.29,2.01 -0.02,4.11 -0.87,5.95 0.95,-0.74 2.06,-1.45 3.26,-1.37 1.2,0.08 2.35,1.38 1.83,2.47 1.33,-0.31 2.8,-0.6 4,0.07 1.19,0.66 1.55,2.73 0.31,3.3 0.98,0.73 1.95,1.46 2.93,2.19 -0.45,0.85 -0.9,1.71 -1.36,2.56 1.14,0.36 2.29,0.73 3.43,1.09 -0.5,1.26 -1.46,2.33 -2.64,2.97 2.06,0.02 4.02,1.47 4.64,3.43 -1.46,0.54 -3.05,0.69 -4.58,0.45 0.79,0.73 1.58,1.45 2.37,2.18 -3.25,0.87 -6.8,0.59 -9.87,-0.78 1.58,-0.08 1.9,2.66 0.48,3.36 -1.41,0.7 -3.18,-0.35 -3.88,-1.76 -0.09,1.99 -3.72,2.18 -4.02,0.22 -1.2,1.65 -3.78,1.3 -5.59,0.35 -1.81,-0.95 -3.52,-2.36 -5.56,-2.36 -2.06,0 -3.81,1.45 -5.8,1.97 -1.99,0.52 -4.8,-0.84 -4.2,-2.81 -1.75,0.68 -3.5,1.35 -5.25,2.03 1.01,-1.17 -0.29,-3.01 -1.76,-3.48 -1.47,-0.48 -3.14,-0.32 -4.46,-1.12 -1.32,-0.8 -1.59,-3.3 -0.07,-3.56 -1.87,0.01 -3.66,-1.3 -4.24,-3.07 -1.29,-0.12 -2.58,-0.23 -3.86,-0.35 -0.4,-1.76 1.48,-3.6 3.23,-3.16"
   id="path9"
   style="fill:url(#SVGID_1_)"
   inkscape:connector-curvature="0" />
	</g>
	<g
   id="g20"
   transform="translate(4.3711927,-7.2853212)">
		<linearGradient
   id="SVGID_2_"
   gradientUnits="userSpaceOnUse"
   x1="164.18629"
   y1="77.486504"
   x2="164.18629"
   y2="7.6343999">
			<stop
   offset="0"
   style="stop-color:#3A404A"
   id="stop13" />
			<stop
   offset="1"
   style="stop-color:#6D6670"
   id="stop15" />
		</linearGradient>
		<path
   class="st1"
   d="M 103.61,31.72 C 113.86,24.41 123.55,16 132.95,7.64 c 14.04,4.6 30,6.82 44.74,5.89 6.64,6.38 11.26,15.75 13.58,24.66 6.63,0.52 14.33,1.1 20.96,1.62 11.66,18.37 11.66,18.37 12.52,35.48 l -25.2,2.2 z"
   id="path18"
   style="fill:url(#SVGID_2_)"
   inkscape:connector-curvature="0" />
	</g>
	<g
   id="g29">
		<linearGradient
   id="SVGID_3_"
   gradientUnits="userSpaceOnUse"
   x1="333.2074"
   y1="54.3386"
   x2="333.2074"
   y2="26.445">
			<stop
   offset="0"
   style="stop-color:#3A404A"
   id="stop22" />
			<stop
   offset="1"
   style="stop-color:#6D6670"
   id="stop24" />
		</linearGradient>
		<path
   class="st2"
   d="M351.75,36c-5.57-2.64-10.87-5.85-15.79-9.56c-6.59,2.35-14.71,5.58-21.3,7.93    c0.49,6.19,1.15,13.77,1.64,19.96c6.18-0.56,17.43,0.16,23.62-0.4L351.75,36z"
   id="path27" />
	</g>
	<g
   id="g38">
		<linearGradient
   id="SVGID_4_"
   gradientUnits="userSpaceOnUse"
   x1="0"
   y1="12.6426"
   x2="50.672"
   y2="12.6426">
			<stop
   offset="0"
   style="stop-color:#3A404A"
   id="stop31" />
			<stop
   offset="1"
   style="stop-color:#6D6670"
   id="stop33" />
		</linearGradient>
		<path
   class="st3"
   d="M0,14.28C8.43,9.46,16.92,4.82,25.35,0c4.86,1.35,9.72,2.7,14.58,4.06C44.84,7.1,50.64,15.4,50.67,21.18    l-30.21,4.1L0,14.28z"
   id="path36" />
	</g>
	<g
   id="g47">
		<linearGradient
   id="SVGID_5_"
   gradientUnits="userSpaceOnUse"
   x1="373.1526"
   y1="96.8308"
   x2="373.1526"
   y2="19.4481"
   gradientTransform="rotate(90,373.155,58.135)">
			<stop
   offset="0"
   style="stop-color:#3A404A"
   id="stop40" />
			<stop
   offset="1"
   style="stop-color:#6D6670"
   id="stop42" />
		</linearGradient>
		<path
   class="st4"
   d="m 411.84,95.16 c -3.22,-17.92 -4.97,-37.09 -4.75,-55.29 -7.44,-7.21 -15.17,-14.12 -23.18,-20.7 -9.63,7.22 -19.69,13.16 -29.31,20.38 -4.33,17.26 -12.82,41.33 -20.13,57.55 z"
   id="path45"
   style="fill:url(#SVGID_5_)"
   inkscape:connector-curvature="0" />
	</g>
</g>
</svg>