<?xml version="1.0" encoding="UTF-8" standalone="no"?>
<!-- Generator: Adobe Illustrator 24.1.2, SVG Export Plug-In . SVG Version: 6.00 Build 0)  -->

<svg
   xmlns:dc="http://purl.org/dc/elements/1.1/"
   xmlns:cc="http://creativecommons.org/ns#"
   xmlns:rdf="http://www.w3.org/1999/02/22-rdf-syntax-ns#"
   xmlns:svg="http://www.w3.org/2000/svg"
   xmlns="http://www.w3.org/2000/svg"
   xmlns:xlink="http://www.w3.org/1999/xlink"
   xmlns:sodipodi="http://sodipodi.sourceforge.net/DTD/sodipodi-0.dtd"
   xmlns:inkscape="http://www.inkscape.org/namespaces/inkscape"
   version="1.1"
   id="Layer_1"
   x="0px"
   y="0px"
   viewBox="0 0 367 377"
   style="enable-background:new 0 0 367 377;"
   xml:space="preserve"
   sodipodi:docname="mountain_foreground_right.svg"
   inkscape:version="0.92.5 (2060ec1f9f, 2020-04-08)"><metadata
   id="metadata71"><rdf:RDF><cc:Work
       rdf:about=""><dc:format>image/svg+xml</dc:format><dc:type
         rdf:resource="http://purl.org/dc/dcmitype/StillImage" /></cc:Work></rdf:RDF></metadata><defs
   id="defs69" /><sodipodi:namedview
   pagecolor="#ffffff"
   bordercolor="#666666"
   borderopacity="1"
   objecttolerance="10"
   gridtolerance="10"
   guidetolerance="10"
   inkscape:pageopacity="0"
   inkscape:pageshadow="2"
   inkscape:window-width="3706"
   inkscape:window-height="2049"
   id="namedview67"
   showgrid="false"
   inkscape:zoom="0.62599469"
   inkscape:cx="231.42373"
   inkscape:cy="188.5"
   inkscape:window-x="134"
   inkscape:window-y="55"
   inkscape:window-maximized="1"
   inkscape:current-layer="g64" />
<style
   type="text/css"
   id="style2">
	.st0{clip-path:url(#SVGID_2_);}
	.st1{fill:url(#SVGID_3_);}
	.st2{fill:url(#SVGID_4_);}
	.st3{fill:url(#SVGID_5_);}
	.st4{fill:url(#SVGID_6_);}
	.st5{fill:url(#SVGID_7_);}
	.st6{fill:url(#SVGID_8_);}
</style>
<g
   id="g64">
	<defs
   id="defs5">
		<rect
   id="SVGID_1_"
   x="2"
   y="3"
   width="367"
   height="377" />
	</defs>
	<clipPath
   id="SVGID_2_">
		<use
   xlink:href="#SVGID_1_"
   style="overflow:visible;"
   id="use7" />
	</clipPath>
	<g
   class="st0"
   clip-path="url(#SVGID_2_)"
   id="g17">
		
			<linearGradient
   id="SVGID_3_"
   gradientUnits="userSpaceOnUse"
   x1="57.7955"
   y1="285.4953"
   x2="175.2807"
   y2="285.4953"
   gradientTransform="matrix(0.9998 0.019 -0.019 0.9998 74.3157 27.1985)">
			<stop
   offset="0"
   style="stop-color:#69633A"
   id="stop10" />
			<stop
   offset="1"
   style="stop-color:#2E3025"
   id="stop12" />
		</linearGradient>
		<path
   class="st1"
   d="M161.95,306.17c-3.3,1.57-6.7-3.79-4.36-6.6c2.34-2.81,7.41-1.73,9.26,1.43c-1.61-2.25-1.68-5.5-0.17-7.82    c1.03,1.07,2.05,2.13,3.08,3.2c0-2.97,0.22-6.4,2.61-8.18s6.9,0.93,5.28,3.42c1.5-1.83,3-3.67,4.5-5.5    c1.93,1.27,3.23,3.45,3.42,5.75c0.27-2.98,4.64-2.99,7.49-2.08c2.07,0.66,4.14,1.31,6.21,1.97c2.89,0.92,6.02,2.01,7.62,4.58    c1.02-2.15,3.1-4.1,5.47-3.88c2.37,0.22,4,3.68,2.12,5.14c1.66,0.24,3.31,0.47,4.97,0.71c0.04,0.87,0.08,1.73,0.12,2.6    c4.56,5.06,10,9.32,16,12.56c-1.68,1.59-3.35,3.19-5.03,4.78c3.62-0.89,7.67,0.28,10.26,2.97c-2.06,0.77-4.13,1.54-6.19,2.3    c3.29-0.59,6.83,0.42,9.32,2.65c-2.78,0.14-5.56,0.28-8.33,0.42c-0.28,1.29-0.56,2.58-0.85,3.88c-1.79,0.95-3.95,1.17-5.89,0.6    c2.13,1.58,2.18,5.25,0.09,6.89c-2.09,1.64-5.64,0.73-6.67-1.72c-1.08,1.34-2.16,2.69-3.25,4.03c-2.12-1.09-4.25-2.18-6.37-3.26    c-0.99,2.07-1.98,4.14-2.97,6.21c-1.45-1.29-2.9-2.58-4.35-3.86c-0.1,2.43-2.4,4.55-4.83,4.47c-2.43-0.09-4.57-2.36-4.5-4.8    c-3.52,4.75-10.97-0.04-16.85,0.64c-2.6,0.3-4.97,1.78-7.58,1.96c-2.61,0.18-5.72-2.02-4.87-4.49c-2.6,1.78-5.45,3.63-8.6,3.45    c-3.14-0.18-6.19-3.54-4.81-6.37c-7.39-0.13-14.74-1.94-21.35-5.25c1.06-0.68,2.12-1.35,3.18-2.03c-1.93-1.54-4.24-2.61-6.67-3.06    c1.08-1.61,2.66-2.87,4.47-3.57c-2.26,0.49-4.75-0.26-6.35-1.93c1.71-2.66,5.31-3.17,8.1-4.67c2.79-1.5,4.59-6.05,1.78-7.49    c1.7-2.05,5.35-1.99,6.98,0.12c2.5-1.25,5-2.5,7.5-3.76c1.29,1.18,2.58,2.36,3.88,3.53"
   id="path15" />
	</g>
	<g
   class="st0"
   clip-path="url(#SVGID_2_)"
   id="g26">
		<linearGradient
   id="SVGID_4_"
   gradientUnits="userSpaceOnUse"
   x1="98.6097"
   y1="334.8399"
   x2="161.9552"
   y2="334.8399">
			<stop
   offset="0"
   style="stop-color:#69633A"
   id="stop19" />
			<stop
   offset="1"
   style="stop-color:#2E3025"
   id="stop21" />
		</linearGradient>
		<path
   class="st2"
   d="M129.08,355.11c-3.83,2.79-8.62,4.24-13.36,4.03c0.8-3,2.5-5.76,4.82-7.82c-5.39,0.48-10.79,0.95-16.18,1.43    c-1.81,0.16-4.31-0.22-4.42-2.04c-0.1-1.6,1.84-2.42,3.39-2.79c4.31-1,8.61-2,12.92-2.99c-6.14,0.17-12.32-1.39-17.64-4.45    c3.61-1.31,7.51-1.8,11.33-1.43c-2.31-0.59-4.41-1.94-5.9-3.8c1.39-1.94,3.84-3.08,6.22-2.89c-3.05-2.16-5.35-5.35-6.43-8.92    c3.72-0.84,7.85,0.6,10.25,3.56c-0.28-2.56-0.56-5.12-0.83-7.69c2.42,1.45,4.85,2.89,7.27,4.34c-1.35-3.3-2.71-6.98-1.51-10.33    c1.2-3.36,6.34-5.19,8.36-2.26c1.38,2,0.49,4.72-0.44,6.96c1.01-2.2,2.97-4.24,5.39-4.28c2.42-0.04,4.63,2.95,3.2,4.91    c1.29-1.89,2.58-3.78,3.87-5.67c0.34,2.78,0.67,5.56,1.01,8.34c-0.05-2.95,3.93-5.05,6.33-3.34c2.4,1.71,1.73,6.16-1.07,7.08    c2.31-1.02,4.92-1.35,7.41-0.92c-0.6,1.7-1.2,3.4-1.79,5.1c3.42-1.15,7.17-1.33,10.69-0.52c-1.42,3.97-5.71,6.69-9.9,6.28    c3.17,0.12,6.27,1.57,8.39,3.92c-2.88-0.08-5.78,0.5-8.41,1.68c2.66-0.29,5.39,1.51,6.19,4.06c-2.67,1.59-6.21,1.59-8.89,0.02    c2.8,1.51,5.17,3.83,6.72,6.61c-3.19,1.87-7.52,1.55-10.41-0.77c0.49,1.78,0.98,3.56,1.47,5.34c-3.41,0.26-6.92-1.09-9.27-3.58    c1.18,2.9-0.36,6.61-3.25,7.82c-0.12-1.63-0.24-3.26-0.36-4.9c-1.98,0.75-3.79,1.98-5.2,3.55c-0.85-1.64-1.7-3.28-2.54-4.92"
   id="path24" />
	</g>
	<g
   class="st0"
   clip-path="url(#SVGID_2_)"
   id="g35">
		<linearGradient
   id="SVGID_5_"
   gradientUnits="userSpaceOnUse"
   x1="277.145"
   y1="168.8431"
   x2="369.0256"
   y2="168.8431">
			<stop
   offset="0"
   style="stop-color:#69633A"
   id="stop28" />
			<stop
   offset="1"
   style="stop-color:#2E3025"
   id="stop30" />
		</linearGradient>
		<path
   class="st3"
   d="M369.03,320.85c-10.41,3.13-21.6,2.81-31.86-0.93c6.35-3.38,11.74-9.08,15.2-16.07    c-3.8-0.07-7.59-0.15-11.39-0.22c1.37-3.96,2.74-7.91,4.11-11.87c-9.59,0.83-19.17,1.67-28.76,2.5    c12.59-4.27,23.08-15.97,27.17-30.31c-4.19,1.8-8.38,3.59-12.57,5.39c4.03-3.14,6.57-8.66,6.56-14.26    c-4.76,1.81-9.82,2.53-14.82,2.13c2.11-4.29,4.21-8.57,6.32-12.86c-6.54,3.5-14.15,4.29-21.12,2.19    c12.8-5.37,24.92-12.9,35.85-22.26c-8.59,0.31-17.18,0.63-25.77,0.94c7.15-0.82,13.97-4.96,18.59-11.29    c-19.46,5.03-39.46,7.25-59.39,6.61c22.35-3.53,43.7-15.03,60.36-32.51c-5.45,2.57-11.37,3.8-17.25,3.6    c3.27-3.5,6.55-7.01,9.82-10.51c-9.32,2.81-19.06,3.74-28.65,2.73c21.5-8.5,46.36-21.31,50.24-47.07    c-2.7,1.22-5.57,1.92-8.47,2.07c4.09-5.6,8.17-11.19,12.26-16.79c-12.03,5.27-25.11,7.37-37.93,6.1    c14.8-1.32,28.55-12.86,34.16-28.65c-4.06,4.17-9.76,6.13-15.14,5.22c8.92-3.82,16.31-12.11,19.86-22.26    c-4.2,2.99-8.95,4.94-13.85,5.68c5.06-4.94,8.72-11.74,10.31-19.14c-7.42,6.52-16.92,9.84-26.24,9.17    c14.59-2.69,27.96-13.16,35.46-27.8c-3.59,1.97-7.19,3.95-10.78,5.92c9.46-11.01,15.21-26.12,15.85-41.57L369.03,320.85z"
   id="path33" />
	</g>
	<g
   class="st0"
   clip-path="url(#SVGID_2_)"
   id="g44">
		<linearGradient
   id="SVGID_6_"
   gradientUnits="userSpaceOnUse"
   x1="146.2897"
   y1="340.0251"
   x2="371.53"
   y2="340.0251">
			<stop
   offset="0"
   style="stop-color:#6D6670"
   id="stop37" />
			<stop
   offset="1"
   style="stop-color:#3A404A"
   id="stop39" />
		</linearGradient>
		<path
   class="st4"
   d="M146.29,346.36c15.46-12.41,29.46-29,39.14-46.29c20.37-3.86,42.28-8.5,62.66-12.36    c39.61,9.27,78.93,19.76,117.89,31.47l5.55,22.61l-2.32,50.54l-202.86-4.08L146.29,346.36z"
   id="path42" />
	</g>
	<g
   class="st0"
   clip-path="url(#SVGID_2_)"
   id="g53">
		<linearGradient
   id="SVGID_7_"
   gradientUnits="userSpaceOnUse"
   x1="2.4579"
   y1="355.9397"
   x2="206.2575"
   y2="355.9397">
			<stop
   offset="0"
   style="stop-color:#6D6670"
   id="stop46" />
			<stop
   offset="1"
   style="stop-color:#3A404A"
   id="stop48" />
		</linearGradient>
		<path
   class="st5"
   d="M2.46,377.73c36.37-13.75,73.31-29.43,108.75-45.42c10.62,3.98,21.24,7.96,31.85,11.94    c20.34,9.76,44.24,23.08,63.19,35.32L2.46,377.73z"
   id="path51" />
	</g>
	
</g>
</svg>