<?xml version="1.0" encoding="UTF-8" standalone="no"?>
<!-- Generator: Adobe Illustrator 24.1.2, SVG Export Plug-In . SVG Version: 6.00 Build 0)  -->

<svg
   xmlns:dc="http://purl.org/dc/elements/1.1/"
   xmlns:cc="http://creativecommons.org/ns#"
   xmlns:rdf="http://www.w3.org/1999/02/22-rdf-syntax-ns#"
   xmlns:svg="http://www.w3.org/2000/svg"
   xmlns="http://www.w3.org/2000/svg"
   xmlns:sodipodi="http://sodipodi.sourceforge.net/DTD/sodipodi-0.dtd"
   xmlns:inkscape="http://www.inkscape.org/namespaces/inkscape"
   version="1.1"
   id="Layer_1"
   x="0px"
   y="0px"
   viewBox="0 0 166.37 99.33"
   style="enable-background:new 0 0 166.37 99.33;"
   xml:space="preserve"
   sodipodi:docname="mountain_background_left.svg"
   inkscape:version="0.92.5 (2060ec1f9f, 2020-04-08)"><metadata
   id="metadata56"><rdf:RDF><cc:Work
       rdf:about=""><dc:format>image/svg+xml</dc:format><dc:type
         rdf:resource="http://purl.org/dc/dcmitype/StillImage" /></cc:Work></rdf:RDF></metadata><defs
   id="defs54" /><sodipodi:namedview
   pagecolor="#ffffff"
   bordercolor="#666666"
   borderopacity="1"
   objecttolerance="10"
   gridtolerance="10"
   guidetolerance="10"
   inkscape:pageopacity="0"
   inkscape:pageshadow="2"
   inkscape:window-width="2401"
   inkscape:window-height="802"
   id="namedview52"
   showgrid="false"
   inkscape:zoom="4.7518372"
   inkscape:cx="72.923389"
   inkscape:cy="60.31034"
   inkscape:window-x="134"
   inkscape:window-y="55"
   inkscape:window-maximized="0"
   inkscape:current-layer="g49" />
<style
   type="text/css"
   id="style2">
	.st0{fill:url(#SVGID_1_);}
	.st1{fill:url(#SVGID_2_);}
	.st2{fill:url(#SVGID_3_);}
	.st3{fill:url(#SVGID_4_);}
	.st4{fill:url(#SVGID_5_);}
</style>
<g
   id="g49">
	<g
   id="g11">
		
			<linearGradient
   id="SVGID_1_"
   gradientUnits="userSpaceOnUse"
   x1="1675.0905"
   y1="1579.0625"
   x2="1763.7466"
   y2="1579.0625"
   gradientTransform="matrix(0.8368 -0.5475 0.5475 0.8368 -2178.3074 -312.0695)">
			<stop
   offset="0"
   style="stop-color:#2E3025"
   id="stop4" />
			<stop
   offset="1"
   style="stop-color:#69633A"
   id="stop6" />
		</linearGradient>
		<path
   class="st0"
   d="M106.74,72.38c-1.39,2.38-5.79,0.49-5.52-2.26c0.27-2.75,3.88-4.23,6.38-3.04c-1.96-0.72-3.39-2.72-3.43-4.81    c1.09,0.23,2.19,0.46,3.28,0.69c-1.26-1.86-2.58-4.09-1.85-6.21s4.7-2.36,4.75-0.11c0.16-1.78,0.31-3.56,0.47-5.35    c1.74-0.03,3.48,0.78,4.58,2.13c-1.1-1.98,1.62-3.84,3.79-4.48c1.57-0.47,3.14-0.94,4.71-1.41c2.19-0.66,4.61-1.3,6.7-0.39    c-0.28-1.78,0.19-3.87,1.76-4.74s4.06,0.59,3.51,2.3c1.13-0.56,2.27-1.12,3.4-1.67c0.39,0.52,0.79,1.04,1.18,1.57    c5,1.21,10.2,1.56,15.31,1.03c-0.37,1.71-0.73,3.41-1.1,5.12c1.88-2.09,4.9-3.08,7.66-2.51c-0.96,1.36-1.92,2.71-2.88,4.07    c1.8-1.76,4.44-2.64,6.94-2.31c-1.67,1.27-3.34,2.54-5.02,3.81c0.37,0.93,0.75,1.85,1.12,2.78c-0.71,1.35-1.97,2.4-3.42,2.88    c2,0.08,3.59,2.35,2.99,4.26c-0.6,1.91-3.21,2.85-4.89,1.77c-0.1,1.3-0.21,2.6-0.31,3.9c-1.79,0.22-3.57,0.45-5.36,0.67    c0.26,1.71,0.53,3.42,0.79,5.14c-1.45-0.19-2.9-0.37-4.36-0.56c0.97,1.56,0.44,3.86-1.11,4.84s-3.85,0.47-4.84-1.08    c-0.17,4.46-6.86,4.64-10.23,7.56c-1.49,1.29-2.35,3.22-3.9,4.44c-1.55,1.22-4.43,1.17-4.95-0.73c-0.87,2.21-1.86,4.58-3.89,5.81    c-2.04,1.23-5.37,0.43-5.71-1.92c-4.66,3.06-10.02,5.06-15.54,5.8c0.37-0.87,0.75-1.74,1.12-2.61c-1.86-0.14-3.75,0.18-5.46,0.93    c-0.01-1.46,0.44-2.92,1.27-4.12c-1.2,1.27-3.07,1.85-4.78,1.5c-0.07-2.39,1.96-4.23,3.06-6.35c1.1-2.12,0.29-5.72-2.08-5.42    c0.19-2.01,2.49-3.52,4.4-2.9c1.03-1.84,2.05-3.69,3.08-5.53c1.31,0.19,2.61,0.37,3.92,0.56"
   id="path9" />
	</g>
	<g
   id="g20"
   transform="translate(0.84177968,19.781822)">
		<linearGradient
   id="SVGID_2_"
   gradientUnits="userSpaceOnUse"
   x1="109.2841"
   y1="13.0983"
   x2="109.2841"
   y2="1.1645">
			<stop
   offset="0"
   style="stop-color:#3A404A"
   id="stop13" />
			<stop
   offset="1"
   style="stop-color:#6D6670"
   id="stop15" />
		</linearGradient>
		<path
   class="st1"
   d="m 104.1,2.82 c 2.07,-1.98 8.58,-2.22 10.89,-0.53 2.31,1.69 3.15,6.11 1.89,8.68 -4.42,0.92 -9.78,3.7 -15.78,0.93 1.32,-3.54 1.68,-5.54 3,-9.08 z"
   id="path18"
   style="fill:url(#SVGID_2_)"
   inkscape:connector-curvature="0" />
	</g>
	<g
   id="g29"
   transform="translate(-3.1566738,17.256483)">
		
			<linearGradient
   id="SVGID_3_"
   gradientUnits="userSpaceOnUse"
   x1="-2097.4592"
   y1="34.157902"
   x2="-2097.4592"
   y2="13.1126"
   gradientTransform="matrix(-1,0,0,1,-2048.6404,0)">
			<stop
   offset="0"
   style="stop-color:#2E3025"
   id="stop22" />
			<stop
   offset="1"
   style="stop-color:#69633A"
   id="stop24" />
		</linearGradient>
		<path
   class="st2"
   d="m 49.34,32 c 1.66,1.21 3.74,1.84 5.8,1.75 -0.35,-1.3 -1.08,-2.5 -2.09,-3.4 2.34,0.21 4.68,0.41 7.03,0.62 0.79,0.07 1.87,-0.1 1.92,-0.89 0.04,-0.69 -0.8,-1.05 -1.47,-1.21 -1.87,-0.43 -3.74,-0.87 -5.61,-1.3 2.67,0.07 5.35,-0.6 7.66,-1.93 -1.57,-0.57 -3.26,-0.78 -4.92,-0.62 1,-0.25 1.92,-0.84 2.56,-1.65 -0.61,-0.84 -1.67,-1.34 -2.7,-1.25 1.32,-0.94 2.32,-2.32 2.79,-3.87 -1.61,-0.36 -3.41,0.26 -4.45,1.54 0.12,-1.11 0.24,-2.22 0.36,-3.34 -1.05,0.63 -2.1,1.26 -3.16,1.89 0.59,-1.43 1.18,-3.03 0.66,-4.49 -0.52,-1.46 -1.02,-0.52 -1.9,0.76 -0.6,0.87 -1.95,0.31 -1.54,1.29 -0.44,-0.96 -1.29,-1.84 -2.34,-1.86 -1.05,-0.02 -2.01,1.28 -1.39,2.13 -0.56,-0.82 -1.12,-1.64 -1.68,-2.46 -0.15,1.21 -0.29,2.41 -0.44,3.62 0.02,-1.28 -1.71,-2.19 -2.75,-1.45 -1.04,0.74 -0.75,2.67 0.46,3.07 -1,-0.44 -2.14,-0.59 -3.22,-0.4 0.26,0.74 0.52,1.48 0.78,2.21 -1.49,-0.5 -3.11,-0.58 -4.64,-0.23 0.61,1.72 2.48,2.91 4.3,2.73 -1.38,0.05 -2.72,0.68 -3.64,1.7 1.25,-0.03 2.51,0.22 3.65,0.73 -1.15,-0.12 -2.34,0.65 -2.69,1.76 1.16,0.69 2.7,0.69 3.86,0.01 -1.22,0.65 -2.24,1.66 -2.92,2.87 1.39,0.81 3.27,0.67 4.52,-0.33 -0.21,0.77 -0.42,1.55 -0.64,2.32 1.48,0.11 3,-0.47 4.03,-1.55 -0.51,1.26 0.16,2.87 1.41,3.39 0.05,-0.71 0.11,-1.42 0.16,-2.13 0.86,0.32 1.64,0.86 2.26,1.54 0.37,-0.71 0.74,-1.42 1.1,-2.14"
   id="path27"
   style="fill:url(#SVGID_3_)"
   inkscape:connector-curvature="0" />
	</g>
	<g
   id="g38"
   transform="translate(0.63133476,7.3655722)">
		<linearGradient
   id="SVGID_4_"
   gradientUnits="userSpaceOnUse"
   x1="88.825401"
   y1="23.935801"
   x2="88.825401"
   y2="0"
   gradientTransform="translate(0.21044492,12.41625)">
			<stop
   offset="0"
   style="stop-color:#3A404A"
   id="stop31" />
			<stop
   offset="1"
   style="stop-color:#6D6670"
   id="stop33" />
		</linearGradient>
		<path
   class="st3"
   d="m 99.000445,12.41625 c 3.499995,4.9 6.999995,9.79 10.489995,14.69 -5.19,5.22 -16.989995,6.98 -25.449995,9.25 -6.64,-1.76 -12,-4.69 -15.46,-11.92 2.31,-3.48 4.54,-8.54 6.85,-12.02 7.52,0 16.05,0 23.57,0 z"
   id="path36"
   style="fill:url(#SVGID_4_)"
   inkscape:connector-curvature="0" />
	</g>
	<g
   id="g47"
   transform="translate(-3.1566738,17.256483)">
		<linearGradient
   id="SVGID_5_"
   gradientUnits="userSpaceOnUse"
   x1="28.0292"
   y1="51.2262"
   x2="28.0292"
   y2="14.0222">
			<stop
   offset="0"
   style="stop-color:#3A404A"
   id="stop40" />
			<stop
   offset="1"
   style="stop-color:#6D6670"
   id="stop42" />
		</linearGradient>
		<path
   class="st4"
   d="M 56.06,33.67 C 49.68,40.21 42.32,46.17 34.71,51.22 21.38,50.99 12.13,43.43 0,37.89 4.88,29.93 9.75,21.98 14.63,14.02 c 7.12,1.03 15.8,2.6 22.92,3.64 6.17,5.34 12.34,10.68 18.51,16.01 z"
   id="path45"
   style="fill:url(#SVGID_5_)"
   inkscape:connector-curvature="0" />
	</g>
</g>
</svg>