<?xml version="1.0" encoding="UTF-8" standalone="no"?>
<!-- Generator: Adobe Illustrator 24.1.2, SVG Export Plug-In . SVG Version: 6.00 Build 0)  -->

<svg
   xmlns:dc="http://purl.org/dc/elements/1.1/"
   xmlns:cc="http://creativecommons.org/ns#"
   xmlns:rdf="http://www.w3.org/1999/02/22-rdf-syntax-ns#"
   xmlns:svg="http://www.w3.org/2000/svg"
   xmlns="http://www.w3.org/2000/svg"
   xmlns:sodipodi="http://sodipodi.sourceforge.net/DTD/sodipodi-0.dtd"
   xmlns:inkscape="http://www.inkscape.org/namespaces/inkscape"
   version="1.1"
   id="Layer_1"
   x="0px"
   y="0px"
   viewBox="0 0 360.25 296.57"
   style="enable-background:new 0 0 360.25 296.57;"
   xml:space="preserve"
   sodipodi:docname="lake_foreground_left.svg"
   inkscape:version="0.92.5 (2060ec1f9f, 2020-04-08)"><metadata
   id="metadata64"><rdf:RDF><cc:Work
       rdf:about=""><dc:format>image/svg+xml</dc:format><dc:type
         rdf:resource="http://purl.org/dc/dcmitype/StillImage" /></cc:Work></rdf:RDF></metadata><defs
   id="defs62" /><sodipodi:namedview
   pagecolor="#ffffff"
   bordercolor="#666666"
   borderopacity="1"
   objecttolerance="10"
   gridtolerance="10"
   guidetolerance="10"
   inkscape:pageopacity="0"
   inkscape:pageshadow="2"
   inkscape:window-width="2560"
   inkscape:window-height="1384"
   id="namedview60"
   showgrid="false"
   inkscape:zoom="2.250763"
   inkscape:cx="117.87904"
   inkscape:cy="182.6375"
   inkscape:window-x="0"
   inkscape:window-y="308"
   inkscape:window-maximized="1"
   inkscape:current-layer="g57" />
<style
   type="text/css"
   id="style2">
	.st0{fill:#4F4E48;}
	.st1{fill:url(#SVGID_1_);}
	.st2{fill:url(#SVGID_2_);}
	.st3{fill:url(#SVGID_3_);}
	.st4{fill:url(#SVGID_4_);}
	.st5{fill:url(#SVGID_5_);}
</style>
<g
   id="g57">
	<g
   id="g15">
		<rect
   x="203.85"
   y="227.06"
   class="st0"
   width="12.42"
   height="44.61"
   id="rect4" />
		<g
   id="g13">

				<linearGradient
   id="SVGID_1_"
   gradientUnits="userSpaceOnUse"
   x1="-12212.4775"
   y1="146.461"
   x2="-12136.6035"
   y2="146.461"
   gradientTransform="matrix(0.8394 0 0 1 1283.9174 0)">
				<stop
   offset="0"
   style="stop-color:#41402D"
   id="stop6" />
				<stop
   offset="0.9576"
   style="stop-color:#232520"
   id="stop8" />
			</linearGradient>
			<path
   class="st1"
   d="m 204.88,247.04 c -2.63,-1.5 -5.25,-2.99 -7.88,-4.49 1.11,-1.75 2.23,-3.51 3.34,-5.26 -3.13,2.22 -12.84,-2.53 -12.84,-2.53 0,0 3.85,-3.67 7.92,-11.37 -2.32,-1.37 -4.63,-2.74 -6.95,-4.11 2.11,-5.42 4.23,-10.85 6.34,-16.27 -1.96,0.29 -3.99,-0.22 -5.68,-1.43 1.68,-0.71 2.85,-2.84 2.72,-4.96 -3.42,0.61 -7.07,-0.9 -9.43,-3.92 5.34,-5.91 10.67,-11.82 16.01,-17.74 -5.95,1.65 -11.89,3.31 -17.84,4.96 10.57,-12.13 16.77,-29.5 16.76,-46.99 -2.59,2.22 -6.07,2.88 -9.12,1.75 3.35,-2.7 6.79,-5.52 8.94,-9.6 2.15,-4.08 2.65,-9.8 0.08,-13.52 l 3.39,-4.41 c -2.4,-0.36 -4.79,-0.73 -7.19,-1.09 3.38,-0.35 6.46,-3.29 7.49,-7.14 -3.83,-0.19 -7.68,0.39 -11.35,1.7 5.76,-5.05 10.17,-12.24 12.46,-20.31 -1.27,-1.62 -3.04,-2.67 -4.89,-2.9 3.44,-1.86 7.28,-7.3 4.14,-9.79 2.69,-4.32 6.78,-16.49 7.74,-21.75 1.26,5.54 3.89,18.82 7.13,23.08 -1.73,1.55 -3.45,3.1 -5.18,4.66 3.98,2.87 7.95,5.75 11.93,8.62 -2.59,-0.58 -5.17,-1.16 -7.76,-1.74 -2.12,9.08 4.80034,15.363503 13.55,17.2 -3.8,0.47 -7.64,0.4 -11.42,-0.21 l 12.36,17.34 c -2.4,-2.1 -5.24,-3.47 -8.19,-3.94 -0.84,1.7 -0.93,3.91 -0.22,5.7 l -2.43,-5.52 c -1.8,12.63 5.17,26.2 15.43,30.02 -4.95,-1.37 -9.59,-4.26 -13.36,-8.32 l 8.01,33.54 c 0.24,1 0.019,0.48117 0.52859,2.03083 0.28801,0.87587 0.15668,0.44767 0.49296,1.29023 5.44,6.12 8.91845,10.45894 14.35845,16.57894 -6.1,-0.78 -12.09,-2.73 -17.67,-5.76 0.4,10.72 4.93,21.13 12.07,27.68 -6.39,-0.7 -12.68,-2.7 -18.52,-5.89 3.44,9.88 7.61,19.39 12.46,28.39 -2.75,-0.71 -5.51,-1.42 -8.26,-2.14 0.27,3.41 -2.28,6.75 -5.16,6.76 1.19,3.83 2.37,7.65 3.56,11.48 -2.09,-1.9 -9.77,-3.23 -10.5,-0.21"
   id="path11"
   inkscape:connector-curvature="0"
   style="fill:url(#SVGID_1_)"
   sodipodi:nodetypes="ccccccccccccccsccccccccccccccccccccccscccccccccc" />
		</g>
	</g>
	<radialGradient
   id="SVGID_2_"
   cx="180.1235"
   cy="231.3269"
   r="116.2806"
   gradientUnits="userSpaceOnUse">
		<stop
   offset="0.4705"
   style="stop-color:#4A4C47"
   id="stop17" />
		<stop
   offset="0.9986"
   style="stop-color:#303535"
   id="stop19" />
	</radialGradient>
	<polygon
   class="st2"
   points="0,166.08 84.5,191 109.47,231.07 138.47,231.07 238.41,282.07 313.34,270.07 332.67,278.07    360.25,296.57 0.5,296.57  "
   id="polygon22" />
	<g
   id="g35">
		<rect
   x="63.07"
   y="251.46"
   class="st0"
   width="12.42"
   height="44.61"
   id="rect24" />
		<g
   id="g33">

				<linearGradient
   id="SVGID_3_"
   gradientUnits="userSpaceOnUse"
   x1="44.562"
   y1="132.2481"
   x2="144.3263"
   y2="132.2481"
   gradientTransform="matrix(0.8394 0 0 1 -15.766 0)">
				<stop
   offset="0"
   style="stop-color:#41402D"
   id="stop26" />
				<stop
   offset="0.9576"
   style="stop-color:#232520"
   id="stop28" />
			</linearGradient>
			<path
   class="st3"
   d="m 73.48,264.5 c 3.45,-1.97 6.9,-3.94 10.36,-5.9 -1.47,-2.31 -2.93,-4.61 -4.4,-6.92 4.11,2.92 16.88,-3.32 16.88,-3.32 0,0 -5.06,-4.82 -10.41,-14.95 3.05,-1.8 6.09,-3.6 9.14,-5.4 -2.78,-7.13 -5.56,-14.26 -8.34,-21.4 2.57,0.38 5.24,-0.29 7.47,-1.88 -2.2,-0.94 -3.74,-3.74 -3.58,-6.52 4.5,0.8 9.29,-1.19 12.4,-5.15 -7.02,-7.77 -14.03,-15.55 -21.05,-23.32 7.82,2.17 15.63,4.35 23.45,6.52 -13.9,-15.95 -22.05,-38.79 -22.04,-61.79 3.41,2.91 7.98,3.79 11.99,2.3 -4.4,-3.55 -8.93,-7.25 -11.75,-12.62 C 80.78,98.78 80.12,91.26 83.49,86.37 82,84.44 80.52,82.5 79.03,80.57 c 3.15,-0.48 6.3,-0.96 9.46,-1.43 -4.44,-0.46 -8.49,-4.33 -9.84,-9.39 5.03,-0.25 10.1,0.51 14.93,2.23 -7.57,-6.63 -13.38,-16.09 -16.39,-26.7 1.67,-2.13 4,-3.51 6.43,-3.81 C 79.1,39.03 74.05,31.87 78.18,28.59 74.63,22.91 69.25,6.91 67.98,0 66.32,7.28 62.86,24.75 58.61,30.34 l 6.81,6.12 -15.69,11.34 c 3.4,-0.76 6.8,-1.53 10.2,-2.29 2.79,11.94 -7.79661,22.059944 -17.81,22.62 4.99,0.61 10.05,0.52 15.02,-0.27 l -16.26,22.8 c 3.15,-2.76 6.89,-4.56 10.76,-5.18 1.11,2.24 1.22,5.14 0.29,7.49 1.06,-2.42 2.13,-4.84 3.19,-7.26 2.37,16.6 -6.8,34.44 -20.29,39.48 6.51,-1.8 12.61,-5.61 17.57,-10.94 -4.259965,35.19683 -9.591661,46.30696 -30.77,70.27 8.02,-1.03 15.89,-3.6 23.23,-7.58 -0.52,14.1 -6.49,27.78 -15.87,36.39 8.4,-0.92 16.68,-3.55 24.34,-7.74 -4.52,12.99 -10.01,25.49 -16.38,37.32 3.62,-0.94 7.24,-1.87 10.86,-2.81 -0.35,4.48 3,8.88 6.78,8.89 l -4.68,15.09 c 2.75,-2.5 12.84,-4.24 13.8,-0.28"
   id="path31"
   inkscape:connector-curvature="0"
   style="fill:url(#SVGID_3_)"
   sodipodi:nodetypes="ccccccccccccccscccccccccccccccccccccccccccccc" />
		</g>
	</g>
	<g
   id="g48">
		<rect
   x="90.3"
   y="251.46"
   class="st0"
   width="12.42"
   height="44.61"
   id="rect37" />
		<g
   id="g46">

				<linearGradient
   id="SVGID_4_"
   gradientUnits="userSpaceOnUse"
   x1="-14041.668"
   y1="159.1642"
   x2="-13965.7939"
   y2="159.1642"
   gradientTransform="matrix(0.8394 0 0 1 1283.9174 0)">
				<stop
   offset="0"
   style="stop-color:#6A6861"
   id="stop39" />
				<stop
   offset="1"
   style="stop-color:#54564E"
   id="stop41" />
			</linearGradient>
			<path
   class="st4"
   d="m 90.93,271.45 c -2.63,-1.67 -5.25,-3.34 -7.88,-5.01 1.11,-1.96 2.23,-3.92 3.34,-5.87 -3.13,2.48 -12.84,-2.82 -12.84,-2.82 0,0 3.85,-4.09 7.92,-12.69 -2.32,-1.53 -4.63,-3.06 -6.95,-4.59 2.11,-6.05 4.23,-12.11 6.34,-18.16 -1.96,0.32 -3.99,-0.25 -5.68,-1.59 1.68,-0.8 2.85,-3.17 2.72,-5.53 -3.42,0.68 -7.07,-1.01 -9.43,-4.37 5.34,-6.6 10.67,-13.2 16.01,-19.8 -5.95,1.85 -11.89,3.69 -17.84,5.54 10.57,-13.54 16.77,-32.94 16.76,-52.46 -2.59,2.47 -6.07,3.22 -9.12,1.95 3.35,-3.01 6.79,-6.16 8.94,-10.71 2.15,-4.56 2.65,-10.94 0.08,-15.09 1.13,-1.64 2.26,-3.28 3.39,-4.93 -2.4,-0.41 -4.79,-0.81 -7.19,-1.22 3.38,-0.39 6.46,-3.68 7.49,-7.97 -3.83,-0.21 -7.68,0.44 -11.35,1.9 5.76,-5.63 10.17,-13.66 12.46,-22.67 -1.27,-1.81 -3.04,-2.98 -4.89,-3.24 3.44,-2.07 7.28,-8.15 4.14,-10.93 2.69,-4.82 6.78,-18.41 7.74,-24.28 1.26,6.18 3.89,21.01 7.13,25.76 -1.73,1.73 -3.45,3.46 -5.18,5.2 3.98,3.21 7.95,6.42 11.93,9.62 -2.59,-0.65 -5.17,-1.3 -7.76,-1.95 -2.12,10.14 6.11416,17.48223 13.55,19.2 -3.8,0.52 -7.64,0.44 -11.42,-0.23 l 12.36,19.35 c -2.4,-2.34 -5.24,-3.87 -8.19,-4.4 -0.84,1.9 -0.93,4.36 -0.22,6.36 -0.81,-2.05 -1.62,-4.11 -2.43,-6.16 -1.8,14.09 5.17,29.24 15.43,33.52 -4.95,-1.53 -9.59,-4.76 -13.36,-9.28 2.80985,28.89619 7.19905,39.22536 23.39,59.66 -6.1,-0.87 -12.09,-3.05 -17.67,-6.43 0.4,11.97 4.93,23.58 12.07,30.9 -6.39,-0.78 -12.68,-3.01 -18.52,-6.57 3.44,11.03 7.61,21.64 12.46,31.69 -2.75,-0.79 -5.51,-1.59 -8.26,-2.38 0.27,3.81 -2.28,7.54 -5.16,7.54 1.19,4.27 2.37,8.54 3.56,12.81 -2.09,-2.12 -9.77,-3.6 -10.5,-0.24"
   id="path44"
   inkscape:connector-curvature="0"
   style="fill:url(#SVGID_4_)"
   sodipodi:nodetypes="ccccccccccccccccccccccccccccccccccccccccccccc" />
		</g>
	</g>

		<radialGradient
   id="SVGID_5_"
   cx="-10053.0156"
   cy="2019.4194"
   r="30.3362"
   gradientTransform="matrix(-1 0 0 1.8649 -9810.2588 -3486.625)"
   gradientUnits="userSpaceOnUse">
		<stop
   offset="0.4705"
   style="stop-color:#4A4C47"
   id="stop50" />
		<stop
   offset="0.9986"
   style="stop-color:#303535"
   id="stop52" />
	</radialGradient>
	<polygon
   class="st5"
   points="284.65,295.64 258.84,262.07 216.96,269.53 200.86,296.57  "
   id="polygon55" />
</g>
</svg>