<?xml version="1.0" encoding="UTF-8" standalone="no"?>
<!-- Generator: Adobe Illustrator 24.1.2, SVG Export Plug-In . SVG Version: 6.00 Build 0)  -->

<svg
   xmlns:dc="http://purl.org/dc/elements/1.1/"
   xmlns:cc="http://creativecommons.org/ns#"
   xmlns:rdf="http://www.w3.org/1999/02/22-rdf-syntax-ns#"
   xmlns:svg="http://www.w3.org/2000/svg"
   xmlns="http://www.w3.org/2000/svg"
   xmlns:sodipodi="http://sodipodi.sourceforge.net/DTD/sodipodi-0.dtd"
   xmlns:inkscape="http://www.inkscape.org/namespaces/inkscape"
   version="1.1"
   id="Layer_1"
   x="0px"
   y="0px"
   viewBox="0 0 397.86 236.5"
   style="enable-background:new 0 0 397.86 236.5;"
   xml:space="preserve"
   sodipodi:docname="lake_background_right.svg"
   inkscape:version="0.92.5 (2060ec1f9f, 2020-04-08)"><metadata
   id="metadata76"><rdf:RDF><cc:Work
       rdf:about=""><dc:format>image/svg+xml</dc:format><dc:type
         rdf:resource="http://purl.org/dc/dcmitype/StillImage" /></cc:Work></rdf:RDF></metadata><defs
   id="defs74" /><sodipodi:namedview
   pagecolor="#ffffff"
   bordercolor="#666666"
   borderopacity="1"
   objecttolerance="10"
   gridtolerance="10"
   guidetolerance="10"
   inkscape:pageopacity="0"
   inkscape:pageshadow="2"
   inkscape:window-width="2560"
   inkscape:window-height="1384"
   id="namedview72"
   showgrid="false"
   inkscape:zoom="3.9915433"
   inkscape:cx="177.06495"
   inkscape:cy="146.62076"
   inkscape:window-x="0"
   inkscape:window-y="308"
   inkscape:window-maximized="1"
   inkscape:current-layer="g69" />
<style
   type="text/css"
   id="style2">
	.st0{fill:#4F4E48;}
	.st1{fill:url(#SVGID_1_);}
	.st2{fill:url(#SVGID_2_);}
	.st3{fill:url(#SVGID_3_);}
	.st4{fill:url(#SVGID_4_);}
	.st5{fill:url(#SVGID_5_);}
	.st6{fill:url(#SVGID_6_);}
	.st7{fill:url(#SVGID_7_);}
</style>
<g
   id="g69">
	<rect
   x="196.59"
   y="164.03"
   class="st0"
   width="5.69"
   height="28.97"
   id="rect4" />
	<g
   id="g13">

			<linearGradient
   id="SVGID_1_"
   gradientUnits="userSpaceOnUse"
   x1="319.18"
   y1="85.8865"
   x2="383.9703"
   y2="85.8865"
   gradientTransform="matrix(0.8394 0 0 1 -98.5192 0)">
			<stop
   offset="0"
   style="stop-color:#41402D"
   id="stop6" />
			<stop
   offset="0.9576"
   style="stop-color:#232520"
   id="stop8" />
		</linearGradient>
		<path
   class="st1"
   d="m 203.06,171.77 c 2.24,-1.28 4.48,-2.56 6.73,-3.83 -0.95,-1.5 -1.9,-3 -2.86,-4.49 2.67,1.9 10.96,-2.16 10.96,-2.16 0,0 -3.29,-3.13 -6.76,-9.71 1.98,-1.17 3.96,-2.34 5.93,-3.51 -1.81,-4.63 -3.61,-9.26 -5.42,-13.89 1.67,0.24 3.4,-0.19 4.85,-1.22 -1.43,-0.61 -2.43,-2.43 -2.33,-4.23 2.92,0.52 6.03,-0.77 8.05,-3.34 -4.56,-5.05 -9.11,-10.1 -13.67,-15.15 5.08,1.41 10.15,2.82 15.23,4.23 -9.03,-10.36 -14.32,-25.19 -14.31,-40.13 2.21,1.89 5.19,2.46 7.79,1.49 -2.86,-2.3 -5.8,-4.71 -7.63,-8.19 -1.83,-3.48 -2.26,-8.37 -0.07,-11.55 -0.97,-1.26 -1.93,-2.51 -2.9,-3.77 2.05,-0.31 4.09,-0.62 6.14,-0.93 -2.88,-0.3 -5.52,-2.81 -6.39,-6.1 3.27,-0.16 6.56,0.33 9.69,1.45 -4.92,-4.31 -8.69,-10.45 -10.64,-17.34 1.08,-1.38 2.6,-2.28 4.18,-2.48 -2.93,-1.58 -6.21,-6.23 -3.53,-8.36 -2.29,-3.69 -5.79,-14.09 -6.61,-18.57 -1.08,4.73 -3.33,16.07 -6.09,19.7 1.47,1.33 2.95,2.65 4.42,3.98 -3.4,2.45 -6.79,4.91 -10.19,7.36 2.21,-0.5 4.42,-0.99 6.62,-1.49 1.81,7.76 -4.73862,12.905217 -11.48388,14.251573 3.24,0.4 6.43388,0.778427 9.67388,0.258427 -3.52,4.93 -7.04,9.87 -10.56,14.8 2.05,-1.79 4.47,-2.96 6.99,-3.37 0.72,1.46 0.87612,2.901573 0.27612,4.421573 l 2.07,-4.71 c 1.54,10.78 -4.42,22.37 -13.18,25.64 4.22,-1.17 8.19,-3.64 11.41,-7.1 -2.28,9.55 -3.91802,19.162632 -6.19802,28.702627 -0.2,0.85 -0.45526,0.90525 -0.68646,2.14816 -0.3408,0.54829 -0.3593,0.542 -0.80745,1.06214 l -12.29807,13.71707 c 5.21,-0.67 10.32,-2.33 15.09,-4.92 -0.34,9.16 -4.21,18.04 -10.31,23.63 5.46,-0.6 10.83,-2.3 15.81,-5.03 -2.94,8.43 -6.58612,16.99843 -10.72612,24.67843 2.35,-0.61 4.7,-1.22 7.05,-1.82 -0.23,2.91 1.95,5.76 4.41,5.77 -1.01,3.27 -2.03,6.53 -3.04,9.8 1.79,-1.62 8.34,-2.75 8.96,-0.18"
   id="path11"
   inkscape:connector-curvature="0"
   style="fill:url(#SVGID_1_)"
   sodipodi:nodetypes="ccccccccccccccsccccccccccccccccccccccccccccccccc" />
	</g>

		<radialGradient
   id="SVGID_2_"
   cx="-2343.6035"
   cy="1221.538"
   r="10.5781"
   gradientTransform="matrix(0.5829,-0.2963,0.3288,0.647,973.5505,-1383.7023)"
   gradientUnits="userSpaceOnUse">
		<stop
   offset="0.4705"
   style="stop-color:#4A4C47"
   id="stop15" />
		<stop
   offset="0.9986"
   style="stop-color:#303535"
   id="stop17" />
	</radialGradient>
	<polygon
   class="st2"
   points="14.44,94.34 18.82,101.05 17.09,106.22 4.2,107.77 0,102.04 4.6,93.98 "
   id="polygon20"
   style="fill:url(#SVGID_2_)"
   transform="translate(1.9486634,34.013035)" />
	<radialGradient
   id="SVGID_3_"
   cx="70.8352"
   cy="107.5"
   r="13.5349"
   gradientUnits="userSpaceOnUse">
		<stop
   offset="0.4705"
   style="stop-color:#4A4C47"
   id="stop22" />
		<stop
   offset="0.9986"
   style="stop-color:#303535"
   id="stop24" />
	</radialGradient>
	<polygon
   class="st3"
   points="59.34,92.5 77.34,98.5 87.34,116.5 78.34,122.5 54.34,122.5 54.34,105.5 "
   id="polygon27"
   style="fill:url(#SVGID_3_)"
   transform="translate(1.0629073,26.395532)" />

		<radialGradient
   id="SVGID_4_"
   cx="-3028.2759"
   cy="-1034.84"
   r="18.9375"
   gradientTransform="matrix(-0.7766 -0.6299 -0.6299 0.7766 -2678.4375 -935.0241)"
   gradientUnits="userSpaceOnUse">
		<stop
   offset="0.4705"
   style="stop-color:#4A4C47"
   id="stop29" />
		<stop
   offset="0.9986"
   style="stop-color:#303535"
   id="stop31" />
	</radialGradient>
	<polygon
   class="st4"
   points="348.61,177.65 340.05,154.51 314.31,148.82 300.1,162.59 302.42,176.61 335.27,189.09  "
   id="polygon34" />

		<radialGradient
   id="SVGID_5_"
   cx="-1011.9156"
   cy="201"
   r="36.7268"
   gradientTransform="matrix(-1 0 0 1 -663.0527 0)"
   gradientUnits="userSpaceOnUse">
		<stop
   offset="0.4705"
   style="stop-color:#4A4C47"
   id="stop36" />
		<stop
   offset="0.9986"
   style="stop-color:#303535"
   id="stop38" />
	</radialGradient>
	<polygon
   class="st5"
   points="397.86,208.5 358.86,165.5 310.86,186.5 299.86,208.5 331.86,236.5 371.86,236.5  "
   id="polygon41" />
	<g
   id="g54"
   transform="translate(1.0629073,26.395532)">
		<path
   class="st0"
   d="m 42.8,146.46 c 0,0 0.81,1.04 2.85,1.04 2.04,0 2.85,-1.04 2.85,-1.04 v -28.97 h -5.7 z"
   id="path43"
   inkscape:connector-curvature="0"
   style="fill:#4f4e48" />
		<g
   id="g52">

				<linearGradient
   id="SVGID_6_"
   gradientUnits="userSpaceOnUse"
   x1="-13231.318"
   y1="73.115501"
   x2="-13188.481"
   y2="73.115501"
   gradientTransform="matrix(0.8394 0 0 1 1283.9174 0)">
				<stop
   offset="0"
   style="stop-color:#6A6861"
   id="stop45" />
				<stop
   offset="1"
   style="stop-color:#54564E"
   id="stop47" />
			</linearGradient>
			<path
   class="st6"
   d="m 43.5,129.9 c -1.48,-0.84 -2.96,-1.69 -4.45,-2.53 l 1.89,-2.97 c -1.77,1.25 -7.25,-1.43 -7.25,-1.43 0,0 2.17,-2.07 4.47,-6.42 -1.31,-0.77 -2.62,-1.55 -3.92,-2.32 1.19,-3.06 2.39,-6.12 3.58,-9.19 -1.1,0.16 -2.25,-0.13 -3.21,-0.81 0.95,-0.4 1.61,-1.6 1.54,-2.8 -1.93,0.35 -3.99,-0.51 -5.32,-2.21 3.01,-3.34 6.03,-6.68 9.04,-10.01 -3.36,0.93 -6.71,1.87 -10.07,2.8 5.97,-6.85 9.47,-16.66 9.46,-26.53 -1.46,1.25 -3.43,1.63 -5.15,0.99 1.89,-1.52 3.84,-3.11 5.05,-5.42 1.21,-2.3 1.49,-5.53 0.05,-7.63 0.64,-0.83 1.28,-1.66 1.91,-2.49 -1.35,-0.21 -2.71,-0.41 -4.06,-0.62 1.91,-0.2 3.65,-1.86 4.23,-4.03 -2.16,-0.11 -4.34,0.22 -6.41,0.96 3.25,-2.85 5.74,-6.91 7.04,-11.46 -0.72,-0.91 -1.72,-1.51 -2.76,-1.64 1.94,-1.05 4.11,-4.12 2.33,-5.53 1.52,-2.44 3.83,-9.31 4.37,-12.28 0.71,3.13 2.2,10.63 4.02,13.03 -0.97,0.88 -1.95,1.75 -2.92,2.63 2.25,1.62 4.49,3.24 6.74,4.87 -1.46,-0.33 -2.92,-0.66 -4.38,-0.98 -1.2,5.13 3.154735,8.868395 7.65,9.71 -2.14,0.26 -4.31,0.22 -6.45,-0.12 2.33,3.26 4.65,6.53 6.98,9.79 -1.35,-1.18 -2.96,-1.96 -4.62,-2.23 -0.48,0.96 -0.52,2.21 -0.13,3.22 -0.46,-1.04 -0.91,-2.08 -1.37,-3.12 -1.02,7.13 2.92,14.79 8.71,16.95 -2.79,-0.77 -5.42,-2.41 -7.55,-4.7 1.51,6.31 3.02,12.63 4.52,18.94 0.13,0.56 0.101046,0.727667 0.408957,1.222482 0.275798,0.443209 0.108972,0.257195 0.312173,0.55649 3.07,3.46 4.89887,5.991028 7.96887,9.451028 -3.44,-0.44 -6.82,-1.54 -9.98,-3.25 0.22,6.05 2.79,11.93 6.81,15.63 -3.61,-0.39 -7.16,-1.52 -10.45,-3.32 1.94,5.58 4.3,10.95 7.03,16.03 -1.55,-0.4 -3.11,-0.8 -4.66,-1.21 0.15,1.93 -1.29,3.81 -2.91,3.82 l 2.01,6.48 c -1.18,-1.07 -5.52,-1.82 -5.93,-0.12"
   id="path50"
   style="fill:url(#SVGID_6_)"
   inkscape:connector-curvature="0"
   sodipodi:nodetypes="cccccccccccccccccccccccccccccccccccccscccccccccc" />
		</g>
	</g>
	<g
   id="g67">
		<path
   class="st0"
   d="M222.72,215.78c0,0,0.81,1.04,2.85,1.04s2.85-1.04,2.85-1.04v-28.97h-5.69V215.78z"
   id="path56" />
		<g
   id="g65">

				<linearGradient
   id="SVGID_7_"
   gradientUnits="userSpaceOnUse"
   x1="-1289.0417"
   y1="130.3544"
   x2="-1237.0884"
   y2="130.3544"
   gradientTransform="matrix(0.8394 0 0 1 1283.9174 0)">
				<stop
   offset="0"
   style="stop-color:#6A6861"
   id="stop58" />
				<stop
   offset="1"
   style="stop-color:#54564E"
   id="stop60" />
			</linearGradient>
			<path
   class="st7"
   d="m 228.91,199.22 c 1.8,-1.02 3.6,-2.05 5.39,-3.07 -0.76,-1.2 -1.53,-2.4 -2.29,-3.6 2.14,1.52 8.79,-1.73 8.79,-1.73 0,0 -2.63,-2.51 -5.42,-7.78 1.59,-0.94 3.17,-1.88 4.76,-2.81 -1.45,-3.71 -2.9,-7.43 -4.34,-11.14 1.34,0.2 2.73,-0.15 3.89,-0.98 -1.15,-0.49 -1.95,-1.95 -1.87,-3.39 2.34,0.42 4.84,-0.62 6.46,-2.68 -3.65,-4.05 -7.31,-8.1 -10.96,-12.15 4.07,1.13 8.14,2.26 12.21,3.4 -7.24,-8.31 -11.48,-20.2 -11.48,-32.18 1.78,1.52 4.16,1.97 6.24,1.2 -2.29,-1.85 -4.65,-3.78 -6.12,-6.57 -1.47,-2.79 -1.81,-6.71 -0.06,-9.26 -0.77,-1.01 -1.55,-2.01 -2.32,-3.02 l 4.92,-0.75 c -2.31,-0.24 -4.42,-2.26 -5.13,-4.89 2.62,-0.13 5.26,0.27 7.77,1.16 -3.94,-3.46 -6.97,-8.38 -8.53,-13.9 0.87,-1.11 2.08,-1.83 3.35,-1.99 -2.35,-1.27 -4.98,-5 -2.83,-6.71 -1.84,-2.96 -4.64,-11.29 -5.3,-14.89 -0.86,3.79 -2.67,12.89 -4.88,15.8 1.18,1.06 2.36,2.12 3.54,3.19 -2.72,1.97 -5.45,3.94 -8.17,5.9 1.77,-0.4 3.54,-0.8 5.31,-1.19 1.45,6.22 -4.28316,10.479439 -9.28,11.78 2.6,0.32 5.23,0.27 7.82,-0.14 -2.82,3.96 -5.64,7.91 -8.47,11.87 1.64,-1.44 3.59,-2.37 5.61,-2.7 0.58,1.17 0.64,2.67 0.15,3.9 0.55,-1.26 1.11,-2.52 1.66,-3.78 1.23,8.64 -3.54,17.94 -10.56,20.56 3.39,-0.94 6.57,-2.92 9.15,-5.69 -1.83,7.66 -2.33137,14.29138 -4.16137,21.95138 -0.16,0.68 -0.43715,1.66858 -1.08863,2.96862 -0.48648,0.74645 -0.60436,0.76366 -0.92863,1.1151 -3.73,4.19 -6.13137,6.3649 -9.85137,10.5649 4.18,-0.53 8.28,-1.87 12.1,-3.94 -0.27,7.34 -3.38,14.47 -8.26,18.95 4.38,-0.48 8.68,-1.85 12.68,-4.03 -2.35,6.76 -5.21,13.28 -8.53,19.44 1.89,-0.49 3.77,-0.97 5.66,-1.46 -0.18,2.34 1.56,4.62 3.53,4.63 -0.81,2.62 -1.62,5.24 -2.44,7.86 1.43,-1.3 6.69,-2.21 7.19,-0.15"
   id="path63"
   inkscape:connector-curvature="0"
   style="fill:url(#SVGID_7_)"
   sodipodi:nodetypes="ccccccccccccccsccccccccccccccccccccccccccccccccc" />
		</g>
	</g>
</g>
</svg>