<?xml version="1.0" encoding="utf-8"?>
<!-- Generator: Adobe Illustrator 24.1.2, SVG Export Plug-In . SVG Version: 6.00 Build 0)  -->
<svg version="1.1" id="Layer_1" xmlns="http://www.w3.org/2000/svg" xmlns:xlink="http://www.w3.org/1999/xlink" x="0px" y="0px"
	 viewBox="0 0 263.34 297.68" style="enable-background:new 0 0 263.34 297.68;" xml:space="preserve">
<style type="text/css">
	.st0{fill:url(#SVGID_1_);}
	.st1{fill:url(#SVGID_2_);}
	.st2{fill:#4F4E48;}
	.st3{fill:url(#SVGID_3_);}
	.st4{fill:url(#SVGID_4_);}
</style>
<g>
	<radialGradient id="SVGID_1_" cx="41.8928" cy="288.4314" r="30.3362" gradientUnits="userSpaceOnUse">
		<stop  offset="0.4705" style="stop-color:#4A4C47"/>
		<stop  offset="0.9986" style="stop-color:#303535"/>
	</radialGradient>
	<polygon class="st0" points="0,297.18 25.81,279.18 67.69,283.18 83.79,297.68 	"/>
	<radialGradient id="SVGID_2_" cx="197.1022" cy="257.3236" r="54.8462" gradientUnits="userSpaceOnUse">
		<stop  offset="0.4705" style="stop-color:#4A4C47"/>
		<stop  offset="0.9986" style="stop-color:#303535"/>
	</radialGradient>
	<polygon class="st1" points="130.86,297.18 150.41,267.18 240.75,216.97 263.34,222.15 263.34,297.68 	"/>
	<g>
		<rect x="180.61" y="252.57" class="st2" width="12.42" height="44.61"/>
		<g>
			
				<linearGradient id="SVGID_3_" gradientUnits="userSpaceOnUse" x1="285.8083" y1="132.2481" x2="385.5726" y2="132.2481" gradientTransform="matrix(0.8394 0 0 1 -100.1673 0)">
				<stop  offset="0" style="stop-color:#41402D"/>
				<stop  offset="0.9576" style="stop-color:#232520"/>
			</linearGradient>
			<path class="st3" d="M191.57,264.5c3.45-1.97,6.9-3.94,10.36-5.9c-1.47-2.31-2.93-4.61-4.4-6.92c4.11,2.92,16.88-3.32,16.88-3.32
				s-5.06-4.82-10.41-14.95c3.05-1.8,6.09-3.6,9.14-5.4c-2.78-7.13-5.56-14.26-8.34-21.4c2.57,0.38,5.24-0.29,7.47-1.88
				c-2.2-0.94-3.74-3.74-3.58-6.52c4.5,0.8,9.29-1.19,12.4-5.15c-7.02-7.77-14.03-15.55-21.05-23.32
				c7.82,2.17,15.63,4.35,23.45,6.52c-13.9-15.95-22.05-38.79-22.04-61.79c3.41,2.91,7.98,3.79,11.99,2.3
				c-4.4-3.55-8.93-7.25-11.75-12.62c-2.82-5.37-3.48-12.89-0.11-17.78c-1.49-1.93-2.97-3.87-4.46-5.8c3.15-0.48,6.3-0.96,9.46-1.43
				c-4.44-0.46-8.49-4.33-9.84-9.39c5.03-0.25,10.1,0.51,14.93,2.23c-7.57-6.63-13.38-16.09-16.39-26.7c1.67-2.13,4-3.51,6.43-3.81
				c-4.52-2.44-9.57-9.6-5.44-12.88c-3.53-5.68-8.91-21.69-10.18-28.59c-1.66,7.28-5.12,24.75-9.37,30.34
				c2.27,2.04,4.54,4.08,6.81,6.12c-5.23,3.78-10.46,7.56-15.69,11.34c3.4-0.76,6.8-1.53,10.2-2.29
				c2.79,11.94-7.63,25.17-17.81,22.62c4.99,0.61,10.05,0.52,15.02-0.27c-5.42,7.6-10.84,15.2-16.26,22.8
				c3.15-2.76,6.89-4.56,10.76-5.18c1.11,2.24,1.22,5.14,0.29,7.49c1.06-2.42,2.13-4.84,3.19-7.26c2.37,16.6-6.8,34.44-20.29,39.48
				c6.51-1.8,12.61-5.61,17.57-10.94c-3.51,14.7-7.02,29.4-10.53,44.11c-0.31,1.31-0.5,3.03,0.47,3.75
				c0.97,0.72,1.89-1.99,0.77-1.74c-7.16,8.05-14.32,16.1-21.48,24.15c8.02-1.03,15.89-3.6,23.23-7.58
				c-0.52,14.1-6.49,27.78-15.87,36.39c8.4-0.92,16.68-3.55,24.34-7.74c-4.52,12.99-10.01,25.49-16.38,37.32
				c3.62-0.94,7.24-1.87,10.86-2.81c-0.35,4.48,3,8.88,6.78,8.89c-1.56,5.03-3.12,10.06-4.68,15.09c2.75-2.5,12.84-4.24,13.8-0.28"
				/>
		</g>
	</g>
	<g>
		<rect x="85.14" y="252.57" class="st2" width="12.42" height="44.61"/>
		<g>
			
				<linearGradient id="SVGID_4_" gradientUnits="userSpaceOnUse" x1="-1688.8445" y1="171.9788" x2="-1612.9702" y2="171.9788" gradientTransform="matrix(0.8394 0 0 1 1472.8878 0)">
				<stop  offset="0" style="stop-color:#6A6861"/>
				<stop  offset="1" style="stop-color:#54564E"/>
			</linearGradient>
			<path class="st4" d="M94.72,272.56c2.63-1.5,5.25-2.99,7.88-4.49c-1.11-1.75-2.23-3.51-3.34-5.26
				c3.13,2.22,12.84-2.53,12.84-2.53s-3.85-3.67-7.92-11.37c2.32-1.37,4.63-2.74,6.95-4.11c-2.11-5.42-4.23-10.85-6.34-16.27
				c1.96,0.29,3.99-0.22,5.68-1.43c-1.68-0.71-2.85-2.84-2.72-4.96c3.42,0.61,7.07-0.9,9.43-3.92
				c-5.34-5.91-10.67-11.82-16.01-17.74c5.95,1.65,11.89,3.31,17.84,4.96c-10.57-12.13-16.77-29.5-16.76-46.99
				c2.59,2.22,6.07,2.88,9.12,1.75c-3.35-2.7-6.79-5.52-8.94-9.6s-2.65-9.8-0.08-13.52c-1.13-1.47-2.26-2.94-3.39-4.41
				c2.4-0.36,4.79-0.73,7.19-1.09c-3.38-0.35-6.46-3.29-7.49-7.14c3.83-0.19,7.68,0.39,11.35,1.7
				c-5.76-5.05-10.17-12.24-12.46-20.31c1.27-1.62,3.04-2.67,4.89-2.9c-3.44-1.86-7.28-7.3-4.14-9.79
				c-2.69-4.32-6.78-16.49-7.74-21.75c-1.26,5.54-3.89,18.82-7.13,23.08c1.73,1.55,3.45,3.1,5.18,4.66
				c-3.98,2.87-7.95,5.75-11.93,8.62c2.59-0.58,5.17-1.16,7.76-1.74c2.12,9.08-5.8,19.14-13.55,17.2c3.8,0.47,7.64,0.4,11.42-0.21
				c-4.12,5.78-8.24,11.56-12.36,17.34c2.4-2.1,5.24-3.47,8.19-3.94c0.84,1.7,0.93,3.91,0.22,5.7c0.81-1.84,1.62-3.68,2.43-5.52
				c1.8,12.63-5.17,26.2-15.43,30.02c4.95-1.37,9.59-4.26,13.36-8.32c-2.67,11.18-5.34,22.36-8.01,33.54c-0.24,1-0.38,2.3,0.36,2.85
				s1.44-1.51,0.59-1.32c-5.44,6.12-10.89,12.25-16.33,18.37c6.1-0.78,12.09-2.73,17.67-5.76c-0.4,10.72-4.93,21.13-12.07,27.68
				c6.39-0.7,12.68-2.7,18.52-5.89c-3.44,9.88-7.61,19.39-12.46,28.39c2.75-0.71,5.51-1.42,8.26-2.14
				c-0.27,3.41,2.28,6.75,5.16,6.76c-1.19,3.83-2.37,7.65-3.56,11.48c2.09-1.9,9.77-3.23,10.5-0.21"/>
		</g>
	</g>
</g>
</svg>
