<?xml version="1.0" encoding="UTF-8" standalone="no"?>
<!-- Generator: Adobe Illustrator 24.1.2, SVG Export Plug-In . SVG Version: 6.00 Build 0)  -->

<svg
   xmlns:dc="http://purl.org/dc/elements/1.1/"
   xmlns:cc="http://creativecommons.org/ns#"
   xmlns:rdf="http://www.w3.org/1999/02/22-rdf-syntax-ns#"
   xmlns:svg="http://www.w3.org/2000/svg"
   xmlns="http://www.w3.org/2000/svg"
   xmlns:sodipodi="http://sodipodi.sourceforge.net/DTD/sodipodi-0.dtd"
   xmlns:inkscape="http://www.inkscape.org/namespaces/inkscape"
   version="1.1"
   id="Layer_1"
   x="0px"
   y="0px"
   viewBox="0 0 263.34 297.68"
   style="enable-background:new 0 0 263.34 297.68;"
   xml:space="preserve"
   sodipodi:docname="lake_foreground_right.svg"
   inkscape:version="0.92.5 (2060ec1f9f, 2020-04-08)"><metadata
   id="metadata51"><rdf:RDF><cc:Work
       rdf:about=""><dc:format>image/svg+xml</dc:format><dc:type
         rdf:resource="http://purl.org/dc/dcmitype/StillImage" /></cc:Work></rdf:RDF></metadata><defs
   id="defs49" /><sodipodi:namedview
   pagecolor="#ffffff"
   bordercolor="#666666"
   borderopacity="1"
   objecttolerance="10"
   gridtolerance="10"
   guidetolerance="10"
   inkscape:pageopacity="0"
   inkscape:pageshadow="2"
   inkscape:window-width="2560"
   inkscape:window-height="1384"
   id="namedview47"
   showgrid="false"
   inkscape:zoom="6.3423812"
   inkscape:cx="117.27925"
   inkscape:cy="164.26379"
   inkscape:window-x="0"
   inkscape:window-y="308"
   inkscape:window-maximized="1"
   inkscape:current-layer="g44" />
<style
   type="text/css"
   id="style2">
	.st0{fill:url(#SVGID_1_);}
	.st1{fill:url(#SVGID_2_);}
	.st2{fill:#4F4E48;}
	.st3{fill:url(#SVGID_3_);}
	.st4{fill:url(#SVGID_4_);}
</style>
<g
   id="g44">
	<radialGradient
   id="SVGID_1_"
   cx="41.8928"
   cy="288.4314"
   r="30.3362"
   gradientUnits="userSpaceOnUse">
		<stop
   offset="0.4705"
   style="stop-color:#4A4C47"
   id="stop4" />
		<stop
   offset="0.9986"
   style="stop-color:#303535"
   id="stop6" />
	</radialGradient>
	<polygon
   class="st0"
   points="0,297.18 25.81,279.18 67.69,283.18 83.79,297.68  "
   id="polygon9" />
	<radialGradient
   id="SVGID_2_"
   cx="197.1022"
   cy="257.3236"
   r="54.8462"
   gradientUnits="userSpaceOnUse">
		<stop
   offset="0.4705"
   style="stop-color:#4A4C47"
   id="stop11" />
		<stop
   offset="0.9986"
   style="stop-color:#303535"
   id="stop13" />
	</radialGradient>
	<polygon
   class="st1"
   points="130.86,297.18 150.41,267.18 240.75,216.97 263.34,222.15 263.34,297.68  "
   id="polygon16" />
	<g
   id="g29">
		<rect
   x="180.61"
   y="252.57"
   class="st2"
   width="12.42"
   height="44.61"
   id="rect18" />
		<g
   id="g27">
			
				<linearGradient
   id="SVGID_3_"
   gradientUnits="userSpaceOnUse"
   x1="285.8083"
   y1="132.2481"
   x2="385.5726"
   y2="132.2481"
   gradientTransform="matrix(0.8394 0 0 1 -100.1673 0)">
				<stop
   offset="0"
   style="stop-color:#41402D"
   id="stop20" />
				<stop
   offset="0.9576"
   style="stop-color:#232520"
   id="stop22" />
			</linearGradient>
			<path
   class="st3"
   d="m 191.57,264.5 c 3.45,-1.97 6.9,-3.94 10.36,-5.9 -1.47,-2.31 -2.93,-4.61 -4.4,-6.92 4.11,2.92 16.88,-3.32 16.88,-3.32 0,0 -5.06,-4.82 -10.41,-14.95 3.05,-1.8 6.09,-3.6 9.14,-5.4 -2.78,-7.13 -5.56,-14.26 -8.34,-21.4 2.57,0.38 5.24,-0.29 7.47,-1.88 -2.2,-0.94 -3.74,-3.74 -3.58,-6.52 4.5,0.8 9.29,-1.19 12.4,-5.15 -7.02,-7.77 -14.03,-15.55 -21.05,-23.32 7.82,2.17 15.63,4.35 23.45,6.52 -13.9,-15.95 -22.05,-38.79 -22.04,-61.79 3.41,2.91 7.98,3.79 11.99,2.3 -4.4,-3.55 -8.93,-7.25 -11.75,-12.62 -2.82,-5.37 -3.48,-12.89 -0.11,-17.78 -1.49,-1.93 -2.97,-3.87 -4.46,-5.8 3.15,-0.48 6.3,-0.96 9.46,-1.43 -4.44,-0.46 -8.49,-4.33 -9.84,-9.39 5.03,-0.25 10.1,0.51 14.93,2.23 -7.57,-6.63 -13.38,-16.09 -16.39,-26.7 1.67,-2.13 4,-3.51 6.43,-3.81 -4.52,-2.44 -9.57,-9.6 -5.44,-12.88 C 192.74,22.91 187.36,6.9 186.09,0 c -1.66,7.28 -5.12,24.75 -9.37,30.34 l 6.81,6.12 -15.69,11.34 c 3.4,-0.76 6.8,-1.53 10.2,-2.29 2.79,11.94 -8.57602,20.282246 -17.81,22.62 4.99,0.61 10.05,0.52 15.02,-0.27 l -16.26,22.8 c 3.15,-2.76 6.89,-4.56 10.76,-5.18 1.11,2.24 1.22,5.14 0.29,7.49 1.06,-2.42 2.13,-4.84 3.19,-7.26 2.37,16.6 -6.8,34.44 -20.29,39.48 6.51,-1.8 12.61,-5.61 17.57,-10.94 -5.14021,39.95158 -3.54893,39.66531 -30.77,70.27 8.02,-1.03 15.89,-3.6 23.23,-7.58 -0.52,14.1 -6.49,27.78 -15.87,36.39 8.4,-0.92 16.68,-3.55 24.34,-7.74 -4.52,12.99 -10.01,25.49 -16.38,37.32 3.62,-0.94 7.24,-1.87 10.86,-2.81 -0.35,4.48 3,8.88 6.78,8.89 l -4.68,15.09 c 2.75,-2.5 12.84,-4.24 13.8,-0.28"
   id="path25"
   inkscape:connector-curvature="0"
   style="fill:url(#SVGID_3_)"
   sodipodi:nodetypes="ccccccccccccccscccccccccccccccccccccccccccccc" />
		</g>
	</g>
	<g
   id="g42">
		<rect
   x="85.14"
   y="252.57"
   class="st2"
   width="12.42"
   height="44.61"
   id="rect31" />
		<g
   id="g40">
			
				<linearGradient
   id="SVGID_4_"
   gradientUnits="userSpaceOnUse"
   x1="-1688.8445"
   y1="171.9788"
   x2="-1612.9702"
   y2="171.9788"
   gradientTransform="matrix(0.8394 0 0 1 1472.8878 0)">
				<stop
   offset="0"
   style="stop-color:#6A6861"
   id="stop33" />
				<stop
   offset="1"
   style="stop-color:#54564E"
   id="stop35" />
			</linearGradient>
			<path
   class="st4"
   d="m 94.72,272.56 c 2.63,-1.5 5.25,-2.99 7.88,-4.49 -1.11,-1.75 -2.23,-3.51 -3.34,-5.26 3.13,2.22 12.84,-2.53 12.84,-2.53 0,0 -3.85,-3.67 -7.92,-11.37 2.32,-1.37 4.63,-2.74 6.95,-4.11 -2.11,-5.42 -4.23,-10.85 -6.34,-16.27 1.96,0.29 3.99,-0.22 5.68,-1.43 -1.68,-0.71 -2.85,-2.84 -2.72,-4.96 3.42,0.61 7.07,-0.9 9.43,-3.92 -5.34,-5.91 -10.67,-11.82 -16.01,-17.74 5.95,1.65 11.89,3.31 17.84,4.96 -10.57,-12.13 -16.77,-29.5 -16.76,-46.99 2.59,2.22 6.07,2.88 9.12,1.75 -3.35,-2.7 -6.79,-5.52 -8.94,-9.6 -2.15,-4.08 -2.65,-9.8 -0.08,-13.52 l -3.39,-4.41 c 2.4,-0.36 4.79,-0.73 7.19,-1.09 -3.38,-0.35 -6.46,-3.29 -7.49,-7.14 3.83,-0.19 7.68,0.39 11.35,1.7 -5.76,-5.05 -10.17,-12.24 -12.46,-20.31 1.27,-1.62 3.04,-2.67 4.89,-2.9 -3.44,-1.86 -7.28,-7.3 -4.14,-9.79 -2.69,-4.32 -6.78,-16.49 -7.74,-21.75 -1.26,5.54 -3.89,18.82 -7.13,23.08 1.73,1.55 3.45,3.1 5.18,4.66 -3.98,2.87 -7.95,5.75 -11.93,8.62 2.59,-0.58 5.17,-1.16 7.76,-1.74 2.12,9.08 -5.688511,14.23448 -13.55,17.2 3.8,0.47 7.64,0.4 11.42,-0.21 l -12.36,17.34 c 2.4,-2.1 5.24,-3.47 8.19,-3.94 0.84,1.7 0.93,3.91 0.22,5.7 l 2.43,-5.52 c 1.8,12.63 -5.17,26.2 -15.43,30.02 4.95,-1.37 9.59,-4.26 13.36,-8.32 -3.004108,26.43225 -7.459776,35.47565 -23.39,53.44 6.1,-0.78 12.09,-2.73 17.67,-5.76 -0.4,10.72 -4.93,21.13 -12.07,27.68 6.39,-0.7 12.68,-2.7 18.52,-5.89 -3.44,9.88 -7.61,19.39 -12.46,28.39 2.75,-0.71 5.51,-1.42 8.26,-2.14 -0.27,3.41 2.28,6.75 5.16,6.76 -1.19,3.83 -2.37,7.65 -3.56,11.48 2.09,-1.9 9.77,-3.23 10.5,-0.21"
   id="path38"
   inkscape:connector-curvature="0"
   style="fill:url(#SVGID_4_)"
   sodipodi:nodetypes="ccccccccccccccscccccccccccccccccccccccccccccc" />
		</g>
	</g>
</g>
</svg>