<?xml version="1.0" encoding="UTF-8" standalone="no"?>
<!-- Generator: Adobe Illustrator 24.1.2, SVG Export Plug-In . SVG Version: 6.00 Build 0)  -->

<svg
   xmlns:dc="http://purl.org/dc/elements/1.1/"
   xmlns:cc="http://creativecommons.org/ns#"
   xmlns:rdf="http://www.w3.org/1999/02/22-rdf-syntax-ns#"
   xmlns:svg="http://www.w3.org/2000/svg"
   xmlns="http://www.w3.org/2000/svg"
   xmlns:sodipodi="http://sodipodi.sourceforge.net/DTD/sodipodi-0.dtd"
   xmlns:inkscape="http://www.inkscape.org/namespaces/inkscape"
   version="1.1"
   id="Layer_1"
   x="0px"
   y="0px"
   viewBox="0 0 284.26 236.67"
   style="enable-background:new 0 0 284.26 236.67;"
   xml:space="preserve"
   sodipodi:docname="lake_background_left.svg"
   inkscape:version="0.92.5 (2060ec1f9f, 2020-04-08)"><metadata
   id="metadata74"><rdf:RDF><cc:Work
       rdf:about=""><dc:format>image/svg+xml</dc:format><dc:type
         rdf:resource="http://purl.org/dc/dcmitype/StillImage" /></cc:Work></rdf:RDF></metadata><defs
   id="defs72" /><sodipodi:namedview
   pagecolor="#ffffff"
   bordercolor="#666666"
   borderopacity="1"
   objecttolerance="10"
   gridtolerance="10"
   guidetolerance="10"
   inkscape:pageopacity="0"
   inkscape:pageshadow="2"
   inkscape:window-width="1487"
   inkscape:window-height="882"
   id="namedview70"
   showgrid="false"
   inkscape:zoom="1.9943381"
   inkscape:cx="157.76228"
   inkscape:cy="72.252269"
   inkscape:window-x="1439"
   inkscape:window-y="382"
   inkscape:window-maximized="0"
   inkscape:current-layer="g67" />
<style
   type="text/css"
   id="style2">
	.st0{fill:url(#SVGID_1_);}
	.st1{fill:url(#SVGID_2_);}
	.st2{fill:url(#SVGID_3_);}
	.st3{fill:#4F4E48;}
	.st4{fill:url(#SVGID_4_);}
	.st5{fill:url(#SVGID_5_);}
	.st6{fill:url(#SVGID_6_);}
	.st7{fill:url(#SVGID_7_);}
</style>
<g
   id="g67">
	<radialGradient
   id="SVGID_1_"
   cx="201.5026"
   cy="141.9698"
   r="36.7268"
   gradientUnits="userSpaceOnUse">
		<stop
   offset="0.4705"
   style="stop-color:#4A4C47"
   id="stop4" />
		<stop
   offset="0.9986"
   style="stop-color:#303535"
   id="stop6" />
	</radialGradient>
	<polygon
   class="st0"
   points="152.5,149.47 191.5,106.47 239.5,127.47 250.5,149.47 218.5,177.47 178.5,177.47  "
   id="polygon9" />
	
		<radialGradient
   id="SVGID_2_"
   cx="307.2582"
   cy="199.4698"
   r="13.5349"
   gradientTransform="matrix(-1,0,0,1,357.3478,0)"
   gradientUnits="userSpaceOnUse">
		<stop
   offset="0.4705"
   style="stop-color:#4A4C47"
   id="stop11" />
		<stop
   offset="0.9986"
   style="stop-color:#303535"
   id="stop13" />
	</radialGradient>
	<polygon
   class="st1"
   points="61.59,184.47 43.59,190.47 33.59,208.47 42.59,214.47 66.59,214.47 66.59,197.47 "
   id="polygon16"
   style="fill:url(#SVGID_2_)"
   transform="translate(-0.50141949,-20.05678)" />
	
		<radialGradient
   id="SVGID_3_"
   cx="-1926.0675"
   cy="-597.3344"
   r="18.9375"
   gradientTransform="matrix(0.7766,-0.6299,0.6299,0.7766,2131.1763,-614.2808)"
   gradientUnits="userSpaceOnUse">
		<stop
   offset="0.4705"
   style="stop-color:#4A4C47"
   id="stop18" />
		<stop
   offset="0.9986"
   style="stop-color:#303535"
   id="stop20" />
	</radialGradient>
	<polygon
   class="st2"
   points="244.32,120.72 270.06,115.02 284.26,128.8 281.94,142.82 249.09,155.3 235.76,143.85 "
   id="polygon23"
   style="fill:url(#SVGID_3_)"
   transform="translate(0.50141949,11.031229)" />
	<g
   id="g36">
		<path
   class="st3"
   d="M150.56,181.43c0,0-0.81,1.04-2.85,1.04s-2.85-1.04-2.85-1.04v-28.97h5.69V181.43z"
   id="path25" />
		<g
   id="g34">
			
				<linearGradient
   id="SVGID_4_"
   gradientUnits="userSpaceOnUse"
   x1="160.3389"
   y1="81.4545"
   x2="221.7858"
   y2="81.4545"
   gradientTransform="matrix(0.8394 0 0 1 -16.5746 0)">
				<stop
   offset="0"
   style="stop-color:#41402D"
   id="stop27" />
				<stop
   offset="0.9576"
   style="stop-color:#232520"
   id="stop29" />
			</linearGradient>
			<path
   class="st4"
   d="M149.94,162.91c2.13-1.21,4.25-2.42,6.38-3.64c-0.9-1.42-1.81-2.84-2.71-4.26c2.53,1.8,10.4-2.05,10.4-2.05     s-3.12-2.97-6.41-9.21c1.88-1.11,3.75-2.22,5.63-3.33c-1.71-4.39-3.42-8.79-5.14-13.18c1.58,0.23,3.23-0.18,4.6-1.16     c-1.36-0.58-2.3-2.3-2.21-4.01c2.77,0.49,5.72-0.73,7.64-3.17c-4.32-4.79-8.64-9.58-12.97-14.36c4.81,1.34,9.63,2.68,14.44,4.02     c-8.56-9.82-13.58-23.89-13.57-38.06c2.1,1.79,4.92,2.33,7.38,1.41c-2.71-2.19-5.5-4.47-7.24-7.77     c-1.74-3.3-2.14-7.94-0.07-10.95c-0.92-1.19-1.83-2.38-2.75-3.57c1.94-0.29,3.88-0.59,5.82-0.88c-2.73-0.29-5.23-2.67-6.06-5.78     c3.1-0.15,6.22,0.32,9.19,1.37c-4.66-4.09-8.24-9.91-10.09-16.44c1.03-1.31,2.46-2.16,3.96-2.35c-2.78-1.5-5.89-5.91-3.35-7.93     c-2.18-3.5-5.49-13.36-6.27-17.61c-1.02,4.49-3.15,15.24-5.77,18.69c1.4,1.26,2.8,2.51,4.19,3.77c-3.22,2.33-6.44,4.65-9.66,6.98     c2.09-0.47,4.19-0.94,6.28-1.41c1.72,7.36-4.7,15.5-10.97,13.93c3.08,0.38,6.19,0.32,9.25-0.17c-3.34,4.68-6.68,9.36-10.01,14.04     c1.94-1.7,4.24-2.81,6.63-3.19c0.68,1.38,0.75,3.16,0.18,4.61c0.65-1.49,1.31-2.98,1.96-4.47c1.46,10.22-4.19,21.21-12.5,24.31     c4.01-1.11,7.77-3.45,10.82-6.74c-2.16,9.06-4.33,18.11-6.49,27.17c-0.19,0.81-0.31,1.87,0.29,2.31c0.6,0.44,1.17-1.22,0.47-1.07     c-4.41,4.96-8.82,9.92-13.23,14.88c4.94-0.63,9.79-2.21,14.31-4.67c-0.32,8.68-4,17.11-9.77,22.41     c5.18-0.57,10.27-2.19,14.99-4.77c-2.78,8-6.17,15.7-10.09,22.99c2.23-0.58,4.46-1.15,6.69-1.73c-0.22,2.76,1.85,5.47,4.18,5.47     c-0.96,3.1-1.92,6.2-2.88,9.3c1.69-1.54,7.91-2.61,8.5-0.17"
   id="path32" />
		</g>
	</g>
	<g
   id="g45">
		
			<linearGradient
   id="SVGID_5_"
   gradientUnits="userSpaceOnUse"
   x1="100.2686"
   y1="132.0983"
   x2="143.1055"
   y2="132.0983"
   gradientTransform="matrix(0.8394 0 0 1 -16.5746 0)">
			<stop
   offset="0"
   style="stop-color:#41402D"
   id="stop38" />
			<stop
   offset="0.9576"
   style="stop-color:#232520"
   id="stop40" />
		</linearGradient>
		<path
   class="st5"
   d="M89.85,188.88c1.48-0.84,2.96-1.69,4.45-2.53c-0.63-0.99-1.26-1.98-1.89-2.97c1.77,1.25,7.25-1.43,7.25-1.43    s-2.17-2.07-4.47-6.42c1.31-0.77,2.62-1.55,3.92-2.32c-1.19-3.06-2.39-6.12-3.58-9.19c1.1,0.16,2.25-0.13,3.21-0.81    c-0.95-0.4-1.61-1.6-1.54-2.8c1.93,0.35,3.99-0.51,5.32-2.21c-3.01-3.34-6.03-6.68-9.04-10.01c3.36,0.93,6.71,1.87,10.07,2.8    c-5.97-6.85-9.47-16.66-9.46-26.53c1.46,1.25,3.43,1.63,5.15,0.99c-1.89-1.52-3.84-3.11-5.05-5.42c-1.21-2.3-1.49-5.53-0.05-7.63    c-0.64-0.83-1.28-1.66-1.91-2.49c1.35-0.21,2.71-0.41,4.06-0.62c-1.91-0.2-3.65-1.86-4.23-4.03c2.16-0.11,4.34,0.22,6.41,0.96    c-3.25-2.85-5.74-6.91-7.04-11.46c0.72-0.91,1.72-1.51,2.76-1.64c-1.94-1.05-4.11-4.12-2.33-5.53c-1.52-2.44-3.83-9.31-4.37-12.28    c-0.71,3.13-2.2,10.63-4.02,13.03c0.97,0.88,1.95,1.75,2.92,2.63c-2.25,1.62-4.49,3.24-6.74,4.87c1.46-0.33,2.92-0.66,4.38-0.98    c1.2,5.13-3.28,10.81-7.65,9.71c2.14,0.26,4.31,0.22,6.45-0.12c-2.33,3.26-4.65,6.53-6.98,9.79c1.35-1.18,2.96-1.96,4.62-2.23    c0.48,0.96,0.52,2.21,0.13,3.22c0.46-1.04,0.91-2.08,1.37-3.12c1.02,7.13-2.92,14.79-8.71,16.95c2.79-0.77,5.42-2.41,7.55-4.7    c-1.51,6.31-3.02,12.63-4.52,18.94c-0.13,0.56-0.22,1.3,0.2,1.61c0.42,0.31,0.81-0.85,0.33-0.75c-3.07,3.46-6.15,6.91-9.22,10.37    c3.44-0.44,6.82-1.54,9.98-3.25c-0.22,6.05-2.79,11.93-6.81,15.63c3.61-0.39,7.16-1.52,10.45-3.32    c-1.94,5.58-4.3,10.95-7.03,16.03c1.55-0.4,3.11-0.8,4.66-1.21c-0.15,1.93,1.29,3.81,2.91,3.82c-0.67,2.16-1.34,4.32-2.01,6.48    c1.18-1.07,5.52-1.82,5.93-0.12"
   id="path43" />
	</g>
	<g
   id="g58">
		<path
   class="st3"
   d="M107.75,220.94c0,0,0.81,1.04,2.85,1.04s2.85-1.04,2.85-1.04v-28.97h-5.69V220.94z"
   id="path47" />
		<g
   id="g56">
			
				<linearGradient
   id="SVGID_6_"
   gradientUnits="userSpaceOnUse"
   x1="-12190.6729"
   y1="147.602"
   x2="-12147.8359"
   y2="147.602"
   gradientTransform="matrix(-0.8394 0 0 1 -10101.9873 0)">
				<stop
   offset="0"
   style="stop-color:#6A6861"
   id="stop49" />
				<stop
   offset="1"
   style="stop-color:#54564E"
   id="stop51" />
			</linearGradient>
			<path
   class="st6"
   d="M108.45,204.39c-1.48-0.84-2.96-1.69-4.45-2.53c0.63-0.99,1.26-1.98,1.89-2.97     c-1.77,1.25-7.25-1.43-7.25-1.43s2.17-2.07,4.47-6.42c-1.31-0.77-2.62-1.55-3.92-2.32c1.19-3.06,2.39-6.12,3.58-9.19     c-1.1,0.16-2.25-0.13-3.21-0.81c0.95-0.4,1.61-1.6,1.54-2.8c-1.93,0.35-3.99-0.51-5.32-2.21c3.01-3.34,6.03-6.68,9.04-10.01     c-3.36,0.93-6.71,1.87-10.07,2.8c5.97-6.85,9.47-16.66,9.46-26.53c-1.46,1.25-3.43,1.63-5.15,0.99c1.89-1.52,3.84-3.11,5.05-5.42     c1.21-2.3,1.49-5.53,0.05-7.63c0.64-0.83,1.28-1.66,1.91-2.49c-1.35-0.21-2.71-0.41-4.06-0.62c1.91-0.2,3.65-1.86,4.23-4.03     c-2.16-0.11-4.34,0.22-6.41,0.96c3.25-2.85,5.74-6.91,7.04-11.46c-0.72-0.91-1.72-1.51-2.76-1.64c1.94-1.05,4.11-4.12,2.33-5.53     c1.52-2.44,3.83-9.31,4.37-12.28c0.71,3.13,2.2,10.63,4.02,13.03c-0.97,0.88-1.95,1.75-2.92,2.63c2.25,1.62,4.49,3.24,6.74,4.87     c-1.46-0.33-2.92-0.66-4.38-0.98c-1.2,5.13,3.28,10.81,7.65,9.71c-2.14,0.26-4.31,0.22-6.45-0.12c2.33,3.26,4.65,6.53,6.98,9.79     c-1.35-1.18-2.96-1.96-4.62-2.23c-0.48,0.96-0.52,2.21-0.13,3.22c-0.46-1.04-0.91-2.08-1.37-3.12     c-1.02,7.13,2.92,14.79,8.71,16.95c-2.79-0.77-5.42-2.41-7.55-4.7c1.51,6.31,3.02,12.63,4.52,18.94c0.13,0.56,0.22,1.3-0.2,1.61     c-0.42,0.31-0.81-0.85-0.33-0.75c3.07,3.46,6.15,6.91,9.22,10.37c-3.44-0.44-6.82-1.54-9.98-3.25     c0.22,6.05,2.79,11.93,6.81,15.63c-3.61-0.39-7.16-1.52-10.45-3.32c1.94,5.58,4.3,10.95,7.03,16.03c-1.55-0.4-3.11-0.8-4.66-1.21     c0.15,1.93-1.29,3.81-2.91,3.82c0.67,2.16,1.34,4.32,2.01,6.48c-1.18-1.07-5.52-1.82-5.93-0.12"
   id="path54" />
		</g>
	</g>
	
		<radialGradient
   id="SVGID_7_"
   cx="-2314.6472"
   cy="-2758.6362"
   r="18.9375"
   gradientTransform="matrix(0.9417,-0.3366,0.3366,0.9417,3132.9565,2039.5164)"
   gradientUnits="userSpaceOnUse">
		<stop
   offset="0.4705"
   style="stop-color:#4A4C47"
   id="stop60" />
		<stop
   offset="0.9986"
   style="stop-color:#303535"
   id="stop62" />
	</radialGradient>
	<polygon
   class="st7"
   points="15.75,202.46 41.92,205.63 50.75,223.34 43.91,235.8 8.78,236.67 0,221.45 "
   id="polygon65"
   style="fill:url(#SVGID_7_)"
   transform="translate(-0.50141949,-20.05678)" />
</g>
</svg>