<?xml version="1.0" encoding="UTF-8" standalone="no"?>
<svg
   xmlns:dc="http://purl.org/dc/elements/1.1/"
   xmlns:cc="http://creativecommons.org/ns#"
   xmlns:rdf="http://www.w3.org/1999/02/22-rdf-syntax-ns#"
   xmlns:svg="http://www.w3.org/2000/svg"
   xmlns="http://www.w3.org/2000/svg"
   xmlns:sodipodi="http://sodipodi.sourceforge.net/DTD/sodipodi-0.dtd"
   xmlns:inkscape="http://www.inkscape.org/namespaces/inkscape"
   version="1.1"
   id="Layer_1"
   x="0px"
   y="0px"
   viewBox="0 0 787.78 203.5"
   style="enable-background:new 0 0 787.78 203.5;"
   xml:space="preserve"
   sodipodi:docname="stage_complete_2.svg"
   inkscape:version="1.0.1 (3bc2e813f5, 2020-09-07)"><metadata
   id="metadata82"><rdf:RDF><cc:Work
       rdf:about=""><dc:format>image/svg+xml</dc:format><dc:type
         rdf:resource="http://purl.org/dc/dcmitype/StillImage" /><dc:title /></cc:Work></rdf:RDF></metadata><defs
   id="defs80" /><sodipodi:namedview
   pagecolor="#ffffff"
   bordercolor="#666666"
   borderopacity="1"
   objecttolerance="10"
   gridtolerance="10"
   guidetolerance="10"
   inkscape:pageopacity="0"
   inkscape:pageshadow="2"
   inkscape:window-width="1853"
   inkscape:window-height="1025"
   id="namedview78"
   showgrid="false"
   inkscape:zoom="1.2566319"
   inkscape:cx="245.43658"
   inkscape:cy="113.30963"
   inkscape:window-x="1347"
   inkscape:window-y="27"
   inkscape:window-maximized="1"
   inkscape:current-layer="g75"
   inkscape:document-rotation="0" />
<style
   type="text/css"
   id="style2">
	.st0{fill:#C9C7C8;}
	.st1{opacity:0.15;fill:#FFFFFF;}
	.st2{opacity:0.15;fill:url(#SVGID_1_);}
	.st3{opacity:0.15;fill:url(#SVGID_2_);}
	.st4{fill:#E0DADA;}
	.st5{fill:#EDE7E7;}
	.st6{opacity:0.1;}
	.st7{opacity:0.15;fill:url(#SVGID_3_);}
</style>
<g
   id="g75">
	<polygon
   class="st0"
   points="133.02,52.99 167.15,54.18 194.69,39.49 305.28,15.25 422.08,10.02 503.48,20.39 591.96,45.6    704.77,102.67 728.66,180.53 701.14,203.5 592.84,146.62 520.29,121.7 494.19,132.2 401.28,120.81 293.34,137.18 231.14,139.39    129.51,203.5 111.15,134.52  "
   id="polygon4"
   style="fill:#a8a5a6;fill-opacity:1" />
	<g
   id="g10">
		<polygon
   class="st1"
   points="462.38,25.59 462.38,55.67 425.37,65.24 301.78,66.4 272.4,69 262,35.31 273.95,25.59 410.65,15.25       "
   id="polygon6"
   style="fill:#c9c9c9;fill-opacity:1" />
		<path
   class="st1"
   d="M561.17,49.64v66.54l70.36,46.39V83.62c0,0-5.88-16.95-7.65-17.22s-51.76-19.77-51.76-19.77L561.17,49.64z"
   id="path8"
   style="fill:#999999;fill-opacity:1" />
	</g>
	<polygon
   class="st1"
   points="393.89,80.2 393.89,116.18 301.78,122.44 301.78,92.44 319.07,80.2 383.66,74.09  "
   id="polygon12"
   style="fill:#c4c4c4;fill-opacity:1" />
	<linearGradient
   id="SVGID_1_"
   gradientUnits="userSpaceOnUse"
   x1="257.0631"
   y1="46.6354"
   x2="371.6435"
   y2="46.6354">
		<stop
   offset="0"
   style="stop-color:#000000"
   id="stop14" />
		<stop
   offset="1"
   style="stop-color:#000000;stop-opacity:0"
   id="stop16" />
	</linearGradient>
	<polygon
   class="st2"
   points="257.06,34 371.64,15.25 371.64,59.76 257.06,78.02  "
   id="polygon19" />
	
		<linearGradient
   id="SVGID_2_"
   gradientUnits="userSpaceOnUse"
   x1="7359.145"
   y1="140.76"
   x2="7434.416"
   y2="140.76"
   gradientTransform="matrix(-1 0 0 1 8060.2812 0)">
		<stop
   offset="0"
   style="stop-color:#000000"
   id="stop21" />
		<stop
   offset="1"
   style="stop-color:#000000;stop-opacity:0"
   id="stop23" />
	</linearGradient>
	<polygon
   class="st3"
   points="701.14,143.5 701.14,203.5 625.87,138.03 625.87,78.02 676.27,104.54 701.14,129.44  "
   id="polygon26" />
	<path
   class="st4"
   d="M485.89,122.48l30.44-26.53l0,0c79.23,19.88,144.81,58.27,184.8,107.25v0.3H511.06H511   c-6-21-30.29-39.55-61.5-49.31l0,0.01L485.89,122.48z"
   id="cello"
   style="fill:#bfbfbf;fill-opacity:1" />
	<polygon
   class="st0"
   points="284.64,47.22 284.64,107.22 250.48,84.53 247.55,52.99  "
   id="polygon30"
   style="fill:#a7a4a6;fill-opacity:1" />
	<path
   class="st5"
   d="M 393.89,80.2 V 51 c -0.43,0 0.43,0 0,0 -42.62,0 -71.62966,1.390054 -109.41966,10.650054 l 0.19894,8.654086 0.0807,7.03586 17.14,15.22 v 0 c 28.41,-7.9 59.63,-12.36 92,-12.36 z"
   id="woodwind"
   inkscape:connector-curvature="0"
   style="fill:#d8d8d8;fill-opacity:1"
   sodipodi:nodetypes="ccscccccc" />
	<rect
   y="143.5"
   class="st0"
   width="129.51"
   height="60"
   id="rect34"
   style="fill:#898989;fill-opacity:1" />
	<rect
   x="701.14"
   y="143.5"
   class="st0"
   width="86.64"
   height="60"
   id="rect36"
   style="fill:#979294;fill-opacity:1" />
	<polygon
   class="st6"
   points="301.78,92.44 301.78,122.44 284.64,107.22 284.64,77.22  "
   id="polygon38" />
	<polygon
   class="st6"
   points="485.89,92.48 485.89,122.48 516.33,95.95 516.33,65.95  "
   id="polygon40" />
	
	<path
   class="st4"
   d="M393.89,80.2V51c43.13,0.1,84.42,5.38,122.55,14.95l0,0L486,92.48l0.17,0.19   C457.52,84.62,426.58,80.2,393.89,80.2z"
   id="woodwind2"
   style="fill:#cacaca;fill-opacity:1" />
	<path
   class="st4"
   d="M631.53,83.52l41.82-21.05c44.95,22.37,84.3,49.49,114.43,81.03l0,0l-86.76-0.06l0-0.3   C682.8,120.82,659.25,100.7,631.53,83.52z"
   id="bass"
   style="fill:#c4c4c4;fill-opacity:1" />
	<path
   class="st4"
   d="M561.17,49.64l24.01-22.01C550.42,17.08,513.38,9.31,474.7,4.74l0,0l-12.32,20.85l0,0   c18.56,2.49,36.59,5.96,53.96,10.32C531.83,39.8,546.81,44.39,561.17,49.64z"
   id="brass"
   style="fill:#c2c2c2;fill-opacity:1" />
	<linearGradient
   id="SVGID_3_"
   gradientUnits="userSpaceOnUse"
   x1="129.5128"
   y1="140.76"
   x2="204.7837"
   y2="140.76">
		<stop
   offset="0"
   style="stop-color:#000000"
   id="stop50" />
		<stop
   offset="1"
   style="stop-color:#000000;stop-opacity:0"
   id="stop52" />
	</linearGradient>
	<polygon
   class="st7"
   points="129.51,143.5 129.51,203.5 204.78,138.03 204.78,78.02 154.38,104.54 129.51,129.44  "
   id="polygon55" />
	<path
   class="st4"
   d="M0,143.5h129.51l0-0.01c8.84-13.39,20.28-25.96,33.92-37.47l0,0L65.45,89.99l0-0.01   C40.89,106.21,18.73,123.98,0,143.5L0,143.5z"
   id="harp"
   style="fill:#c5c5c5;fill-opacity:1" />
	<path
   class="st5"
   d="M187.1,31.96c-3.71,1.22-7.4,2.48-11.05,3.77l-0.03-0.01c0,0-23.76,7.42-57,23.72l0.03,0.01   c-19.08,9.28-37.1,19.49-53.85,30.55l0,0.01l97.98,16.03l0,0c11.98-10.1,25.66-19.38,40.78-27.68c6.24-3.37,14.45-7.52,24.51-11.94   L187.1,31.96z"
   id="piano"
   inkscape:label="#piano"
   style="fill:#d1d1d1;fill-opacity:1" />
	<path
   class="st1"
   d="M163.43,106.02v60l62.38-25.26l2.65-14.36l0.25-60C228.72,66.4,214.09,62.93,163.43,106.02z"
   id="path61"
   style="fill:#9a9a9a;fill-opacity:1" />
	<path
   class="st5"
   d="M129.51,203.5h146.15l0,0c2-6.14,5.33-12,9.82-17.47l0.03-0.03l-122.09-19.97l0,0   C149.79,177.53,138.36,190.1,129.51,203.5L129.51,203.5z"
   id="violin"
   style="fill:#d1d1d1;fill-opacity:1" />
	<path
   class="st4"
   d="M163.43,166.02c30.7-25.89,72.56-46.4,121.21-58.81l0,0l52.89,46.97l0-0.01   c-22.56,7.05-40.87,18.24-52.04,31.85l0.03-0.03L163.43,166.02L163.43,166.02z"
   id="violin2"
   style="fill:#c5c5c5;fill-opacity:1" />
	<path
   class="st5"
   d="M561.13,49.72l24.01-22.01c6.63,2.01,13.18,4.12,19.64,6.33l0,0l0,0c24.05,8.23,47.03,17.78,68.63,28.53   L631.6,83.62c-19.09-11.83-40.16-22.25-62.85-31.04l0,0l0,0C566.22,51.61,563.68,50.66,561.13,49.72z"
   id="brass2"
   style="fill:#d6d6d6;fill-opacity:1" />
	<path
   class="st5"
   d="M474.7,4.78C448.17,1.64,420.87,0,393,0c-50.39,0-98.9,5.35-144.36,15.25l0,0l22.59,20.06l0,0   C309.02,26.05,349.88,21,392.5,21c23.93,0,47.29,1.59,69.88,4.63l0,0L474.7,4.78L474.7,4.78z"
   id="horn"
   style="fill:#d8d8d8;fill-opacity:1" />
	<path
   class="st4"
   d="M187.1,31.96c19.69-6.49,40.4-12.11,61.54-16.71l0,0l22.59,20.06l13.41,11.91   c-15.88,4.05-31.02,8.97-45.3,14.65l0.06,0.02c-3.76,1.52-7.32,3.03-10.68,4.51L187.1,31.96z"
   id="percussion"
   style="fill:#c0c0c0;fill-opacity:1" />
	<path
   class="st5"
   d="M485.89,122.48l-36.39,31.72l0-0.01c-16.72-5.23-35.77-8.19-56-8.19c-20.21,0-39.26,2.96-55.97,8.18l0,0.01   l-35.75-31.74l0,0c28.41-7.9,59.35-12.24,91.72-12.24c32.69,0,63.86,4.25,92.5,12.3L485.89,122.48z"
   id="viola"
   style="fill:#d2d2d2;fill-opacity:1" />
</g>
</svg>
