<?xml version="1.0" encoding="utf-8"?>
<!-- Generator: Adobe Illustrator 24.1.2, SVG Export Plug-In . SVG Version: 6.00 Build 0)  -->
<svg version="1.1" id="Layer_1" xmlns="http://www.w3.org/2000/svg" xmlns:xlink="http://www.w3.org/1999/xlink" x="0px" y="0px"
	 viewBox="0 0 353.79 208.51" style="enable-background:new 0 0 353.79 208.51;" xml:space="preserve">
<style type="text/css">
	.st0{fill:url(#SVGID_1_);}
	.st1{fill-rule:evenodd;clip-rule:evenodd;fill:url(#SVGID_2_);}
	.st2{fill:url(#SVGID_3_);}
</style>
<g>
	<g>
		
			<linearGradient id="SVGID_1_" gradientUnits="userSpaceOnUse" x1="-7387.3467" y1="-313.5299" x2="-7387.3467" y2="-382.5144" gradientTransform="matrix(-0.9877 -0.1563 -0.1563 0.9877 -7290.6504 -663.9149)">
			<stop  offset="0" style="stop-color:#665A2A"/>
			<stop  offset="1" style="stop-color:#9C7E25"/>
		</linearGradient>
		<path class="st0" d="M63.2,177.48c7.72,4.26,17.93,3.46,24.9-1.93c-5.29-0.39-10.57-0.79-15.86-1.18
			c4.66,0.08,9.41,0.14,13.87-1.2s8.67-4.35,10.27-8.73c-4.47,0.97-8.94,1.95-13.41,2.92c6.73-2.49,11.29-9.87,10.5-17.01
			c-6.28,2.94-11.88,7.3-16.28,12.65c8.55-7.68,13.8-18.93,14.18-30.42c-4.35,8.36-8.71,16.71-13.06,25.07
			c0.89-7.08,1.79-14.16,2.68-21.25c0.44-3.51,1.18-10.28-2.35-10.55c-2.75,8-5.86,18.2-6.63,26.63
			c-0.75-9.13-0.69-29.94-1.44-39.07c-4.33,7.93-7.38,28.68-7.2,37.71c-1.12-8.8-4.89-22.39-4.48-31.26
			c-7.94,6.94-7.39,23.78-3.38,33.53c-4.12-9.8-6.19-20.46-6.02-31.09c-6.73,8.6-7.41,21.45-1.64,30.73
			c-9.94-5.13-15.73-17.25-13.48-28.21c-4.35,4.8-5.18,12.15-3.02,18.26c2.15,6.11,6.91,11.04,12.38,14.51
			c-3.85-0.22-7.8-0.46-11.32-2.04s-6.58-4.78-6.83-8.63c-0.67,4.08,1.43,8.22,4.45,11.05s6.85,4.59,10.61,6.31
			c-4.19,0.09-8.5,0.16-12.42-1.31s-7.43-4.86-7.74-9.03c-1.76,5.09,1.88,10.78,6.7,13.19c4.82,2.41,10.45,2.37,15.83,2.27
			c-4.67,1.29-9.73,1.18-14.34-0.33C36.38,178.71,52.22,183.16,63.2,177.48z"/>
	</g>
	<g>
		
			<linearGradient id="SVGID_2_" gradientUnits="userSpaceOnUse" x1="-7716.8716" y1="91.1715" x2="-7615.52" y2="91.1715" gradientTransform="matrix(-1 0 0 1 -7615.52 0)">
			<stop  offset="0" style="stop-color:#060000"/>
			<stop  offset="1" style="stop-color:#4A2824"/>
		</linearGradient>
		<path class="st1" d="M76.16,177.9c-1.13-25.38-9.74-55.25-6.7-80.48c0.91-7.53,2.87-14.94,3.26-22.51
			c0.23-4.45-0.09-8.91,0.03-13.37C73.3,40.45,83.77,20.32,98.83,5.25c1.44-1.45,3.06-3.35,2.34-5.25
			c-7.22,7.51-14.22,15.23-20.97,23.15c-1.13-4.75-0.9-9.81,0.65-14.45c-4.52,2.56-3.8,8.97-4.6,14.03
			c-0.53,3.3-1.94,6.39-3.37,9.41c-3.15,6.63-6.47,13.19-9.98,19.65c-4.12-8.95-8.03-18-11.73-27.12
			c-2.03,5.35-0.87,11.38,1.18,16.73s4.97,10.37,6.58,15.86C61.02,64.41,60.8,72,60.09,79.4c-0.71,7.42-1.88,14.8-3.5,22.08
			c-5.03-7.06-14.24-10.04-20.32-16.26c-6.33-6.48-8.57-15.69-10.58-24.44c-1.04,6.43-0.44,13.11,1.73,19.26
			c-3.7-2.19-6.24-5.8-8.68-9.3c-5.93-8.54-11.87-17.08-17.8-25.62c-1.46,0.28-0.98,2.45-0.15,3.66
			c8.78,12.78,17.56,25.56,26.34,38.34c0.75,1.1,1.53,2.22,2.65,2.96c0.92,0.61,2.01,0.92,3.04,1.34c2.8,1.14,5.19,3.11,7.23,5.32
			c7.85,8.52,10.65,20.36,12.14,31.75c2.14,16.39,2.15,33.04,0.02,49.43c0,0,2.3,4.44,11.29,4.44S76.16,177.9,76.16,177.9z"/>
	</g>
	<g>
		
			<linearGradient id="SVGID_3_" gradientUnits="userSpaceOnUse" x1="-9750.1338" y1="1124.5433" x2="-9750.1338" y2="1029.238" gradientTransform="matrix(-0.9861 0.166 0.166 0.9861 -9512.5205 721.9457)">
			<stop  offset="0" style="stop-color:#482F13"/>
			<stop  offset="1" style="stop-color:#665A2A"/>
		</linearGradient>
		<path class="st2" d="M283.29,205.03c18.85,6.32,40.42,3.95,57.45-6.32c-12.93-0.05-25.86-0.1-38.8-0.14
			c12.16-1.9,24.17-4.73,35.89-8.46c6.97-2.22,14.94-6.03,15.95-13.27c-16.51,1.18-32.77,5.77-47.46,13.4
			c8.5-4.1,17.2-8.35,23.72-15.19c6.51-6.83,10.48-16.92,7.53-25.89c-6.38,12.98-15.34,24.69-26.22,34.23
			c1.71-6.36,3.42-12.71,5.13-19.07c3.15-11.73,5.3-26.64-4.45-33.88c-5.08,14.46-8.7,29.43-10.8,44.61
			c0-20.06-2.3-40.12-6.85-59.65c-6.64,17.62-8.07,37.17-4.05,55.57c-4.96-17.05-8.66-34.48-11.04-52.08
			c-8.25,19.36-9.67,41.56-3.94,61.81c-8.27-19.11-13.54-39.51-15.55-60.24c-9.34,11.82-3.66,29.02,2.37,42.82
			c-8.39-7.28-14.17-17.52-16.06-28.47c-5.17,15.39,0.24,33.74,12.93,43.87c-9.59-8.71-16.99-19.81-21.35-32.01
			c-4.37,17.74,7.15,37.9,24.66,43.13c-17.15-4.05-33.04-13.29-45.05-26.19c1.24,15.52,16.11,28.65,31.66,27.97
			c-11,3.89-23.38,3.72-34.27-0.47c5.02,8.84,15.7,13.23,25.87,13.45C250.74,204.77,273.65,208.26,283.29,205.03L283.29,205.03z"/>
	</g>
</g>
</svg>
