<?xml version="1.0" encoding="utf-8"?>
<!-- Generator: Adobe Illustrator 24.1.2, SVG Export Plug-In . SVG Version: 6.00 Build 0)  -->
<svg version="1.1" id="Layer_1" xmlns="http://www.w3.org/2000/svg" xmlns:xlink="http://www.w3.org/1999/xlink" x="0px" y="0px"
	 viewBox="0 0 461.62 412.09" style="enable-background:new 0 0 461.62 412.09;" xml:space="preserve">
<style type="text/css">
	.st0{fill:url(#SVGID_1_);}
	.st1{fill:url(#SVGID_2_);}
	.st2{fill:url(#SVGID_3_);}
	.st3{fill-rule:evenodd;clip-rule:evenodd;fill:url(#SVGID_4_);}
	.st4{fill:url(#SVGID_5_);}
	.st5{fill:url(#SVGID_6_);}
	.st6{fill:url(#SVGID_7_);}
	.st7{fill:url(#SVGID_8_);}
</style>
<g>
	<g>
		
			<linearGradient id="SVGID_1_" gradientUnits="userSpaceOnUse" x1="-8272.4775" y1="867.6815" x2="-8272.4775" y2="772.3762" gradientTransform="matrix(-0.9861 0.166 0.166 0.9861 -8227.4385 614.5277)">
			<stop  offset="0" style="stop-color:#482F13"/>
			<stop  offset="1" style="stop-color:#665A2A"/>
		</linearGradient>
		<path class="st0" d="M68.58,89.63c18.85,6.32,40.42,3.95,57.45-6.32c-12.93-0.05-25.86-0.1-38.8-0.14
			c12.16-1.9,24.17-4.73,35.89-8.46c6.97-2.22,14.94-6.03,15.95-13.27c-16.51,1.18-32.77,5.77-47.46,13.4
			c8.5-4.1,17.2-8.35,23.72-15.19s10.48-16.92,7.53-25.89c-6.38,12.98-15.34,24.69-26.22,34.23c1.71-6.36,3.42-12.71,5.13-19.07
			c3.15-11.73,5.3-26.64-4.45-33.88c-5.08,14.46-8.7,29.43-10.8,44.61c0-20.06-2.3-40.12-6.85-59.65
			c-6.64,17.62-8.07,37.17-4.05,55.57c-4.96-17.05-8.66-34.48-11.04-52.08c-8.25,19.36-9.67,41.56-3.94,61.81
			C52.37,46.2,47.1,25.79,45.09,5.07c-9.34,11.82-3.66,29.02,2.37,42.82C39.07,40.6,33.3,30.36,31.41,19.41
			c-5.17,15.39,0.24,33.74,12.93,43.87c-9.59-8.71-16.99-19.81-21.35-32.01c-4.37,17.74,7.15,37.9,24.66,43.13
			C30.5,70.35,14.61,61.11,2.61,48.21c1.24,15.52,16.11,28.65,31.66,27.97c-11,3.89-23.38,3.72-34.27-0.47
			c5.02,8.84,15.7,13.23,25.87,13.45S58.94,92.86,68.58,89.63L68.58,89.63z"/>
	</g>
	<g>
		
			<linearGradient id="SVGID_2_" gradientUnits="userSpaceOnUse" x1="-6298.4023" y1="-233.8076" x2="-6298.4023" y2="-348.0177" gradientTransform="matrix(-0.9831 -0.1829 -0.1829 0.9831 -5842.6616 -514.9647)">
			<stop  offset="0" style="stop-color:#665A2A"/>
			<stop  offset="1" style="stop-color:#9C7E25"/>
		</linearGradient>
		<path class="st1" d="M406.12,401.79c12.58,7.39,29.52,6.53,41.3-2.09c-8.73-0.89-17.46-1.78-26.2-2.67
			c7.71,0.34,15.56,0.65,23.01-1.37c7.44-2.03,14.55-6.82,17.39-13.99c-7.44,1.41-14.88,2.82-22.32,4.23
			c11.25-3.82,19.13-15.84,18.14-27.68c-10.52,4.58-19.99,11.54-27.51,20.21c14.5-12.33,23.68-30.71,24.82-49.71
			c-7.58,13.64-15.16,27.27-22.74,40.91c1.8-11.68,3.59-23.36,5.39-35.04c0.89-5.79,2.4-16.95-3.43-17.56
			c-4.91,13.12-10.52,29.87-12.16,43.78c-0.84-15.15,0.2-49.58-0.64-64.72c-7.53,12.93-13.49,47.13-13.6,62.09
			c-1.46-14.62-7.09-37.28-6.02-51.93c-13.45,11.13-13.3,39.03-7.09,55.35c-6.38-16.4-9.32-34.13-8.58-51.72
			c-11.52,13.94-13.22,35.18-4.08,50.78c-16.23-8.94-25.27-29.25-21.06-47.28c-7.42,7.75-9.11,19.88-5.82,30.09
			s10.95,18.58,19.85,24.57c-6.36-0.54-12.89-1.12-18.65-3.88c-5.76-2.76-10.68-8.21-10.91-14.59c-1.28,6.72,2.01,13.66,6.87,18.48
			c4.86,4.82,11.13,7.91,17.27,10.92c-6.94-0.04-14.07-0.12-20.5-2.73c-6.43-2.61-12.08-8.37-12.41-15.3
			c-3.15,8.35,2.63,17.92,10.5,22.12c7.87,4.2,17.18,4.38,26.1,4.47c-7.79,1.93-16.15,1.52-23.72-1.19
			C361.69,402.62,387.7,410.69,406.12,401.79z"/>
	</g>
	<g>
		
			<linearGradient id="SVGID_3_" gradientUnits="userSpaceOnUse" x1="-8492.5107" y1="1226.8529" x2="-8492.5107" y2="1147.5579" gradientTransform="matrix(-0.9861 0.166 0.166 0.9861 -8227.4385 614.5277)">
			<stop  offset="0" style="stop-color:#482F13"/>
			<stop  offset="1" style="stop-color:#665A2A"/>
		</linearGradient>
		<path class="st2" d="M346.15,408.49c15.68,5.26,33.63,3.28,47.8-5.26c-10.76-0.04-21.52-0.08-32.28-0.12
			c10.11-1.58,20.11-3.94,29.86-7.04c5.8-1.85,12.43-5.02,13.27-11.04c-13.74,0.98-27.27,4.8-39.49,11.15
			c7.07-3.42,14.31-6.95,19.73-12.63c5.42-5.69,8.72-14.08,6.26-21.54c-5.31,10.8-12.77,20.54-21.81,28.48
			c1.42-5.29,2.84-10.58,4.27-15.87c2.62-9.76,4.41-22.17-3.7-28.19c-4.22,12.03-7.24,24.49-8.98,37.12
			c0-16.69-1.91-33.38-5.7-49.63c-5.53,14.66-6.71,30.93-3.37,46.23c-4.13-14.19-7.2-28.69-9.19-43.33
			c-6.87,16.11-8.04,34.58-3.28,51.43c-6.88-15.9-11.27-32.87-12.94-50.12c-7.77,9.83-3.04,24.14,1.97,35.62
			c-6.98-6.06-11.79-14.58-13.36-23.69c-4.3,12.8,0.2,28.07,10.76,36.5c-7.98-7.25-14.14-16.48-17.76-26.63
			c-3.64,14.76,5.95,31.53,20.52,35.89c-14.27-3.37-27.49-11.05-37.48-21.79c1.03,12.91,13.4,23.84,26.34,23.27
			c-9.15,3.23-19.45,3.09-28.51-0.39c4.18,7.35,13.06,11.01,21.52,11.19C319.07,408.27,338.13,411.18,346.15,408.49L346.15,408.49z"
			/>
	</g>
	<g>
		<linearGradient id="SVGID_4_" gradientUnits="userSpaceOnUse" x1="70.6479" y1="246.1691" x2="250.5978" y2="246.1691">
			<stop  offset="0" style="stop-color:#060000"/>
			<stop  offset="1" style="stop-color:#4A2824"/>
		</linearGradient>
		<path class="st3" d="M115.38,403.27c2.01-45.98,17.28-100.07,11.89-145.78c-1.61-13.64-5.1-27.05-5.79-40.77
			c-0.41-8.06,0.16-16.14-0.05-24.21c-0.98-38.21-19.57-74.66-46.32-101.96c-2.57-2.62-5.44-6.07-4.16-9.51
			c12.83,13.6,25.24,27.59,37.23,41.94c2.01-8.61,1.6-17.77-1.15-26.17c8.03,4.64,6.74,16.25,8.17,25.42
			c0.93,5.97,3.44,11.57,5.99,17.05c5.59,12.02,11.5,23.88,17.72,35.58c7.31-16.21,14.25-32.6,20.82-49.13
			c3.61,9.7,1.55,20.61-2.09,30.3c-3.65,9.68-8.83,18.79-11.68,28.74c-3.71,12.94-3.31,26.69-2.05,40.09
			c1.26,13.44,3.34,26.8,6.22,39.99c8.93-12.79,25.29-18.18,36.07-29.45c11.23-11.73,15.22-28.42,18.78-44.27
			c1.84,11.65,0.78,23.74-3.07,34.89c6.57-3.97,11.09-10.51,15.41-16.85c10.54-15.47,21.07-30.94,31.61-46.41
			c2.59,0.5,1.75,4.44,0.27,6.62c-15.59,23.15-31.17,46.3-46.76,69.45c-1.34,1.99-2.72,4.02-4.7,5.36
			c-1.63,1.11-3.57,1.67-5.39,2.43c-4.98,2.07-9.21,5.63-12.83,9.63c-13.94,15.44-18.91,36.87-21.55,57.5
			c-3.8,29.68-3.81,59.84-0.04,89.53c0,0-4.08,8.04-20.05,8.04S115.38,403.27,115.38,403.27z"/>
	</g>
	<g>
		<linearGradient id="SVGID_5_" gradientUnits="userSpaceOnUse" x1="122.3536" y1="381.9081" x2="122.3536" y2="277.9263">
			<stop  offset="0" style="stop-color:#482F13"/>
			<stop  offset="1" style="stop-color:#665A2A"/>
		</linearGradient>
		<path class="st4" d="M123.15,371.37c-16.98,8.42-39.05,7.32-54.95-2.73c9.14,1.83,18.7,1.88,27.86,0.15
			c-19.65-2.22-38.3-11.28-51.35-24.96c13.65,4.7,23.16,4.2,35.75,10.95c-11.4-5.21-3.04,2.37-11.58-6.3
			c-8.54-8.67-15.32-14.94-10.53-25.77c17.01,15.87,6.53,6.17,22.56,16.55c-5.63-16.07-0.7-11.02-4.55-27.53
			c11.99,6.65,19.56,19.52,19.04,32.37c-7.33-21.3-8.11-44.47-2.24-66.16c11.41,20.6,18.23,43.33,19.95,66.39
			c1.76-21.15,6.35-42.1,13.64-62.23c3.1,16.99,2.87,34.5-0.67,51.42c2.46-11.07,7.02-21.73,13.4-31.39
			c0.77,14.1-0.25,28.29-3.02,42.18c8.38-21.91,18.24-43.33,29.52-64.11c6.76,22.05-3.86,45.11-14.24,65.94
			c9.76-17.07,21.39-33.23,34.64-48.18c4.23,6.43,0.33,14.63-3.71,21.16c-7.06,11.4-14.6,22.55-22.6,33.42
			c8.07-11.76,19.63-21.47,33.09-27.81c-1.57,14.42-10.04,28.1-22.73,36.71c9.86-3.3,19.72-6.6,29.57-9.9
			c-0.5,8.81-9.04,15.82-18.29,18.22c-9.24,2.39-19.08,1.18-28.59-0.05c7.73,5.66,17.99,8.33,27.8,7.24
			C164.33,385.64,138.04,382.37,123.15,371.37z"/>
	</g>
	<g>
		<linearGradient id="SVGID_6_" gradientUnits="userSpaceOnUse" x1="148.2902" y1="412.0858" x2="148.2902" y2="308.104">
			<stop  offset="0" style="stop-color:#665A2A"/>
			<stop  offset="1" style="stop-color:#9C7E25"/>
		</linearGradient>
		<path class="st5" d="M149.09,401.54c-16.98,8.42-39.05,7.32-54.95-2.73c9.14,1.83,18.7,1.88,27.86,0.15
			c-19.65-2.22-38.3-11.28-51.35-24.96c13.65,4.7,23.16,4.2,35.75,10.95c-11.4-5.21-3.04,2.37-11.58-6.3
			c-8.54-8.67-15.32-14.94-10.53-25.77c17.01,15.87,6.53,6.17,22.56,16.55c-5.63-16.07-0.7-11.02-4.55-27.53
			c11.99,6.65,19.56,19.52,19.04,32.37c-7.33-21.3-8.11-44.47-2.24-66.16c11.41,20.6,18.23,43.33,19.95,66.39
			c1.76-21.15,6.35-42.1,13.64-62.23c3.1,16.99,2.87,34.5-0.67,51.42c2.46-11.07,7.02-21.73,13.4-31.39
			c0.77,14.1-0.25,28.29-3.02,42.18c8.38-21.91,18.24-43.33,29.52-64.11c6.76,22.05-3.86,45.11-14.24,65.94
			c9.76-17.07,21.39-33.23,34.64-48.18c4.23,6.43,0.33,14.63-3.71,21.16c-7.06,11.4-14.6,22.55-22.6,33.42
			c8.07-11.76,19.63-21.47,33.09-27.81c-1.57,14.42-10.04,28.1-22.73,36.71c9.86-3.3,19.72-6.6,29.57-9.9
			c-0.5,8.81-9.04,15.82-18.29,18.22c-9.24,2.39-19.08,1.18-28.59-0.05c7.73,5.66,17.99,8.33,27.8,7.24
			C190.26,415.82,163.97,412.55,149.09,401.54z"/>
	</g>
	<g>
		<linearGradient id="SVGID_7_" gradientUnits="userSpaceOnUse" x1="190.7346" y1="197.5997" x2="190.7346" y2="175.1929">
			<stop  offset="0" style="stop-color:#482F13"/>
			<stop  offset="1" style="stop-color:#665A2A"/>
		</linearGradient>
		<path class="st6" d="M204.55,197.44c-4.57,0.27-13.07,0.29-17.55-0.69s-8.84-3.39-11.15-7.35c3.1-2.74,7.63-3.37,11.7-2.63
			s7.81,2.69,11.47,4.62c-1.58-2.51-3.18-5.09-3.8-7.98c-0.62-2.9-0.06-6.23,2.15-8.21C203.58,178.34,207.68,191.21,204.55,197.44z"
			/>
	</g>
	<g>
		<linearGradient id="SVGID_8_" gradientUnits="userSpaceOnUse" x1="108.6479" y1="211.4525" x2="108.6479" y2="187.5532">
			<stop  offset="0" style="stop-color:#482F13"/>
			<stop  offset="1" style="stop-color:#665A2A"/>
		</linearGradient>
		<path class="st7" d="M120.64,211.45c-9.69-5.79-17.98-13.88-24.01-23.42C109.06,184.78,121.22,198.62,120.64,211.45z"/>
	</g>
</g>
</svg>
