<?xml version="1.0" encoding="utf-8"?>
<!-- Generator: Adobe Illustrator 24.1.2, SVG Export Plug-In . SVG Version: 6.00 Build 0)  -->
<svg version="1.1" id="Layer_1" xmlns="http://www.w3.org/2000/svg" xmlns:xlink="http://www.w3.org/1999/xlink" x="0px" y="0px"
	 viewBox="0 0 426.77 207.73" style="enable-background:new 0 0 426.77 207.73;" xml:space="preserve">
<style type="text/css">
	.st0{fill:url(#SVGID_1_);}
	.st1{fill-rule:evenodd;clip-rule:evenodd;fill:url(#SVGID_2_);}
	.st2{fill-rule:evenodd;clip-rule:evenodd;fill:url(#SVGID_3_);}
	.st3{fill:url(#SVGID_4_);}
	.st4{fill:url(#SVGID_5_);}
	.st5{fill:url(#SVGID_6_);}
</style>
<g>
	<g>
		
			<linearGradient id="SVGID_1_" gradientUnits="userSpaceOnUse" x1="-9019" y1="979.2783" x2="-9019" y2="920.9391" gradientTransform="matrix(-0.9861 0.166 0.166 0.9861 -8669.3105 651.4631)">
			<stop  offset="0" style="stop-color:#482F13"/>
			<stop  offset="1" style="stop-color:#665A2A"/>
		</linearGradient>
		<path class="st0" d="M383.61,115.46c11.54,3.87,24.75,2.42,35.17-3.87c-7.92-0.03-15.83-0.06-23.75-0.09
			c7.44-1.16,14.79-2.9,21.97-5.18c4.27-1.36,9.14-3.69,9.76-8.13c-10.11,0.72-20.06,3.53-29.05,8.2c5.2-2.51,10.53-5.11,14.52-9.3
			s6.41-10.36,4.61-15.85c-3.9,7.95-9.39,15.11-16.05,20.95c1.05-3.89,2.09-7.78,3.14-11.67c1.93-7.18,3.25-16.31-2.72-20.74
			c-3.11,8.85-5.33,18.02-6.61,27.31c0-12.28-1.41-24.56-4.19-36.51c-4.07,10.79-4.94,22.75-2.48,34.01
			c-3.04-10.44-5.3-21.1-6.76-31.88c-5.05,11.85-5.92,25.44-2.41,37.84c-5.07-11.7-8.29-24.19-9.52-36.87
			c-5.72,7.23-2.24,17.76,1.45,26.21c-5.14-4.46-8.67-10.73-9.83-17.43c-3.16,9.42,0.15,20.65,7.91,26.85
			c-5.87-5.33-10.4-12.13-13.07-19.6c-2.68,10.86,4.38,23.2,15.1,26.4c-10.5-2.48-20.23-8.13-27.58-16.03
			c0.76,9.5,9.86,17.54,19.38,17.12c-6.73,2.38-14.31,2.27-20.98-0.29c3.07,5.41,9.61,8.1,15.83,8.23S377.71,117.43,383.61,115.46
			L383.61,115.46z"/>
	</g>
	<g>
		<linearGradient id="SVGID_2_" gradientUnits="userSpaceOnUse" x1="198.7464" y1="96.7849" x2="246.2432" y2="96.7849">
			<stop  offset="0" style="stop-color:#4A2824"/>
			<stop  offset="1" style="stop-color:#060000"/>
		</linearGradient>
		<path class="st1" d="M223.57,190.06c-0.16-12.58-0.32-25.19,0.66-37.74c1.71-21.93,6.75-44.91-1.59-65.26
			c-4.03-9.83-11.11-18.39-20.01-24.19c-0.03-0.79,0.29-1.58,0.86-2.12c2.89,0.02,5.74,1.52,7.39,3.9
			c-0.76-10.8-10.27-19.22-12.07-29.89c-0.19-1.1,0.14-2.69,1.25-2.6c3.76,7.51,7.52,15.02,11.27,22.52
			c3.78,7.56,7.68,15.28,13.81,21.09c-0.61-8.67,2.55-17.25,2.23-25.94c-0.16-4.25-1.15-8.43-1.34-12.68
			c-0.33-7.31,1.69-14.67,0.52-21.89c-0.83-5.12-3.21-10.54-1.04-15.25c14.16,29.66,7.13,64.97,14.53,96.99
			c1.94-4.98,3.89-9.97,5.83-14.95c1.13,5.97-0.47,12.06-1.69,18.01c-6.01,29.51-2.52,60.02,1,89.92c0,0-2.75,3.59-10.92,3.59
			C226.09,193.57,223.57,190.06,223.57,190.06z"/>
	</g>
	<g>
		<linearGradient id="SVGID_3_" gradientUnits="userSpaceOnUse" x1="254.1434" y1="92.3622" x2="339.5223" y2="92.3622">
			<stop  offset="0" style="stop-color:#4A2824"/>
			<stop  offset="1" style="stop-color:#060000"/>
		</linearGradient>
		<path class="st2" d="M287.11,172.27c3.79-16.47,4.98-41.93,3.45-58.76c2.73-4.72,1.4-10.79-1.13-15.62
			c-2.53-4.83-6.15-9.08-8.18-14.14c-1.86-4.63-2.3-9.75-4.33-14.3c-1.33-2.99-3.31-5.64-5.27-8.27
			c-5.34-7.16-10.74-14.38-17.5-20.21c8.18,3.04,13.43,10.85,18.12,18.2l1.46-6.65c0.23,9.89,9.23,11.64,11.86,21.17
			c-0.33-9.78-0.17-20.47,0.71-30.22c0.71-7.82-1.45-21.64-1.88-33.18c-0.07-1.9,2.72-2.15,2.99-0.27
			c3.07,20.79,6.4,42.64,5.97,58.39c-0.18,6.72,0.24,14.19,4.99,18.95c2.19-2.42,4.82-4.38,7.23-6.58
			c10.83-9.88,15.04-19.79,14.07-34.42c2.51,4.45,2.03,9.91,1.48,14.99c1.68,0.34,3.05-1.29,3.99-2.73
			c4.68-7.17,9.35-14.34,14.03-21.51c1.25,3.89-1.24,7.89-3.59,11.24c-8.02,11.46-15.7,23.16-23.01,35.08
			c-4.47,7.29-8.98,15.53-7.43,23.94c0.37,2.02,1.09,4.06,0.69,6.07c-0.29,1.43-1.13,2.69-1.77,4c-2.45,5.01-2.11,10.88-1.71,16.44
			c0.92,12.79,1.84,25.58,2.76,38.37c0,0-1.03,3.72-7.92,3.72S287.11,172.27,287.11,172.27z"/>
	</g>
	<g>
		
			<linearGradient id="SVGID_4_" gradientUnits="userSpaceOnUse" x1="689.1527" y1="861.2974" x2="689.1527" y2="810.1299" gradientTransform="matrix(0.9877 -0.1563 0.1563 0.9877 -646.9603 -607.8229)">
			<stop  offset="0" style="stop-color:#665A2A"/>
			<stop  offset="1" style="stop-color:#9C7E25"/>
		</linearGradient>
		<path class="st3" d="M162.19,132.76c-5.72,3.16-13.3,2.57-18.47-1.43c3.92-0.29,7.84-0.59,11.76-0.88
			c-3.46,0.06-6.98,0.11-10.29-0.89c-3.31-1-6.43-3.23-7.62-6.48c3.32,0.72,6.63,1.44,9.95,2.16c-4.99-1.85-8.38-7.32-7.79-12.62
			c4.66,2.18,8.81,5.41,12.08,9.38c-6.34-5.7-10.23-14.04-10.52-22.56c3.23,6.2,6.46,12.4,9.69,18.59
			c-0.66-5.25-1.33-10.51-1.99-15.76c-0.33-2.61-0.87-7.62,1.75-7.82c2.04,5.94,4.35,13.5,4.92,19.76
			c0.56-6.77,0.51-22.21,1.07-28.98c3.22,5.88,5.47,21.27,5.34,27.97c0.83-6.53,3.62-16.61,3.32-23.19
			c5.89,5.15,5.48,17.64,2.51,24.87c3.06-7.27,4.59-15.17,4.47-23.06c4.99,6.38,5.5,15.91,1.22,22.79
			c7.37-3.81,11.67-12.79,10-20.92c3.23,3.56,3.84,9.01,2.24,13.55c-1.6,4.53-5.13,8.19-9.19,10.76c2.86-0.16,5.79-0.34,8.4-1.51
			c2.61-1.17,4.88-3.55,5.06-6.4c0.49,3.03-1.06,6.09-3.3,8.19s-5.08,3.41-7.87,4.68c3.11,0.06,6.3,0.12,9.21-0.97
			s5.51-3.6,5.74-6.7c1.31,3.78-1.39,7.99-4.97,9.78c-3.57,1.78-7.75,1.75-11.74,1.69c3.47,0.96,7.22,0.87,10.64-0.25
			C182.08,133.67,170.33,136.97,162.19,132.76z"/>
	</g>
	<g>
		
			<linearGradient id="SVGID_5_" gradientUnits="userSpaceOnUse" x1="-8767.2432" y1="977.5411" x2="-8767.2432" y2="919.202" gradientTransform="matrix(-0.9861 0.166 0.166 0.9861 -8669.3105 651.4631)">
			<stop  offset="0" style="stop-color:#482F13"/>
			<stop  offset="1" style="stop-color:#665A2A"/>
		</linearGradient>
		<path class="st4" d="M135.06,155.54c11.54,3.87,24.75,2.42,35.17-3.87c-7.92-0.03-15.83-0.06-23.75-0.09
			c7.44-1.16,14.79-2.9,21.97-5.18c4.27-1.36,9.14-3.69,9.76-8.13c-10.11,0.72-20.06,3.53-29.05,8.2c5.2-2.51,10.53-5.11,14.52-9.3
			s6.41-10.36,4.61-15.85c-3.9,7.95-9.39,15.11-16.05,20.95c1.05-3.89,2.09-7.78,3.14-11.67c1.93-7.18,3.25-16.31-2.72-20.74
			c-3.11,8.85-5.33,18.02-6.61,27.31c0-12.28-1.41-24.56-4.19-36.51c-4.07,10.79-4.94,22.75-2.48,34.01
			c-3.04-10.44-5.3-21.1-6.76-31.88c-5.05,11.85-5.92,25.44-2.41,37.84c-5.07-11.7-8.29-24.19-9.52-36.87
			c-5.72,7.23-2.24,17.76,1.45,26.21c-5.14-4.46-8.67-10.73-9.83-17.43c-3.16,9.42,0.15,20.65,7.91,26.85
			c-5.87-5.33-10.4-12.13-13.07-19.6c-2.68,10.86,4.38,23.2,15.1,26.4c-10.5-2.48-20.23-8.13-27.58-16.03
			c0.76,9.5,9.86,17.54,19.38,17.12c-6.73,2.38-14.31,2.27-20.98-0.29c3.07,5.41,9.61,8.1,15.83,8.23S129.16,157.52,135.06,155.54
			L135.06,155.54z"/>
	</g>
	<g>
		
			<linearGradient id="SVGID_6_" gradientUnits="userSpaceOnUse" x1="-8695.3213" y1="1017.645" x2="-8695.3213" y2="922.3397" gradientTransform="matrix(-0.9861 0.166 0.166 0.9861 -8669.3105 651.4631)">
			<stop  offset="0" style="stop-color:#482F13"/>
			<stop  offset="1" style="stop-color:#665A2A"/>
		</linearGradient>
		<path class="st5" d="M68.58,204.25c18.85,6.32,40.42,3.95,57.45-6.32c-12.93-0.05-25.86-0.1-38.8-0.14
			c12.16-1.9,24.17-4.73,35.89-8.46c6.97-2.22,14.94-6.03,15.95-13.27c-16.51,1.18-32.77,5.77-47.46,13.4
			c8.5-4.1,17.2-8.35,23.72-15.19c6.51-6.83,10.48-16.92,7.53-25.89c-6.38,12.98-15.34,24.69-26.22,34.23
			c1.71-6.36,3.42-12.71,5.13-19.07c3.15-11.73,5.3-26.64-4.45-33.88c-5.08,14.46-8.7,29.43-10.8,44.61
			c0-20.06-2.3-40.12-6.85-59.65c-6.64,17.62-8.07,37.17-4.05,55.57c-4.96-17.05-8.66-34.48-11.04-52.08
			c-8.25,19.36-9.67,41.56-3.94,61.81c-8.27-19.11-13.54-39.51-15.55-60.24c-9.34,11.82-3.66,29.02,2.37,42.82
			c-8.39-7.28-14.17-17.52-16.06-28.47c-5.17,15.39,0.24,33.74,12.93,43.87c-9.59-8.71-16.99-19.81-21.35-32.01
			c-4.37,17.74,7.15,37.9,24.66,43.13c-17.15-4.05-33.04-13.29-45.05-26.19c1.24,15.52,16.11,28.65,31.66,27.97
			c-11,3.89-23.38,3.72-34.27-0.47c5.02,8.84,15.7,13.23,25.87,13.45C36.03,203.99,58.94,207.47,68.58,204.25L68.58,204.25z"/>
	</g>
</g>
</svg>
