<?xml version="1.0" encoding="utf-8"?>
<!-- Generator: Adobe Illustrator 24.1.2, SVG Export Plug-In . SVG Version: 6.00 Build 0)  -->
<svg version="1.1" id="Layer_1" xmlns="http://www.w3.org/2000/svg" xmlns:xlink="http://www.w3.org/1999/xlink" x="0px" y="0px"
	 viewBox="0 0 306.08 300.51" style="enable-background:new 0 0 306.08 300.51;" xml:space="preserve">
<style type="text/css">
	.st0{fill:url(#SVGID_1_);}
	.st1{fill:url(#SVGID_2_);}
	.st2{fill:url(#SVGID_3_);}
	.st3{fill-rule:evenodd;clip-rule:evenodd;fill:url(#SVGID_4_);}
	.st4{fill-rule:evenodd;clip-rule:evenodd;fill:url(#SVGID_5_);}
	.st5{fill:url(#SVGID_6_);}
	.st6{fill:url(#SVGID_7_);}
	.st7{fill:url(#SVGID_8_);}
	.st8{fill:url(#SVGID_9_);}
</style>
<g>
	<g>
		
			<linearGradient id="SVGID_1_" gradientUnits="userSpaceOnUse" x1="899.7136" y1="1122.6018" x2="899.7136" y2="1017.1508" gradientTransform="matrix(0.9831 -0.1829 0.1829 0.9831 -836.137 -642.9061)">
			<stop  offset="0" style="stop-color:#665A2A"/>
			<stop  offset="1" style="stop-color:#9C7E25"/>
		</linearGradient>
		<path class="st0" d="M240.92,291.55c-11.62,6.82-27.26,6.03-38.13-1.93c8.06-0.82,16.12-1.64,24.19-2.46
			c-7.12,0.31-14.37,0.6-21.24-1.27s-13.43-6.29-16.06-12.92c6.87,1.3,13.74,2.6,20.61,3.91c-10.39-3.53-17.66-14.62-16.75-25.56
			c9.71,4.23,18.46,10.66,25.4,18.66c-13.39-11.38-21.86-28.36-22.92-45.9c7,12.59,14,25.18,21,37.77
			c-1.66-10.79-3.32-21.57-4.97-32.36c-0.82-5.35-2.22-15.65,3.16-16.21c4.53,12.12,9.71,27.58,11.23,40.43
			c0.77-13.99-0.19-45.77,0.59-59.76c6.95,11.94,12.45,43.52,12.56,57.33c1.35-13.5,6.54-34.42,5.56-47.95
			c12.42,10.27,12.28,36.04,6.55,51.1c5.89-15.14,8.61-31.51,7.92-47.75c10.63,12.87,12.21,32.48,3.77,46.88
			c14.98-8.25,23.33-27,19.44-43.66c6.85,7.15,8.41,18.36,5.38,27.78c-3.04,9.43-10.11,17.15-18.32,22.68
			c5.88-0.5,11.9-1.03,17.22-3.58c5.32-2.55,9.86-7.58,10.08-13.47c1.19,6.21-1.85,12.62-6.34,17.06
			c-4.49,4.45-10.27,7.3-15.95,10.08c6.4-0.04,12.99-0.11,18.92-2.52c5.94-2.41,11.15-7.73,11.46-14.12
			c2.91,7.71-2.43,16.55-9.69,20.42c-7.27,3.88-15.87,4.04-24.1,4.12c7.2,1.79,14.92,1.4,21.9-1.1
			C281.95,292.32,257.93,299.78,240.92,291.55z"/>
	</g>
	<g>
		
			<linearGradient id="SVGID_2_" gradientUnits="userSpaceOnUse" x1="-7319.4165" y1="-408.5735" x2="-7319.4165" y2="-490.0646" gradientTransform="matrix(-0.9831 -0.1829 -0.1829 0.9831 -7230.229 -642.9061)">
			<stop  offset="0" style="stop-color:#665A2A"/>
			<stop  offset="1" style="stop-color:#9C7E25"/>
		</linearGradient>
		<path class="st1" d="M50.35,290.18c8.98,5.27,21.07,4.66,29.47-1.49c-6.23-0.63-12.46-1.27-18.69-1.9
			c5.5,0.24,11.11,0.47,16.42-0.98c5.31-1.45,10.38-4.86,12.41-9.98c-5.31,1.01-10.62,2.01-15.93,3.02
			c8.03-2.73,13.65-11.3,12.94-19.75c-7.5,3.27-14.27,8.24-19.63,14.42c10.35-8.8,16.9-21.92,17.71-35.47
			c-5.41,9.73-10.82,19.46-16.23,29.19c1.28-8.33,2.56-16.67,3.84-25c0.64-4.13,1.72-12.1-2.44-12.53
			c-3.5,9.36-7.51,21.31-8.68,31.24c-0.6-10.81,0.14-35.37-0.45-46.18c-5.37,9.23-9.62,33.63-9.71,44.31
			c-1.04-10.43-5.06-26.6-4.3-37.06c-9.6,7.94-9.49,27.85-5.06,39.49c-4.55-11.7-6.65-24.35-6.12-36.9
			c-8.22,9.95-9.44,25.1-2.91,36.23c-11.58-6.38-18.03-20.87-15.02-33.74c-5.29,5.53-6.5,14.18-4.15,21.47
			c2.35,7.28,7.81,13.26,14.16,17.53c-4.54-0.38-9.2-0.8-13.31-2.77s-7.62-5.86-7.79-10.41c-0.92,4.8,1.43,9.75,4.9,13.19
			c3.47,3.44,7.94,5.64,12.32,7.79c-4.95-0.03-10.04-0.09-14.62-1.95c-4.59-1.86-8.62-5.97-8.86-10.91
			c-2.25,5.95,1.88,12.79,7.49,15.78c5.61,3,12.26,3.13,18.62,3.19c-5.56,1.38-11.53,1.08-16.92-0.85
			C18.65,290.78,37.2,296.54,50.35,290.18z"/>
	</g>
	<g>
		
			<linearGradient id="SVGID_3_" gradientUnits="userSpaceOnUse" x1="-629.847" y1="-331.6163" x2="-629.847" y2="-410.9113" gradientTransform="matrix(0.9861 0.166 -0.166 0.9861 656.6067 730.4587)">
			<stop  offset="0" style="stop-color:#482F13"/>
			<stop  offset="1" style="stop-color:#665A2A"/>
		</linearGradient>
		<path class="st2" d="M95.3,292.92c-15.68,5.26-33.63,3.28-47.8-5.26c10.76-0.04,21.52-0.08,32.28-0.12
			c-10.11-1.58-20.11-3.94-29.86-7.04c-5.8-1.85-12.43-5.02-13.27-11.04c13.74,0.98,27.27,4.8,39.49,11.15
			c-7.07-3.42-14.31-6.95-19.73-12.63s-8.72-14.08-6.26-21.54c5.31,10.8,12.77,20.54,21.81,28.48c-1.42-5.29-2.84-10.58-4.27-15.87
			c-2.62-9.76-4.41-22.17,3.7-28.19c4.22,12.03,7.24,24.49,8.98,37.12c0-16.69,1.91-33.38,5.7-49.63
			c5.53,14.66,6.71,30.93,3.37,46.23c4.13-14.19,7.2-28.69,9.19-43.33c6.87,16.11,8.04,34.58,3.28,51.43
			c6.88-15.9,11.27-32.87,12.94-50.12c7.77,9.83,3.04,24.14-1.97,35.62c6.98-6.06,11.79-14.58,13.36-23.69
			c4.3,12.8-0.2,28.07-10.76,36.5c7.98-7.25,14.14-16.48,17.76-26.63c3.64,14.76-5.95,31.53-20.52,35.89
			c14.27-3.37,27.49-11.05,37.48-21.79c-1.03,12.91-13.4,23.84-26.34,23.27c9.15,3.23,19.45,3.09,28.51-0.39
			c-4.18,7.35-13.06,11.01-21.52,11.19C122.39,292.7,103.33,295.6,95.3,292.92L95.3,292.92z"/>
	</g>
	<g>
		
			<linearGradient id="SVGID_4_" gradientUnits="userSpaceOnUse" x1="-8260.4424" y1="-568.8479" x2="-8190.9062" y2="-568.8479" gradientTransform="matrix(-0.9998 0.0185 0.0155 0.8359 -8091.7144 786.3546)">
			<stop  offset="0" style="stop-color:#4A2824"/>
			<stop  offset="1" style="stop-color:#060000"/>
		</linearGradient>
		<path class="st3" d="M124.29,272.87c-0.05-15.4-0.1-30.83-1.82-46.16c-3-26.79-10.9-54.77,0.85-79.91
			c5.68-12.14,15.85-22.81,28.75-30.15c0.02-0.96-0.46-1.92-1.3-2.57c-4.23,0.1-8.36,2.02-10.72,4.97c0.87-13.24,14.6-23.79,17-36.9
			c0.25-1.35-0.26-3.29-1.89-3.15c-5.33,9.29-10.66,18.58-15.99,27.87c-5.36,9.35-10.9,18.9-19.74,26.18
			c0.69-10.63-4.13-21.04-3.85-31.68c0.14-5.2,1.49-10.35,1.68-15.55c0.32-8.95-2.81-17.91-1.26-26.78
			c1.1-6.29,4.46-12.98,1.17-18.69c-20.06,36.68-8.97,79.69-19.07,119.09c-2.96-6.05-5.91-12.09-8.87-18.14
			c-1.51,7.33,0.97,14.75,2.88,22c9.47,35.94,5.04,73.38,0.57,110.07c0,0,4.11,4.32,16.06,4.09
			C120.69,277.23,124.29,272.87,124.29,272.87z"/>
	</g>
	<g>
		
			<linearGradient id="SVGID_5_" gradientUnits="userSpaceOnUse" x1="-615.9285" y1="148.3533" x2="-464.4584" y2="148.3533" gradientTransform="matrix(1 0 0 1 735.2346 0)">
			<stop  offset="0" style="stop-color:#4A2824"/>
			<stop  offset="1" style="stop-color:#060000"/>
		</linearGradient>
		<path class="st4" d="M177.79,290.11c6.72-29.21,8.84-74.39,6.12-104.24c4.85-8.37,2.48-19.14-2.01-27.71
			c-4.49-8.57-10.9-16.11-14.51-25.09c-3.29-8.21-4.09-17.29-7.69-25.37c-2.37-5.31-5.87-10.01-9.34-14.66
			c-9.48-12.7-19.05-25.5-31.05-35.85c14.51,5.39,23.82,19.25,32.15,32.3l2.6-11.8c0.41,17.54,16.37,20.65,21.04,37.56
			c-0.58-17.35-0.31-36.32,1.27-53.61c1.26-13.87-2.57-38.4-3.33-58.86c-0.13-3.36,4.82-3.81,5.31-0.48
			c5.45,36.89,11.35,75.66,10.59,103.59c-0.32,11.92,0.42,25.17,8.85,33.61c3.88-4.29,8.56-7.77,12.84-11.67
			c19.22-17.52,26.69-35.12,24.96-61.06c4.45,7.9,3.61,17.59,2.63,26.6c2.99,0.6,5.41-2.29,7.08-4.85
			c8.3-12.72,16.6-25.45,24.89-38.17c2.22,6.9-2.21,14-6.36,19.94c-14.24,20.32-27.85,41.08-40.82,62.24
			c-7.93,12.94-15.93,27.54-13.17,42.47c0.66,3.58,1.94,7.21,1.22,10.78c-0.51,2.55-2,4.77-3.14,7.1
			c-4.35,8.89-3.74,19.3-3.03,29.17c1.64,22.69,3.27,45.39,4.91,68.08c0,0-1.83,6.59-14.05,6.59S177.79,290.11,177.79,290.11z"/>
	</g>
	<g>
		<linearGradient id="SVGID_6_" gradientUnits="userSpaceOnUse" x1="170.2545" y1="300.5114" x2="170.2545" y2="196.5296">
			<stop  offset="0" style="stop-color:#482F13"/>
			<stop  offset="1" style="stop-color:#665A2A"/>
		</linearGradient>
		<path class="st5" d="M171.05,289.97c-16.98,8.42-39.05,7.32-54.95-2.73c9.14,1.83,18.7,1.88,27.86,0.15
			c-19.65-2.22-38.3-11.28-51.35-24.96c13.65,4.7,23.16,4.2,35.75,10.95c-11.4-5.21-3.04,2.37-11.58-6.3s-15.32-14.94-10.53-25.77
			c17.01,15.87,6.53,6.17,22.56,16.55c-5.63-16.07-0.7-11.02-4.55-27.53c11.99,6.65,19.56,19.52,19.04,32.37
			c-7.33-21.3-8.11-44.47-2.24-66.16c11.41,20.6,18.23,43.33,19.95,66.39c1.76-21.15,6.35-42.1,13.64-62.23
			c3.1,16.99,2.87,34.5-0.67,51.42c2.46-11.07,7.02-21.73,13.4-31.39c0.77,14.1-0.25,28.29-3.02,42.18
			c8.38-21.91,18.24-43.33,29.52-64.11c6.76,22.05-3.86,45.11-14.24,65.94c9.76-17.07,21.39-33.23,34.64-48.18
			c4.23,6.43,0.33,14.63-3.71,21.16c-7.06,11.4-14.6,22.55-22.6,33.42c8.07-11.76,19.63-21.47,33.09-27.81
			c-1.57,14.42-10.04,28.1-22.73,36.71c9.86-3.3,19.72-6.6,29.57-9.9c-0.5,8.81-9.04,15.82-18.29,18.22
			c-9.24,2.39-19.08,1.18-28.59-0.05c7.73,5.66,17.99,8.33,27.8,7.24C212.23,304.24,185.94,300.98,171.05,289.97z"/>
	</g>
	<g>
		<linearGradient id="SVGID_7_" gradientUnits="userSpaceOnUse" x1="82.4461" y1="154.4105" x2="82.4461" y2="114.7789">
			<stop  offset="0" style="stop-color:#482F13"/>
			<stop  offset="1" style="stop-color:#665A2A"/>
		</linearGradient>
		<path class="st6" d="M93.91,153.85c-5.39,0.55-10.94,1.09-16.15-0.4c-5.21-1.49-10.07-5.51-10.88-10.87
			c5.9-0.83,12.12,0.82,16.84,4.46c-10.03-6.86-14.52-20.83-10.36-32.25c7.87,4.8,13.5,13.11,15.03,22.2
			c0.23-5.97,2.39-11.85,6.1-16.54C99.72,127.12,98.8,146.9,93.91,153.85z"/>
	</g>
	<g>
		<linearGradient id="SVGID_8_" gradientUnits="userSpaceOnUse" x1="128.1611" y1="53.8566" x2="128.1611" y2="22.8341">
			<stop  offset="0" style="stop-color:#482F13"/>
			<stop  offset="1" style="stop-color:#665A2A"/>
		</linearGradient>
		<path class="st7" d="M114.61,53.62c-2.44-6.5-2.31-13.93,0.36-20.35c0.92-2.22,2.62-4.61,5.03-4.54c2.96,0.09,4.37,3.84,3.99,6.77
			c-0.39,2.93-1.78,5.8-1.32,8.72c3.72-9.42,11.25-17.28,20.51-21.39c1.82,10.14-5.54,21.05-15.62,23.17
			c4.05-0.16,8.09-0.31,12.14-0.47c0.7-0.03,1.45-0.04,2.04,0.33c2.09,1.32-0.41,4.4-2.73,5.26
			C132.81,53.41,121.17,54.33,114.61,53.62z"/>
	</g>
	<g>
		
			<linearGradient id="SVGID_9_" gradientUnits="userSpaceOnUse" x1="-9754.8984" y1="1819.4514" x2="-9754.8984" y2="1797.0447" gradientTransform="matrix(-0.9332 0.3593 0.3593 0.9332 -9506.2227 1872.5466)">
			<stop  offset="0" style="stop-color:#482F13"/>
			<stop  offset="1" style="stop-color:#665A2A"/>
		</linearGradient>
		<path class="st8" d="M238.11,70.75c4.37-1.39,12.31-4.43,16.13-6.95c3.83-2.52,7.03-6.34,7.77-10.87
			c-3.88-1.45-8.33-0.41-11.86,1.75c-3.53,2.16-6.32,5.32-9.05,8.43c0.57-2.91,1.14-5.89,0.68-8.82c-0.46-2.93-2.18-5.84-4.95-6.89
			C232.15,52.59,232.95,66.06,238.11,70.75z"/>
	</g>
</g>
</svg>
