<?xml version="1.0" encoding="UTF-8" standalone="no"?>
<!-- Generator: Adobe Illustrator 24.1.2, SVG Export Plug-In . SVG Version: 6.00 Build 0)  -->

<svg
   xmlns:dc="http://purl.org/dc/elements/1.1/"
   xmlns:cc="http://creativecommons.org/ns#"
   xmlns:rdf="http://www.w3.org/1999/02/22-rdf-syntax-ns#"
   xmlns:svg="http://www.w3.org/2000/svg"
   xmlns="http://www.w3.org/2000/svg"
   xmlns:xlink="http://www.w3.org/1999/xlink"
   xmlns:sodipodi="http://sodipodi.sourceforge.net/DTD/sodipodi-0.dtd"
   xmlns:inkscape="http://www.inkscape.org/namespaces/inkscape"
   version="1.1"
   id="Layer_1"
   x="0px"
   y="0px"
   viewBox="0 0 248.58 754.13"
   style="enable-background:new 0 0 248.58 754.13;"
   xml:space="preserve"
   sodipodi:docname="bus_foreground_left.svg"
   inkscape:version="0.92.5 (2060ec1f9f, 2020-04-08)"><metadata
   id="metadata93"><rdf:RDF><cc:Work
       rdf:about=""><dc:format>image/svg+xml</dc:format><dc:type
         rdf:resource="http://purl.org/dc/dcmitype/StillImage" /></cc:Work></rdf:RDF></metadata><defs
   id="defs91" /><sodipodi:namedview
   pagecolor="#ffffff"
   bordercolor="#666666"
   borderopacity="1"
   objecttolerance="10"
   gridtolerance="10"
   guidetolerance="10"
   inkscape:pageopacity="0"
   inkscape:pageshadow="2"
   inkscape:window-width="2276"
   inkscape:window-height="1278"
   id="namedview89"
   showgrid="false"
   inkscape:zoom="2.5035471"
   inkscape:cx="97.797067"
   inkscape:cy="231.65387"
   inkscape:window-x="134"
   inkscape:window-y="55"
   inkscape:window-maximized="0"
   inkscape:current-layer="g84" />
<style
   type="text/css"
   id="style2">
	.st0{clip-path:url(#SVGID_2_);}
	.st1{fill:url(#SVGID_3_);}
	.st2{fill:url(#SVGID_4_);}
	.st3{fill:url(#SVGID_5_);}
	.st4{fill:url(#SVGID_6_);}
	.st5{fill:url(#SVGID_7_);}
	.st6{fill:url(#SVGID_8_);}
	.st7{fill:url(#SVGID_9_);}
	.st8{fill:url(#SVGID_10_);}
</style>
<g
   id="g86">
	<defs
   id="defs5">
		<rect
   id="SVGID_1_"
   x="0.11"
   width="248.47"
   height="754.33" />
	</defs>
	<clipPath
   id="SVGID_2_">
		<use
   xlink:href="#SVGID_1_"
   style="overflow:visible;"
   id="use7" />
	</clipPath>
	<g
   class="st0"
   clip-path="url(#SVGID_2_)"
   id="g32">
		<g
   id="g30">
			<g
   id="g19">
				<g
   id="g17">
					<linearGradient
   id="SVGID_3_"
   gradientUnits="userSpaceOnUse"
   x1="57.549"
   y1="566.521"
   x2="57.549"
   y2="482.476">
						<stop
   offset="0"
   style="stop-color:#070B0E"
   id="stop10" />
						<stop
   offset="1"
   style="stop-color:#3D4649"
   id="stop12" />
					</linearGradient>
					<path
   class="st1"
   d="M119.26,493.86C99.31,482.7,88.87,482.1,60.5,482.59H54.6c-28.38-0.49-38.81,0.11-58.76,11.27       s-34.94,43.07-34.86,67.85l11.3,4.81H139.9l14.22-4.81C154.19,536.93,139.21,505.02,119.26,493.86z M119.59,538.17       c-21.15-2.9-35.83-3.24-61.68-3.21h-1.52c-25.84-0.03-40.53,0.31-61.68,3.21c-3.58,0.49-11.56,1.98-12.85-1.51l1.32-6.09       c4.47-11.13,12.25-20.42,22.53-26.18c16.76-9.37,25.52-9.88,49.36-9.47h4.95c23.84-0.41,32.6,0.09,49.36,9.47       c10.47,5.86,18.35,15.39,22.78,26.79l0.27,5.47C131.14,540.14,123.16,538.66,119.59,538.17z"
   id="path15" />
				</g>
			</g>
			<g
   id="g28">
				
					<radialGradient
   id="SVGID_4_"
   cx="57.8101"
   cy="652.3307"
   r="222.7549"
   gradientTransform="matrix(1 0 0 1.5856 0 -382.0261)"
   gradientUnits="userSpaceOnUse">
					<stop
   offset="0"
   style="stop-color:#3D4649"
   id="stop21" />
					<stop
   offset="1"
   style="stop-color:#070B0E"
   id="stop23" />
				</radialGradient>
				<path
   class="st2"
   d="M-71.34,756.44c-2.5-25.74-3.4-81.05-2.71-106.91c0.74-27.51,4.06-56.93,21.85-77.93      c8.78-10.6,26.68-16.48,40.31-18.46c22.86-3.32,45.96-4.97,69.05-4.92h1.28c23.1-0.05,46.2,1.59,69.05,4.92      c13.63,1.98,31.52,7.86,40.31,18.46c17.79,21,21.12,50.42,21.85,77.93c0.69,25.85-0.21,81.17-2.71,106.91H-71.34z"
   id="path26" />
			</g>
		</g>
	</g>
	<g
   class="st0"
   clip-path="url(#SVGID_2_)"
   id="g84">
		<g
   id="g52">
			<g
   id="g41">
				<linearGradient
   id="SVGID_5_"
   gradientUnits="userSpaceOnUse"
   x1="-25.7409"
   y1="738.7686"
   x2="-25.7409"
   y2="624.4785">
					<stop
   offset="0"
   style="stop-color:#3D4649"
   id="stop34" />
					<stop
   offset="1"
   style="stop-color:#070B0E"
   id="stop36" />
				</linearGradient>
				<path
   class="st3"
   d="M58.17,562.06c-27.13-15.18-41.32-16-79.91-15.33h-8.02c-38.59-0.67-52.78,0.15-79.91,15.33      s-47.51,58.57-47.41,92.27l15.36,6.54H86.24l19.34-6.54C105.68,620.62,85.3,577.23,58.17,562.06z M58.62,622.3      c-28.76-3.94-48.73-4.4-83.87-4.36h-2.07c-35.14-0.04-55.11,0.42-83.87,4.36c-4.87,0.67-15.71,2.69-17.47-2.05l1.8-8.29      c6.07-15.14,16.66-27.77,30.64-35.6c22.79-12.75,34.71-13.44,67.12-12.87h6.73c32.41-0.56,44.33,0.13,67.12,12.87      c14.24,7.97,24.96,20.93,30.97,36.44l0.37,7.44C74.34,624.99,63.49,622.97,58.62,622.3z"
   id="path39" />
			</g>
			<g
   id="g50">
				
					<radialGradient
   id="SVGID_6_"
   cx="-25.3858"
   cy="777.5538"
   r="302.9173"
   gradientTransform="matrix(1 0 0 1.5856 0 -455.3608)"
   gradientUnits="userSpaceOnUse">
					<stop
   offset="0"
   style="stop-color:#3D4649"
   id="stop43" />
					<stop
   offset="1"
   style="stop-color:#070B0E"
   id="stop45" />
				</radialGradient>
				<path
   class="st4"
   d="M-201.01,919.13c-3.39-35.01-4.62-110.22-3.68-145.38c1-37.41,5.52-77.42,29.72-105.97      c11.95-14.42,36.29-22.41,54.82-25.11c31.08-4.52,62.5-6.76,93.91-6.69h1.73c31.41-0.07,62.82,2.17,93.91,6.69      c18.53,2.69,42.87,10.69,54.82,25.11c24.2,28.55,28.72,68.56,29.72,105.97c0.94,35.16-0.29,110.38-3.68,145.38H-201.01z"
   id="path48" />
			</g>
		</g>
		<linearGradient
   id="SVGID_7_"
   gradientUnits="userSpaceOnUse"
   x1="71.8437"
   y1="603.7188"
   x2="71.8437"
   y2="571.8116">
			<stop
   offset="0"
   style="stop-color:#070B0E"
   id="stop54" />
			<stop
   offset="1"
   style="stop-color:#3D4649"
   id="stop56" />
		</linearGradient>
		
		<linearGradient
   id="SVGID_8_"
   gradientUnits="userSpaceOnUse"
   x1="89.3769"
   y1="603.7188"
   x2="89.3769"
   y2="571.8116">
			<stop
   offset="0"
   style="stop-color:#070B0E"
   id="stop61" />
			<stop
   offset="1"
   style="stop-color:#3D4649"
   id="stop63" />
		</linearGradient>
		
		<linearGradient
   id="SVGID_9_"
   gradientUnits="userSpaceOnUse"
   x1="92.6262"
   y1="277.8931"
   x2="116.2482"
   y2="277.8931">
			<stop
   offset="0"
   style="stop-color:#60462E"
   id="stop68" />
			<stop
   offset="0.5905"
   style="stop-color:#A1885E"
   id="stop70" />
			<stop
   offset="1"
   style="stop-color:#B39F72"
   id="stop72" />
		</linearGradient>
		
		
			<linearGradient
   id="SVGID_10_"
   gradientUnits="userSpaceOnUse"
   x1="-3746.8447"
   y1="3535.5774"
   x2="-3746.8447"
   y2="3503.6702"
   gradientTransform="matrix(6.123234e-17 1 -1 6.123234e-17 3624.061 4322.7861)">
			<stop
   offset="0"
   style="stop-color:#070B0E"
   id="stop77" />
			<stop
   offset="1"
   style="stop-color:#3D4649"
   id="stop79" />
		</linearGradient>
		
	</g>
</g>
</svg>