<?xml version="1.0" encoding="utf-8"?>
<!-- Generator: Adobe Illustrator 24.1.2, SVG Export Plug-In . SVG Version: 6.00 Build 0)  -->
<svg version="1.1" id="Layer_1" xmlns="http://www.w3.org/2000/svg" xmlns:xlink="http://www.w3.org/1999/xlink" x="0px" y="0px"
	 viewBox="0 0 452.02 426.42" style="enable-background:new 0 0 452.02 426.42;" xml:space="preserve">
<style type="text/css">
	.st0{fill:url(#SVGID_1_);}
	.st1{fill:url(#SVGID_2_);}
	.st2{fill:url(#SVGID_3_);}
	.st3{fill:url(#SVGID_4_);}
	.st4{fill:url(#SVGID_5_);}
	.st5{fill:url(#SVGID_6_);}
	.st6{fill:url(#SVGID_7_);}
	.st7{fill:url(#SVGID_8_);}
</style>
<g>
	<linearGradient id="SVGID_1_" gradientUnits="userSpaceOnUse" x1="74.0595" y1="239.3032" x2="161.6701" y2="341.0042">
		<stop  offset="0" style="stop-color:#0D1221"/>
		<stop  offset="1" style="stop-color:#171E35"/>
	</linearGradient>
	<path class="st0" d="M38.81,426.31L0,384.17l214.91-197.88c0,0,33.51,8.08,38.37,42.55L38.81,426.31z"/>
	<linearGradient id="SVGID_2_" gradientUnits="userSpaceOnUse" x1="204.1022" y1="396.8559" x2="446.8667" y2="396.8559">
		<stop  offset="0" style="stop-color:#B5B5B5"/>
		<stop  offset="0.255" style="stop-color:#E7E6E6"/>
	</linearGradient>
	<path class="st1" d="M445.67,378.6c0,0-10.49,18.46,1.2,39.24H205.3l-1.2-41.97L445.67,378.6z"/>
	<linearGradient id="SVGID_3_" gradientUnits="userSpaceOnUse" x1="192.9503" y1="396.8297" x2="452.0161" y2="396.8297">
		<stop  offset="0" style="stop-color:#602A29"/>
		<stop  offset="1" style="stop-color:#7D3C38"/>
	</linearGradient>
	<path class="st2" d="M207.97,393.25c0-1.67,0-3.54,0-5.57c0-9.89,8.02-9.09,8.02-9.09h236.02v-11.36H213.81
		c-4.49,0-7.61,1.3-9.78,3.18v0c0,0-0.01,0.01-0.01,0.01c-0.19,0.16-0.37,0.33-0.54,0.5c-0.02,0.02-0.04,0.04-0.06,0.06
		c-0.09,0.1-0.2,0.19-0.29,0.29c-4.05,4.09-19.72,22.63-1.68,48.83c1.98,3.42,5.64,6.31,12.36,6.31h238.21v-11.36H215.99
		c0,0-8.02,0.8-8.02-9.09c0-2.03,0-3.9,0-5.57C207.97,400.41,207.97,397.55,207.97,393.25z"/>
	<linearGradient id="SVGID_4_" gradientUnits="userSpaceOnUse" x1="218.4972" y1="287.8639" x2="437.6607" y2="287.8639">
		<stop  offset="0" style="stop-color:#B5B5B5"/>
		<stop  offset="0.255" style="stop-color:#E7E6E6"/>
	</linearGradient>
	<path class="st3" d="M436.58,269.6c0,0-9.48,18.46,1.08,39.25H219.58l-1.08-41.97L436.58,269.6z"/>
	<linearGradient id="SVGID_5_" gradientUnits="userSpaceOnUse" x1="206.4074" y1="287.8372" x2="440.9455" y2="287.8372">
		<stop  offset="0" style="stop-color:#212623"/>
		<stop  offset="0.9989" style="stop-color:#2E3431"/>
	</linearGradient>
	<path class="st4" d="M221.41,284.26c0-1.67,0-3.54,0-5.57c0-9.89,8.01-9.09,8.01-9.09h211.53v-11.36H227.24
		c-4.49,0-7.6,1.3-9.77,3.18v0c0,0-0.01,0.01-0.01,0.01c-0.19,0.16-0.37,0.33-0.54,0.5c-0.02,0.02-0.04,0.04-0.06,0.06
		c-0.1,0.1-0.2,0.19-0.29,0.29c-4.04,4.09-19.69,22.63-1.67,48.83c1.98,3.42,5.63,6.31,12.34,6.31h213.71v-11.36H229.42
		c0,0-8.01,0.8-8.01-9.09c0-2.03,0-3.9,0-5.57C221.41,291.41,221.41,288.56,221.41,284.26z"/>
	<linearGradient id="SVGID_6_" gradientUnits="userSpaceOnUse" x1="327.2357" y1="367.2374" x2="327.2357" y2="317.43">
		<stop  offset="0" style="stop-color:#3E4C54"/>
		<stop  offset="0.9995" style="stop-color:#54636D"/>
	</linearGradient>
	<path class="st5" d="M451.52,367.24H213.96c0,0-11-4.5-11-24.9c0-20.41,11-24.9,11-24.9h237.56V367.24z"/>
	<linearGradient id="SVGID_7_" gradientUnits="userSpaceOnUse" x1="337.143" y1="138.9124" x2="394.4328" y2="138.9124">
		<stop  offset="0.1025" style="stop-color:#925438"/>
		<stop  offset="0.6449" style="stop-color:#683723"/>
	</linearGradient>
	<path class="st6" d="M394.43,258.3h-57.29V27.88c0,0,28.64-19.18,57.29,0.6V258.3z"/>
	<linearGradient id="SVGID_8_" gradientUnits="userSpaceOnUse" x1="394.4328" y1="129.3173" x2="451.7226" y2="129.3173">
		<stop  offset="0" style="stop-color:#212623"/>
		<stop  offset="0.9989" style="stop-color:#2E3431"/>
	</linearGradient>
	<path class="st7" d="M451.72,258.63h-57.29V8.35c0,0,28.64-19.18,57.29,0.6V258.63z"/>
</g>
</svg>
