<?xml version="1.0" encoding="UTF-8" standalone="no"?>
<svg
   xmlns:dc="http://purl.org/dc/elements/1.1/"
   xmlns:cc="http://creativecommons.org/ns#"
   xmlns:rdf="http://www.w3.org/1999/02/22-rdf-syntax-ns#"
   xmlns:svg="http://www.w3.org/2000/svg"
   xmlns="http://www.w3.org/2000/svg"
   id="svg4595"
   version="1.1"
   viewBox="0 0 787 450"
   height="450mm"
   width="787mm">
  <defs
     id="defs4589" />
  <metadata
     id="metadata4592">
    <rdf:RDF>
      <cc:Work
         rdf:about="">
        <dc:format>image/svg+xml</dc:format>
        <dc:type
           rdf:resource="http://purl.org/dc/dcmitype/StillImage" />
        <dc:title></dc:title>
      </cc:Work>
    </rdf:RDF>
  </metadata>
  <g fill="#007744"
     transform="translate(0,153)"
     id="layer1">
    <path
       id="path5148"
       d="m 168.90662,86.541368 c -1.81632,-0.49053 -2.09123,-0.61414 -3.7163,-1.67104 -1.10881,-0.72114 -1.45646,-0.71312 -3.99202,0.092 -0.82177,0.26095 -3.05608,0.4683 -5.17902,0.48062 -3.11212,0.0181 -3.86121,-0.0797 -4.49952,-0.58742 -1.01573,-0.8079 -1.13996,-1.56443 -0.62653,-3.81548 0.36298,-1.59142 0.5792,-1.99051 1.40858,-2.59998 0.53887,-0.39598 1.37896,-1.07869 1.86686,-1.51714 0.85478,-0.76814 0.88688,-0.86946 0.88179,-2.78256 -0.003,-1.22156 -0.19039,-2.57857 -0.48639,-3.52721 -0.54776,-1.75549 -0.45602,-2.57795 0.44336,-3.97469 0.74246,-1.15303 1.51869,-1.22624 2.81474,-0.26547 1.00928,0.74819 0.93271,0.79838 1.75451,-1.14997 0.50373,-1.19426 1.23854,-1.50426 2.27981,-0.9618 0.43292,0.22552 1.76271,0.49562 2.95509,0.6002 1.8175,0.15942 2.36495,0.0758 3.38656,-0.51726 2.95541,-1.71567 5.33959,-1.19226 6.62672,1.45477 1.58216,3.25378 2.2857,4.42964 2.65037,4.42964 0.12302,0 0.22368,0.13857 0.22368,0.30794 0,0.16937 -0.78589,0.49696 -1.74641,0.728 -0.96053,0.23104 -2.28841,0.55435 -2.95084,0.71848 -1.43231,0.3549 -3.53811,1.4263 -4.07375,2.07268 -0.21044,0.25395 -0.38262,0.81643 -0.38262,1.24995 0,0.63155 0.34715,1.03348 1.74642,2.02195 2.58245,1.82431 7.11626,4.08474 8.97295,4.47363 0.26497,0.0555 1.75545,0.1 3.31217,0.0988 1.55671,-0.001 2.83039,0.12486 2.83039,0.28002 0,0.15516 -0.45976,0.9057 -1.02169,1.66785 l -1.02169,1.38572 -2.53136,0.20746 c -1.39225,0.11409 -3.39854,0.45996 -4.45844,0.76859 -2.5992,0.75688 -5.42777,0.88249 -7.46742,0.33167 z"
       style="stroke-width:0.29046667" />
    <path
       id="path5154"
       d="m 735.53015,130.51867 c 3.139,-0.42494 12.38477,-1.61808 20.54616,-2.65141 19.69553,-2.4937 37.89284,-5.17065 49.08249,-7.22038 6.85872,-1.2564 11.36901,-1.74532 18.12058,-1.96426 l 8.98894,-0.29149 v -2.00973 c 0,-1.69791 -0.22138,-2.06176 -1.42681,-2.34513 -0.78475,-0.18447 -1.42682,-0.57137 -1.42682,-0.85976 0,-0.2884 -0.40593,-0.52436 -0.90205,-0.52436 -0.49614,0 -2.2563,-0.8419 -3.91148,-1.87089 -1.65518,-1.02899 -3.20474,-1.87087 -3.44345,-1.87087 -0.23872,0 -2.26674,-1.0572 -4.50674,-2.34931 -2.24,-1.29212 -4.61671,-2.50098 -5.28158,-2.68635 -0.66488,-0.18536 -1.6678,-0.81198 -2.22868,-1.39247 -0.56091,-0.58047 -1.38318,-1.05542 -1.8273,-1.05542 -0.44412,0 -1.88108,-0.67826 -3.19323,-1.507262 -1.31216,-0.82899 -4.82559,-2.62651 -7.80764,-3.99449 -2.98206,-1.36795 -6.70603,-3.32986 -8.27555,-4.35978 -1.56948,-1.02991 -4.39459,-2.6026 -6.27799,-3.49483 -1.88339,-0.89222 -4.23071,-2.16087 -5.21627,-2.81921 -0.98552,-0.65831 -2.5265,-1.61817 -3.42435,-2.13299 -3.38508,-1.94099 -5.64178,-3.7156 -6.0571,-4.76308 -0.23627,-0.5959 -0.95283,-1.21161 -1.59236,-1.36824 -1.06555,-0.26099 -3.01196,-2.88412 -3.08529,-4.15796 -0.0172,-0.294 -0.73673,-1.55207 -1.59955,-2.79572 -0.86284,-1.24364 -1.56878,-2.58527 -1.56878,-2.98143 0,-0.76583 -2.49817,-6.95563 -3.43642,-8.51453 -0.30727,-0.51048 -0.55799,-1.59295 -0.55718,-2.4054 0.002,-1.80462 -1.38016,-7.74589 -2.89254,-12.43531 -0.6163,-1.91096 -1.11684,-3.84734 -1.1123,-4.30303 0.003,-0.45569 -0.31275,-1.13011 -0.70514,-1.4987 -0.93289,-0.87633 -0.84136,-13.4066 0.10196,-13.95262 0.38658,-0.22376 0.77906,-3.10957 0.99322,-7.30298 0.29014,-5.68116 0.19198,-7.2666199 -0.54361,-8.7803499 -0.49372,-1.01603 -1.07425,-3.38712 -1.29005,-5.26913 -0.35345,-3.08229 -0.29626,-3.38725 0.57645,-3.07358 0.53287,0.1915 1.151,0.34819 1.37364,0.34819 0.22264,0 2.06363,1.1998 4.09109,2.66626 5.88805,4.25873 12.0921,8.3242599 14.5445,9.5310299 1.24768,0.61397 2.87332,1.72887 3.61255,2.47758 0.73922,0.74872 1.67087,1.36131 2.07033,1.36131 0.39948,0 1.06852,0.38619 1.48675,0.85818 0.57176,0.64524 6.29832,3.41812 7.05911,3.41812 0.37588,0 -0.37868,-23.1731599 -0.82676,-25.3905999 -0.29705,-1.46998 -0.67801,-3.52484 -0.84659,-4.56631 -0.18011,-1.1128701 -1.4543,-3.3214801 -3.09027,-5.3565701 -2.63376,-3.27629 -4.37649,-4.87863 -15.09142,-13.87552 -6.31107,-5.29916 -7.32529,-6.55571 -7.66903,-9.50156 -0.16132,-1.38279 -0.64212,-2.98863 -1.06836,-3.56854 -0.75707,-1.03002 -1.06862,-2.95465 -0.47826,-2.95465 0.74015,0 4.71914,2.7178 6.26664,4.28035 0.94171,0.95083 4.53728,3.98769 7.99018,6.74856 3.45289,2.76085 7.48823,5.99073 8.96743,7.17751 6.71623,5.38848 18.70987,12.2623 21.39564,12.2623 0.41011,0 1.70404,0.4811 2.87537,1.06908 1.17134,0.58798 2.42191,1.06907 2.77902,1.06907 0.35713,0 1.90189,0.52145 3.43281,1.15877 1.53094,0.63733 3.68239,1.19714 4.78104,1.24402 1.09866,0.0469 2.76802,0.2781301 3.70973,0.5138801 1.41209,0.35348 1.58714,0.30408 0.99877,-0.28187 -0.39237,-0.3907301 -0.71341,-1.4717901 -0.71341,-2.4023301 0,-0.93054 -0.46735,-2.26558 -1.03856,-2.9667 -0.5712,-0.70114 -1.9617,-2.84046 -3.08998,-4.75406 -1.12828,-1.91359 -3.42181,-4.82187 -5.09673,-6.46281 -1.67495,-1.64092 -3.82318,-3.80368 -4.77385,-4.80608 -0.9507,-1.00243 -3.48971,-3.14555 -5.64227,-4.76253 -2.15257,-1.61697 -5.09873,-3.93337 -6.54704,-5.14755 -1.4483,-1.21414 -5.07311,-3.35023 -8.05516,-4.74683 -2.98206,-1.39661 -6.49549,-3.22956 -7.80766,-4.07326 -1.31214,-0.84371 -2.61206,-1.534 -2.88868,-1.534 -0.27663,0 -1.04454,-0.47255 -1.70644,-1.05011 -0.66193,-0.57758 -1.94816,-1.35935 -2.85831,-1.73725 -0.91014,-0.37793 -3.85551,-2.90759 -6.54523,-5.6215 -5.0987,-5.1445 -5.21164,-5.36294 -5.9614,-11.53025 -0.32044,-2.63588 0.41244,-5.19515 1.9821,-6.92147 1.47403,-1.62116 3.57173,-1.11414 7.237,1.74921 4.46838,3.49073 4.00168,3.20305 8.43506,5.1998 2.58451,1.16406 4.70099,1.73726 6.41464,1.73726 2.50596,0 2.55736,-0.035 2.55211,-1.73726 -0.003,-0.95549 -0.74681,-2.93997 -1.65304,-4.40994 -1.8062,-2.92986 -10.84643,-11.4926 -12.13346,-11.4926 -0.44253,0 -2.07907,-1.21597 -3.63677,-2.70216 -1.5577,-1.48619 -4.37315,-3.49571 -6.25653,-4.46559 -11.16005,-5.746978 -14.04425,-7.516648 -17.08856,-10.485078 -1.78959,-1.74498 -3.09188,-3.41807 -2.89397,-3.71798 0.23373,-0.3542 7.49815,-0.54544 20.72961,-0.54571 l 20.36981,-5.3e-4 -3.62821,-1.60759 c -1.99552,-0.88417 -4.35983,-2.0955 -5.254,-2.69184 -0.89417,-0.59633 -2.47181,-1.3539 -3.50587,-1.68349 -1.03405,-0.32958 -3.03581,-1.47963 -4.44837,-2.55566 -1.41255,-1.07603 -3.59557,-2.53395 -4.85118,-3.23982 -5.46323,-3.07127 -13.41207,-9.73588 -13.41207,-11.24517 0,-0.2328 -0.5005,-0.57205 -1.11225,-0.7539 -0.61175,-0.18185 -1.28412,-0.85955 -1.49414,-1.506 -0.21002,-0.64646 -2.17347,-4.66324 -4.36321,-8.92619 -2.39208,-4.65686 -4.09476,-8.70828 -4.26552,-10.14941 -0.15631,-1.31922 -0.52308,-2.81669 -0.81508,-3.32771 -0.29199,-0.51101 -0.67679,-3.64114 -0.85512,-6.95584 -0.17832,-3.31469 -0.57367,-6.7967 -0.87858,-7.7378 -0.34912,-1.07764 -0.35515,-2.06706 -0.0155,-2.67269 0.29593,-0.52889 0.64586,-3.15208 0.77762,-5.82931 l 0.23956,-4.86769 -4.59497,4.50768 c -2.52723,2.47922 -5.36545,5.75831 -6.30715,7.28685 -0.94171,1.52855 -2.16162,3.36774 -2.71095,4.08709 -0.54932,0.71935 -0.99877,1.79991 -0.99877,2.40124 0,0.60132 -0.6606,2.00383 -1.46798,3.11667 -0.80739,1.11284 -1.94866,3.33186 -2.53615,4.93115 -0.58748,1.59928 -1.6919,3.69126 -2.45427,4.64883 -0.76237,0.95758 -1.26579,2.05098 -1.1187,2.42979 0.14717,0.37881 -0.36664,2.18288 -1.14159,4.00905 -1.90138,4.48058 -2.69584,6.91615 -2.69584,8.26455 0,0.61962 -0.35394,1.45806 -0.78651,1.86322 -0.43258,0.40514 -0.96664,1.50477 -1.18681,2.4436 -0.22015,0.93884 -0.59655,1.70697 -0.8364,1.70697 -0.23986,0 -1.78123,2.58584 -3.42529,5.7463 -1.64405,3.16046 -3.87954,6.94901 -4.96776,8.41899 -3.53332,4.77287 -9.34341,17.4853 -9.34341,20.443348 0,0.56003 -0.66213,2.8043 -1.47143,4.98727 -0.8093,2.18296 -1.60444,4.68536 -1.76696,5.56086 -0.16253,0.87551 -0.82442,2.55932 -1.47088,3.74177 -1.03416,1.89163 -1.46572,3.11234 -2.40135,6.79248 -0.12595,0.49541 -0.51282,1.39745 -0.85972,2.00451 -1.28245,2.24433 -0.29943,1.53274 6.98162,-5.05399 1.95636,-1.76977 4.39472,-3.77264 5.41858,-4.45082 1.02386,-0.67815 1.73927,-1.41838 1.58979,-1.64488 -0.31203,-0.47284 2.07512,-2.66301 4.4253,-4.06017 0.87926,-0.52271 1.97512,-1.63221 2.43525,-2.46556 0.46011,-0.83336 1.66691,-1.91568 2.68177,-2.40517 1.01486,-0.48948 2.3282,-1.39559 2.9185,-2.01357 1.06032,-1.11001 1.06859,-1.08305 0.68365,2.22909 -0.21431,1.84398 -0.76151,4.33978 -1.21598,5.54622 -0.45449,1.20645 -0.82633,2.90076 -0.82633,3.7651 0,0.86437 -0.27978,2.06121 -0.62174,2.65965 -0.55244,0.96678 -1.78532,7.66204 -2.63087,14.2871 -0.42587,3.33666 1.93028,10.21241 3.49952,10.21241 1.33632,0 3.86448,-1.47717 4.82114,-2.81696 1.84497,-2.58379 8.61632,-9.13331 9.03615,-8.74012 0.23689,0.22186 -0.10542,1.28932 -0.76091,2.3721 -0.65538,1.08278 -1.37455,2.67565 -1.59814,3.5397 -0.22356,0.86408 -0.87015,2.18705 -1.43682,2.93997 -1.45721,1.93617 -4.03034,6.81379 -4.03034,7.63995 0,0.38161 -0.54408,1.64462 -1.20906,2.80665 -1.41547,2.47351 -2.72735,6.4062 -3.3911,10.16577 -0.25952,1.46997 -0.6471,3.34568 -0.86125,4.16824 -0.27038,1.03854 -0.12681,1.69191 0.47003,2.13815 0.75502,0.56457 1.25308,1.73747 1.97525,4.65164 1.50195,6.06079 1.40688,28.8579201 -0.15718,37.6850301 -1.02716,5.7970999 -2.06127,14.6633699 -2.30677,19.7779199 -0.0987,2.05798 -0.35307,6.20734 -0.5651,9.22081 -0.26168,3.71967 -0.19182,5.47902 0.21755,5.47902 0.33166,0 1.88667,-2.51683 3.45558,-5.59295 3.3051,-6.48023 5.39418,-9.25923 7.29672,-9.70645 0.74431,-0.17497 1.3533,-0.53258 1.3533,-0.7947 0,-0.26213 0.38523,-0.4766 0.85609,-0.4766 0.47084,0 0.85609,0.46104 0.85609,1.02452 0,0.56351 0.26417,1.10702 0.58704,1.20782 0.32287,0.10078 0.81379,3.06748 1.09095,6.59265 0.44355,5.64153 0.86903,8.35128 2.03453,12.95747 0.2967,1.17261 1.42402,1.71564 1.42402,0.68596 0,-0.76589 5.7811,-11.99563 6.35417,-12.34292 0.27044,-0.16388 1.28488,-0.24657 2.25431,-0.1837 4.58548,0.29734 7.01525,5.92476 6.67036,15.44881 -0.20166,5.56842 -0.63736,7.48559 -2.55111,11.22532 -1.98686,3.8826 -6.39492,10.35383 -7.78207,11.42439 -0.52283,0.40349 -0.95057,1.13808 -0.95057,1.6324 0,0.94419 -3.36942,4.31572 -4.31302,4.31572 -0.30193,0 -0.86974,0.48109 -1.26181,1.06908 -0.39206,0.58798 -1.01147,1.06907 -1.37648,1.06907 -0.365,0 -1.16013,0.42095 -1.76698,0.93544 -0.84545,0.71681 -2.65691,1.03026 -7.74974,1.34104 -3.65553,0.22309 -7.71449,0.40283 -9.01993,0.39941 -1.90335,-0.005 -2.63982,0.29025 -3.71793,1.49029 -0.73946,0.82307 -2.49647,2.02317 -3.90449,2.66692 -1.40803,0.64376 -3.48032,1.96663 -4.6051,2.93971 -1.12478,0.97309 -2.66705,2.2392 -3.42725,2.81358 -1.85054,1.39824 -3.11198,3.34036 -3.55865,5.47891 -0.2024,0.969012 -1.07833,2.633512 -1.94652,3.698882 -1.41394,1.73508 -1.57485,2.35947 -1.54333,5.98895 0.0412,4.74456 0.28851,6.2421 1.33124,8.06098 1.37828,2.40429 4.84443,5.3894 8.47862,7.30194 1.96187,1.03249 3.56703,2.07775 3.56703,2.32283 0,0.89966 5.5751,2.1213 11.12916,2.43867 3.13902,0.17936 6.47776,0.5271 7.41946,0.77274 3.41148,0.88985 19.70264,1.02907 25.68271,0.2195 z"
       style="stroke-width:0.55233657" />
    <path
       id="path5148-3"
       d="m 572.48016,67.971268 c 5.1499,-1.0587 5.92938,-1.32548 10.53703,-3.60659 3.14385,-1.55643 4.12955,-1.53913 11.31875,0.19863 2.33003,0.56321 8.66508,1.01073 14.68434,1.03732 8.82396,0.039 10.94788,-0.17208 12.75772,-1.26783 2.87996,-1.74368 3.2322,-3.37651 1.77644,-8.23494 -1.02917,-3.43475 -1.64223,-4.29612 -3.99381,-5.61153 -1.52791,-0.85465 -3.90984,-2.32814 -5.2932,-3.27443 -2.4236,-1.65787 -2.51463,-1.87655 -2.50018,-6.00559 0.009,-2.63649 0.5398,-5.56532 1.37907,-7.61277 1.55311,-3.78886 1.29298,-5.56398 -1.25708,-8.57856 -2.10512,-2.48859 -4.30601,-2.6466 -7.98078,-0.57296 -2.86167,1.61481 -2.64456,1.72313 -4.97464,-2.48198 -1.42825,-2.57757 -3.51169,-3.24664 -6.46406,-2.07586 -1.22748,0.48675 -4.99791,1.06971 -8.37872,1.29542 -5.15327,0.34407 -6.70547,0.1636 -9.60209,-1.11641 -8.37963,-3.70292 -15.13963,-2.57325 -18.78909,3.13984 -4.48598,7.02262 -6.48077,9.56046 -7.51473,9.56046 -0.34881,0 -0.63421,0.29908 -0.63421,0.66463 0,0.36555 2.22826,1.07259 4.9517,1.57125 2.72343,0.49864 6.48843,1.19645 8.36666,1.5507 4.0611,0.76597 10.03179,3.07837 11.55052,4.47344 0.59667,0.54811 1.08485,1.7621 1.08485,2.69777 0,1.36308 -0.98429,2.23055 -4.9517,4.36396 -7.32215,3.93742 -20.1771,8.81608 -25.44148,9.65544 -0.75129,0.1198 -4.97731,0.21577 -9.39116,0.21328 -4.41384,-0.003 -8.02516,0.26948 -8.02516,0.60436 0,0.33489 1.30358,1.95477 2.89686,3.59971 l 2.89685,2.9908 7.17728,0.44775 c 3.94752,0.24625 9.63608,0.99275 12.64125,1.65886 7.36964,1.63357 15.38963,1.90468 21.17277,0.71583 z"
       style="stroke-width:0.71854728" />
    <path
       id="path5154-6"
       d="m 36.540367,134.18859 c -2.939971,-0.42495 -11.5995,-1.61809 -19.243411,-2.65142 -18.4467103,-2.4937 -35.4902,-5.17064 -45.970351,-7.22037 -6.42384,-1.2564 -10.64815,-1.74533 -16.97162,-1.96427 l -8.41899,-0.29149 v -2.00972 c 0,-1.69791 0.20734,-2.06177 1.33635,-2.34514 0.73499,-0.18446 1.33634,-0.57136 1.33634,-0.85976 0,-0.2884 0.38019,-0.52435 0.84486,-0.52435 0.46467,0 2.11323,-0.8419 3.66347,-1.8709 1.55023,-1.02899 3.00153,-1.87086 3.22511,-1.87086 0.22358,0 2.12302,-1.0572 4.22099,-2.34932 2.09796,-1.29212 4.32397,-2.50097 4.94669,-2.68634 0.62272,-0.18537 1.56204,-0.81198 2.08737,-1.39248 0.52534,-0.58047 1.29548,-1.05542 1.71144,-1.05542 0.41596,0 1.7618,-0.67826 2.99075,-1.50725 1.22896,-0.82899 4.51962,-2.62652 7.31259,-3.994492 2.792971,-1.36795 6.28083,-3.32987 7.750821,-4.35978 1.46998,-1.02992 4.1159505,-2.6026 5.8799309,-3.49483 1.763979,-0.89223 3.962458,-2.16088 4.8855178,-2.81922 0.92305102,-0.65831 2.36631102,-1.61816 3.207231,-2.13299 3.170449,-1.94098 5.2840601,-3.71559 5.6730501,-4.76307 0.221279,-0.5959 0.892411,-1.21161 1.4913909,-1.36824 0.997979,-0.26099 2.8209903,-2.88412 2.8896683,-4.15796 0.0159,-0.294 0.690012,-1.55207 1.498131,-2.79572 0.80812,-1.24364 1.4693,-2.58527 1.4693,-2.98143 0,-0.76583 2.339779,-6.95563 3.21854,-8.51453 0.287779,-0.51048 0.5226,-1.59295 0.52184,-2.4054 -0.0021,-1.80462 1.292649,-7.74589 2.709141,-12.43531 0.577228,-1.91096 1.04603,-3.84734 1.04177,-4.30303 -0.004,-0.45569 0.292928,-1.13011 0.660429,-1.4987 0.873739,-0.87633 0.788009,-13.4066 -0.0955,-13.95262 -0.362069,-0.22376 -0.72966,-3.10957 -0.930238,-7.30298 -0.27174,-5.68116 -0.179811,-7.26662 0.509138,-8.78035 0.46242,-1.01603 1.006141,-3.3871199 1.208262,-5.2691299 0.331038,-3.08229 0.277468,-3.38725 -0.539912,-3.07358 -0.49907,0.1915 -1.07801,0.34819 -1.286539,0.34819 -0.20851,0 -1.932781,1.1998 -3.83168,2.66626 -5.514721,4.2587299 -11.3253913,8.3242599 -13.6223002,9.5310299 -1.168562,0.61397 -2.6911301,1.72887 -3.38348108,2.47758 -0.692349,0.74872 -1.56492902,1.36131 -1.93907102,1.36131 -0.374139,0 -1.000749,0.38619 -1.3924778,0.85818 -0.535501,0.64524 -5.8989594,3.41812 -6.6115114,3.41812 -0.35205,0 0.35466,-23.1731599 0.77434,-25.3905999 0.27822,-1.46998 0.635021,-3.52484 0.7929,-4.56631 0.168691,-1.11287 1.3620914,-3.32148 2.8943414,-5.3565701 2.4667608,-3.27629 4.09899882,-4.87863 14.1345208,-13.87552 5.9109183,-5.29916 6.8608203,-6.55571 7.1827683,-9.50156 0.151122,-1.38279 0.6014,-2.98863 1.000611,-3.56854 0.709079,-1.03002 1.000869,-2.95465 0.447951,-2.95465 -0.693233,0 -4.419931,2.7178 -5.869311,4.28035 -0.881992,0.95083 -4.2495822,3.98769 -7.4835423,6.74856 -3.23396,2.76085 -7.01344,5.99073 -8.3988478,7.17751 -6.2903709,5.38848 -17.5235419,12.2623 -20.0390209,12.2623 -0.384111,0 -1.59599,0.4811 -2.693051,1.0690801 -1.09707,0.58798 -2.26834,1.06907 -2.60281,1.06907 -0.33448,0 -1.7813,0.52145 -3.21515,1.15877 -1.43386,0.63733 -3.44891,1.19714 -4.4779,1.24402 -1.02899,0.0469 -2.59251,0.27813 -3.4745,0.51388 -1.32256,0.35348 -1.48651,0.30408 -0.93545,-0.28187 0.3675,-0.39073 0.66818,-1.47179 0.66818,-2.40233 0,-0.93054 0.43772,-2.2655801 0.97271,-2.9667001 0.53499,-0.70114 1.83731,-2.84046 2.89405,-4.75406 1.05674,-1.91359 3.20485,-4.82187 4.77358,-6.46281 1.56874,-1.64092 3.58076,-3.80368 4.471161,-4.80608 0.8904,-1.00243 3.26843,-3.14555 5.28451,-4.76253 2.01608,-1.61697 4.775441,-3.93337 6.131909,-5.14755 1.356461,-1.21414 4.751451,-3.35023 7.5444185,-4.74683 2.7929714,-1.39661 6.0836312,-3.22956 7.3125912,-4.07326 1.22895002,-0.84371 2.446452,-1.534 2.705532,-1.534 0.259088,0 0.9782991,-0.47255 1.5982501,-1.05011 0.61994,-0.57758 1.8246189,-1.35935 2.6770589,-1.73725 0.8524401,-0.37793 3.611049,-2.90759 6.1302293,-5.6215 4.775412,-5.1445 4.88119,-5.36294 5.58341,-11.53025 0.30013,-2.63588 -0.3863,-5.19515 -1.856431,-6.92147 -1.380569,-1.62116 -3.345248,-1.11414 -6.7781193,1.74921 -4.18506,3.49073 -3.747958,3.20305 -7.90021998,5.1998 -2.42065002,1.16406 -4.40292882,1.73726 -6.00792082,1.73726 -2.3470584,0 -2.3951984,-0.035 -2.3902884,-1.73726 0.003,-0.95549 0.6994614,-2.93997 1.5482204,-4.40994 1.69168,-2.92986 10.1587088,-11.4926 11.3641188,-11.4926 0.41447,0 1.9472511,-1.21597 3.40618,-2.70216 1.4589413,-1.48619 4.0958613,-3.49571 5.8598403,-4.46559 10.452421,-5.74698 13.15375,-7.51665 16.00503,-10.485078 1.676122,-1.74498 2.89583,-3.41807 2.710482,-3.71798 -0.218911,-0.3542 -7.022722,-0.54544 -19.415231,-0.54571 l -19.0782311,-5.3e-4 3.3981598,-1.60759 c 1.86899002,-0.88417 4.0833811,-2.0955 4.9208501,-2.69184 0.837481,-0.59634 2.3150909,-1.35391 3.28358,-1.6835 0.968491,-0.32958 2.8433319,-1.47963 4.1663202,-2.55566 1.32298,-1.07603 3.36759,-2.53395 4.543581,-3.23981 5.11683,-3.07127 12.56167,-9.73588 12.56167,-11.24517 0,-0.23279 0.468771,-0.57205 1.041731,-0.7539 0.57295,-0.18184 1.202679,-0.85955 1.399389,-1.506 0.19671,-0.64645 2.035659,-4.66324 4.086551,-8.92618 2.240409,-4.65687 3.835138,-8.70829 3.99506,-10.14941 0.146389,-1.31923 0.489918,-2.8167 0.7634,-3.32771 0.273489,-0.51101 0.633888,-3.64114 0.800909,-6.95584 0.16701,-3.3147 0.5373,-6.79671 0.82286,-7.7378 0.32699,-1.07764 0.33265,-2.06707 0.01529,-2.6727 -0.277162,-0.52889 -0.604901,-3.15208 -0.728311,-5.82931 l -0.224369,-4.86769 4.30363,4.50768 c 2.366989,2.47923 5.025249,5.75831 5.907239,7.28686 0.88199,1.52854 2.02456,3.36773 2.53906,4.08709 0.51449,0.71934 0.93544,1.7999 0.93544,2.40123 0,0.60133 0.61871,2.00383 1.37491,3.11667 0.75619,1.11285 1.82509,3.33186 2.37533,4.93115 0.55023,1.59929 1.58463,3.69126 2.29866,4.64884 0.71403,0.95757 1.18552,2.05098 1.04777,2.42979 -0.13776,0.37881 0.34338,2.18288 1.0692,4.00904 1.78082,4.48059 2.52491,6.91615 2.52491,8.26455 0,0.61962 0.33149,1.45807 0.73664,1.86322 0.40515,0.40515 0.90535,1.50477 1.11155,2.44361 0.2062,0.93883 0.55872,1.70697 0.78337,1.70697 0.22465,0 1.6683,2.58583 3.20811,5.74629 1.5398,3.16046 3.63355,6.949 4.65277,8.41899 3.30929,4.77286 8.75097,17.485298 8.75097,20.443348 0,0.56003 0.62016,2.8043 1.37814,4.98727 0.75798,2.18296 1.5027,4.68536 1.65492,5.56086 0.15222,0.87551 0.77215,2.55932 1.37762,3.74177 0.96859,1.89163 1.37278,3.11234 2.24909,6.79248 0.11797,0.49541 0.48031,1.39745 0.80521,2.00451 1.20113,2.24433 0.28044,1.53274 -6.53895,-5.05399 -1.8323,-1.76977 -4.11605,-3.77264 -5.075,-4.45082 -0.95894,-0.67815 -1.62899,-1.41838 -1.48899,-1.64488 0.29224,-0.47284 -1.94354,-2.66301 -4.1447,-4.06017 -0.82352,-0.52271 -1.84989,-1.63221 -2.28084,-2.46556 -0.43095,-0.83336 -1.56123,-1.91568 -2.51174,-2.40517 -0.95051,-0.48948 -2.18057,-1.39559 -2.73345,-2.01357 -0.99309,-1.11001 -1.00083,-1.08305 -0.64029,2.22909 0.20072,1.84398 0.71322,4.33978 1.13888,5.54622 0.42566,1.20645 0.77393,2.90076 0.77393,3.7651 0,0.86437 0.26204,2.06121 0.58232,2.65965 0.51741,0.96678 1.67212,7.66204 2.46406,14.2871 0.39886,3.33666 -1.80789,10.21241 -3.27763,10.21241 -1.2516,0 -3.61945,-1.47717 -4.51546,-2.81696 -1.72799,-2.58379 -8.06999,-9.13331 -8.4632,-8.74012 -0.22186,0.22186 0.0988,1.28932 0.71267,2.3721 0.61383,1.08278 1.28739,2.67565 1.4968,3.5397 0.2094,0.86408 0.81498,2.18705 1.34572,2.93997 1.36482,1.93617 3.77479,6.81379 3.77479,7.63995 0,0.38161 0.50958,1.64462 1.1324,2.80665 1.32572,2.47351 2.55441,6.4062 3.17609,10.16577 0.24307,1.46997 0.60606,3.34568 0.80663,4.16824 0.25324,1.03854 0.11871,1.69191 -0.44023,2.13815 -0.70714,0.56457 -1.17362,1.73747 -1.85,4.65164 -1.40672,6.06079 -1.31768,28.8579201 0.14718,37.68503 0.96203,5.7971 1.93057,14.66337 2.16051,19.77792 0.0925,2.05798 0.33069,6.20734 0.52926,9.22081 0.24509,3.71967 0.17966,5.47902 -0.20375,5.47902 -0.31063,0 -1.76704,-2.51683 -3.23647,-5.59295 -3.09554,-6.48023 -5.05216,-9.25923 -6.83406,-9.70645 -0.69712,-0.17497 -1.26749,-0.53258 -1.26749,-0.7947 0,-0.26213 -0.36081,-0.4766 -0.80181,-0.4766 -0.441,0 -0.80181,0.46104 -0.80181,1.02452 0,0.56351 -0.24742,1.10702 -0.54982,1.20782 -0.3024,0.10078 -0.7622,3.06748 -1.02178,6.59265 -0.41542,5.64153 -0.81392,8.35128 -1.90552,12.95747 -0.27789,1.17261 -1.33373,1.71564 -1.33373,0.68596 0,-0.76589 -5.414549,-11.99563 -5.951278,-12.34292 -0.253291,-0.16388 -1.203412,-0.24657 -2.111372,-0.1837 -4.294738,0.29734 -6.570448,5.92476 -6.247408,15.44881 0.188868,5.56842 0.59694,7.48559 2.389338,11.22532 1.860881,3.8826 5.98945,10.35383 7.288652,11.42439 0.48967,0.40349 0.890289,1.13808 0.890289,1.6324 0,0.94419 3.155769,4.31572 4.039549,4.31572 0.28278,0 0.81459,0.48109 1.1818,1.06907 0.3672,0.58799 0.94734,1.06908 1.2892,1.06908 0.34186,0 1.08658,0.42095 1.65494,0.93543 0.79184,0.71681 2.48844,1.03026 7.25836,1.34104 3.42375,0.2231 7.22535,0.40283 8.44801,0.39942 1.78266,-0.005 2.47244,0.29025 3.4822,1.49029 0.69256,0.82307 2.33817,2.02316 3.65692,2.66692 1.31875,0.64376 3.25964,1.96662 4.3131,2.93971 1.05347,0.97308 2.49794,2.23919 3.20994,2.81358 1.73321,1.39824 2.91467,3.340362 3.33302,5.478912 0.18956,0.96901 1.00995,2.6335 1.82309,3.69887 1.32429,1.73509 1.47499,2.35948 1.44547,5.98895 -0.0386,4.74456 -0.27022,6.2421 -1.24682,8.06098 -1.2909,2.4043 -4.53727,5.38941 -7.94102,7.30195 -1.83748,1.03248 -3.34087,2.07774 -3.34087,2.32283 0,0.89966 -5.2216,2.12129 -10.42351,2.43866 -2.93997,0.17936 -6.06702,0.5271 -6.94901,0.77274 -3.19518,0.88985 -18.453369,1.02907 -24.05426,0.2195 z"
       style="stroke-width:0.53453904" />
    <path
       id="path5154-7"
       d="m 664.54956,112.5347 c -1.27422,-0.21647 -5.02737,-0.82429 -8.34034,-1.35069 -7.99504,-1.27034 -15.3819,-2.63403 -19.92414,-3.6782 -2.78417,-0.64003 -4.61504,-0.88911 -7.35571,-1.00064 l -3.6489,-0.14847 v -1.02381 c 0,-0.86495 0.0899,-1.05031 0.57919,-1.19466 0.31855,-0.094 0.57919,-0.29106 0.57919,-0.43797 0,-0.14692 0.16478,-0.26712 0.36617,-0.26712 0.2014,0 0.91591,-0.42889 1.5878,-0.95308 0.67189,-0.52419 1.3009,-0.95305 1.3978,-0.95305 0.0969,0 0.92014,-0.53856 1.82943,-1.19678 0.90929,-0.658232 1.87407,-1.274062 2.14396,-1.368492 0.2699,-0.0944 0.67701,-0.41364 0.90469,-0.70935 0.22769,-0.29571 0.56148,-0.53764 0.74176,-0.53764 0.18028,0 0.76359,-0.34554 1.29623,-0.76784 0.53265,-0.4223 1.95886,-1.33799 3.16937,-2.03487 1.21051,-0.69686 2.72219,-1.6963 3.35931,-2.22096 0.6371,-0.52465 1.7839,-1.32582 2.54843,-1.78034 0.76453,-0.4545 1.71738,-1.10078 2.11745,-1.43616 0.40006,-0.33536 1.02559,-0.82433 1.39005,-1.08659 1.37412,-0.98878 2.29018,-1.8928 2.45877,-2.42641 0.0959,-0.30356 0.38679,-0.61721 0.64639,-0.697 0.43254,-0.13296 1.22265,-1.46923 1.25242,-2.11815 0.007,-0.14977 0.29906,-0.79065 0.64931,-1.42419 0.35025,-0.63354 0.63681,-1.317 0.63681,-1.51881 0,-0.39013 1.01409,-3.54333 1.39496,-4.33747 0.12473,-0.26005 0.2265,-0.81148 0.22617,-1.22536 -8.1e-4,-0.91931 0.56025,-3.94591 1.17418,-6.33479 0.25017,-0.97348 0.45336,-1.95991 0.45151,-2.19205 -10e-4,-0.23214 0.12696,-0.5757 0.28624,-0.76347 0.37869,-0.44642 0.34154,-6.82959 -0.0414,-7.10774 -0.15692,-0.11399 -0.31624,-1.58408 -0.40318,-3.72029 -0.11777,-2.89409 -0.0779,-3.70176 0.22067,-4.47288 0.20042,-0.51759 0.43607,-1.72547 0.52367,-2.6842 0.14348,-1.57018 0.12027,-1.72553 -0.23399,-1.56574 -0.21631,0.0975 -0.46723,0.17737 -0.55761,0.17737 -0.0904,0 -0.83769,0.6112 -1.6607,1.35825 -2.39015,2.16948 -4.90857,4.24054 -5.90407,4.85529 -0.50648,0.31277 -1.16638,0.88072 -1.46645,1.26213 -0.30007,0.38142 -0.67826,0.69348 -0.84041,0.69348 -0.16217,0 -0.43375,0.19673 -0.60352,0.43717 -0.2321,0.3287 -2.55669,1.74126 -2.86552,1.74126 -0.15258,0 0.15372,-11.80487 0.33561,-12.93447 0.12058,-0.74884 0.27522,-1.79563 0.34366,-2.32617 0.0731,-0.56692 0.59034,-1.69203 1.25443,-2.72875 1.06913,-1.66901 1.77656,-2.48527 6.12609,-7.06846 2.56186,-2.6995 2.97357,-3.33961 3.1131,-4.84029 0.0655,-0.70442 0.26066,-1.52247 0.43368,-1.81788 0.30732,-0.52472 0.43379,-1.50516 0.19414,-1.50516 -0.30045,0 -1.91564,1.3845 -2.54382,2.18049 -0.38227,0.48438 -1.84183,2.03141 -3.24347,3.43786 -1.40164,1.40643 -3.03971,3.05179 -3.64016,3.65636 -2.72633,2.745 -7.59493,6.24666 -8.68517,6.24666 -0.16648,0 -0.69173,0.24508 -1.1672,0.54461 -0.47549,0.29953 -0.98313,0.54461 -1.1281,0.54461 -0.14497,0 -0.77203,0.26564 -1.39348,0.5903 -0.62146,0.32467 -1.4948,0.60985 -1.94078,0.63373 -0.44598,0.0239 -1.12363,0.14168 -1.5059,0.26178 -0.57321,0.18007 -0.64427,0.1549 -0.40543,-0.14359 0.15928,-0.19905 0.2896,-0.74976 0.2896,-1.2238 0,-0.47403 0.18971,-1.15413 0.42158,-1.51129 0.23187,-0.35718 0.79632,-1.44699 1.25432,-2.42182 0.45801,-0.97482 1.38902,-2.45635 2.06893,-3.29228 0.67991,-0.83592 1.55195,-1.93767 1.93785,-2.44831 0.38592,-0.51066 1.41659,-1.60241 2.29038,-2.42613 0.8738,-0.82372 2.06974,-2.00374 2.65765,-2.62227 0.58791,-0.6185 2.05934,-1.70667 3.26984,-2.41813 1.21052,-0.71146 2.63673,-1.6452 3.16938,-2.075 0.53264,-0.4298 1.06032,-0.78145 1.17261,-0.78145 0.11229,0 0.42401,-0.24072 0.69269,-0.53494 0.2687,-0.29423 0.79082,-0.69248 1.16028,-0.88499 0.36946,-0.19253 1.56508,-1.48119 2.65692,-2.86371 2.06972,-2.62071 2.11557,-2.73199 2.41992,-5.8737399 0.13008,-1.34277 -0.16742,-2.64651 -0.8046,-3.52593 -0.59835,-0.82585 -1.44988,-0.56757 -2.93772,0.89108 -1.81386,1.77825 -1.62441,1.6317 -3.42406,2.64888 -1.04914,0.5929999 -1.90828,0.8849999 -2.60391,0.8849999 -1.01725,0 -1.03811,-0.0178 -1.03598,-0.8849999 10e-4,-0.48674 0.30315,-1.49768 0.67102,-2.24651 0.7332,-1.49253 4.40291,-5.85456 4.92536,-5.85456 0.17963,0 0.84396,-0.61944 1.47628,-1.37653 0.63232,-0.7571 1.7752,-1.78079 2.53972,-2.27486 4.53022,-2.92763 5.70101,-3.82914 6.93679,-5.34131 0.72645,-0.88893 1.25509,-1.74123 1.17475,-1.89402 -0.0949,-0.18044 -3.04373,-0.27786 -8.4148,-0.278 l -8.26875,-2.7e-4 1.4728,-0.8189301 c 0.81005,-0.45041 1.76979,-1.06749 2.13277,-1.37128 0.36297,-0.30378 1.00338,-0.6897 1.42314,-0.8576 0.41975,-0.1679 1.23233,-0.75376 1.80573,-1.30191 0.5734,-0.54815 1.45956,-1.29084 1.96925,-1.65042 2.2177,-1.56457 5.44439,-4.95965 5.44439,-5.72852 0,-0.11859 0.20316,-0.29141 0.45149,-0.38405 0.24833,-0.0926 0.52127,-0.43787 0.60652,-0.76719 0.0853,-0.32931 0.88228,-2.37555 1.77117,-4.54717 0.97102,-2.37231 1.66219,-4.43618 1.73151,-5.17032 0.0634,-0.67204 0.21233,-1.43488 0.33086,-1.6952 0.11853,-0.26032 0.27473,-1.85487 0.34712,-3.54344 0.0724,-1.68857 0.23287,-3.46238 0.35665,-3.94179 0.14172,-0.54897 0.14416,-1.05301 0.006,-1.36153 -0.12013,-0.26942 -0.26218,-1.60573 -0.31566,-2.96956 l -0.0972,-2.4797 1.86525,2.2963 c 1.02588,1.26297 2.178,2.9334 2.56027,3.71207 0.38227,0.77867 0.87747,1.71559 1.10046,2.08205 0.22298,0.36644 0.40543,0.9169 0.40543,1.22323 0,0.30633 0.26816,1.02079 0.5959,1.5877 0.32775,0.5669 0.79102,1.69731 1.0295,2.51202 0.23848,0.81471 0.6868,1.8804 0.99627,2.36821 0.30947,0.48781 0.51382,1.04481 0.45412,1.23779 -0.0598,0.19297 0.14883,1.112 0.4634,2.04228 0.77183,2.2825 1.09433,3.52323 1.09433,4.21013 0,0.31564 0.14367,0.74277 0.31927,0.94916 0.1756,0.20639 0.39239,0.76656 0.48176,1.24482 0.0894,0.47826 0.24216,0.86957 0.33952,0.86957 0.0974,0 0.72306,1.31727 1.39044,2.92727 0.66737,1.61001 1.57483,3.53997 2.01657,4.2888 1.43428,2.4314 3.79278,8.9073601 3.79278,10.4142601 0,0.28529 0.26878,1.42857 0.5973,2.54061 0.32852,1.11205 0.6513,2.38682 0.71727,2.83282 0.066,0.446 0.33466,1.30377 0.59708,1.90613 0.41979,0.96363 0.59498,1.58549 0.97478,3.46022 0.0511,0.25238 0.20817,0.71189 0.34899,1.02114 0.52058,1.14331 0.12154,0.78081 -2.83406,-2.5746 -0.79415,-0.90156 -1.78396,-1.92186 -2.19958,-2.26734 -0.41561,-0.34546 -0.70602,-0.72255 -0.64534,-0.83793 0.12666,-0.24088 -0.84236,-1.35659 -1.79637,-2.06833 -0.35692,-0.26628 -0.80177,-0.83148 -0.98855,-1.25601 -0.18677,-0.42453 -0.67665,-0.97589 -1.08861,-1.22524 -0.41197,-0.24935 -0.94509,-0.71094 -1.18471,-1.02575 -0.43042,-0.56547 -0.43378,-0.55173 -0.27752,1.13554 0.087,0.93936 0.30912,2.21077 0.49361,2.82535 0.18449,0.61459 0.33543,1.47771 0.33543,1.91802 0,0.44033 0.11357,1.05002 0.25238,1.35488 0.22426,0.4925 0.72472,3.9032 1.06796,7.2781299 0.17287,1.69976 -0.78356,5.20241 -1.42057,5.20241 -0.54245,0 -1.56871,-0.7525 -1.95705,-1.43502 -0.74893,-1.31623 -3.49764,-4.6526899 -3.66806,-4.45239 -0.0962,0.11302 0.0428,0.65681 0.30888,1.2084 0.26604,0.55159 0.55797,1.36303 0.64873,1.80319 0.0908,0.44018 0.35322,1.11413 0.58325,1.49768 0.59153,0.98632 1.63604,3.47108 1.63604,3.89194 0,0.1944 0.22086,0.83781 0.4908,1.42977 0.57458,1.26005 1.10712,3.26344 1.37656,5.17864 0.10534,0.74883 0.26267,1.70436 0.3496,2.12339 0.10976,0.52905 0.0515,0.86189 -0.1908,1.08921 -0.30648,0.28761 -0.50866,0.88511 -0.80181,2.36964 -0.60969,3.08749 -0.5711,14.7008 0.0638,19.19751 0.41696,2.95316 0.83674,7.46981 0.93639,10.07526 0.0401,1.04838 0.14332,3.16215 0.22939,4.69727 0.10623,1.89487 0.0779,2.79112 -0.0883,2.79112 -0.13463,0 -0.76585,-1.28212 -1.40273,-2.84916 -1.34164,-3.30116 -2.18966,-4.71684 -2.96196,-4.94466 -0.30214,-0.0891 -0.54935,-0.27131 -0.54935,-0.40483 0,-0.13354 -0.15638,-0.24279 -0.34752,-0.24279 -0.19112,0 -0.34751,0.23486 -0.34751,0.52191 0,0.28706 -0.10723,0.56393 -0.2383,0.61528 -0.13106,0.0513 -0.33034,1.56264 -0.44285,3.35843 -0.18005,2.87391 -0.35277,4.25431 -0.82588,6.6008 -0.12044,0.59735 -0.57805,0.87398 -0.57805,0.34944 0,-0.39016 -2.34674,-6.11082 -2.57936,-6.28773 -0.10978,-0.0835 -0.52158,-0.12561 -0.9151,-0.0936 -1.86139,0.15147 -2.84771,3.01819 -2.70771,7.86993 0.0819,2.83666 0.25873,3.81331 1.03558,5.7184 0.80653,1.97787 2.5959,5.27445 3.15899,5.81982 0.21223,0.20554 0.38586,0.57975 0.38586,0.83158 0,0.48098 1.36776,2.1985 1.75079,2.1985 0.12257,0 0.35306,0.24508 0.51221,0.54461 0.15915,0.29953 0.41059,0.54461 0.55876,0.54461 0.14816,0 0.47093,0.21444 0.71727,0.47654 0.3432,0.36516 1.07853,0.52482 3.14587,0.68314 1.48389,0.11365 3.13155,0.20522 3.66147,0.20347 0.77263,-0.003 1.07159,0.14786 1.50923,0.75919 0.30017,0.41928 1.01339,1.03063 1.58495,1.35858 0.57157,0.32794 1.41278,1.00185 1.86936,1.49754 0.45658,0.49573 1.08264,1.14071 1.39123,1.4333 0.75119,0.71229 1.26325,1.70164 1.44457,2.79106 0.0822,0.49364 0.43772,1.34158 0.79015,1.88428 0.57396,0.88389 0.63928,1.20197 0.62649,3.050892 -0.0167,2.41698 -0.11712,3.17985 -0.5404,4.10643 -0.55948,1.2248 -1.9665,2.74547 -3.44174,3.71976 -0.79638,0.52598 -1.44797,1.05844 -1.44797,1.18329 0,0.45831 -2.26311,1.08063 -4.51767,1.24232 -1.27423,0.0913 -2.62953,0.2685 -3.0118,0.39363 -1.38482,0.45333 -7.99792,0.52423 -10.42542,0.11182 z"
       style="stroke-width:0.25117025" />
    <path
       id="path5154-7-5"
       d="m 691.26876,97.479408 c 0.8675,-0.0986 3.42268,-0.37538 5.67817,-0.6151 5.44309,-0.57851 10.47212,-1.19953 13.56451,-1.67505 1.89549,-0.29146 3.14196,-0.40489 5.00783,-0.45568 l 2.4842,-0.0676 v -0.46624 c 0,-0.39389 -0.0612,-0.47831 -0.39432,-0.54404 -0.21687,-0.0428 -0.39432,-0.13255 -0.39432,-0.19945 0,-0.0669 -0.11218,-0.12165 -0.24929,-0.12165 -0.13711,0 -0.62356,-0.19531 -1.08099,-0.43403 -0.45742,-0.23871 -0.88566,-0.43402 -0.95163,-0.43402 -0.066,0 -0.62644,-0.24525 -1.24549,-0.54501 -0.61905,-0.29975 -1.27588,-0.5802 -1.45962,-0.6232 -0.18375,-0.043 -0.46092,-0.18837 -0.61592,-0.32304 -0.15502,-0.13466 -0.38226,-0.24484 -0.505,-0.24484 -0.12274,0 -0.51986,-0.15736 -0.88248,-0.34967 -0.36264,-0.19231 -1.33361,-0.60932 -2.15773,-0.92667 -0.82413,-0.31735 -1.85329,-0.77249 -2.28705,-1.01142 -0.43374,-0.23893 -1.21449,-0.60378 -1.73499,-0.81077 -0.5205,-0.20697 -1.16921,-0.50129 -1.44158,-0.65402 -0.27236,-0.15272 -0.69823,-0.3754 -0.94635,-0.49483 -0.93551,-0.45029 -1.55918,-0.86197 -1.67395,-1.10498 -0.0653,-0.13824 -0.26333,-0.28107 -0.44007,-0.31741 -0.29448,-0.0605 -0.83239,-0.66908 -0.85266,-0.9646 -0.005,-0.0682 -0.2036,-0.36006 -0.44205,-0.64857 -0.23846,-0.28851 -0.43355,-0.59976 -0.43355,-0.69166 0,-0.17767 -0.6904,-1.61363 -0.9497,-1.97528 -0.0849,-0.11842 -0.1542,-0.36954 -0.15398,-0.55802 5.4e-4,-0.41865 -0.38142,-1.79696 -0.79939,-2.88485 -0.17031,-0.44332 -0.30865,-0.89254 -0.30739,-0.99825 6.8e-4,-0.10572 -0.0864,-0.26217 -0.19487,-0.34768 -0.25782,-0.2033 -0.23253,-3.11018 0.0282,-3.23685 0.10684,-0.0519 0.2153,-0.72138 0.27449,-1.69421 0.0802,-1.31796 0.053,-1.68577 -0.15023,-2.03694 -0.13645,-0.2357 -0.29688,-0.78577 -0.35652,-1.22237 -0.0977,-0.71506 -0.0819,-0.7858 0.1593,-0.71304 0.14727,0.0444 0.31809,0.0808 0.37963,0.0808 0.0615,0 0.5703,0.27834 1.13061,0.61854 1.62724,0.98798 3.3418,1.93113 4.01954,2.21109 0.34482,0.14243 0.79408,0.40107 0.99837,0.57477 0.20429,0.17369 0.46177,0.31581 0.57216,0.31581 0.1104,0 0.2953,0.0896 0.41088,0.19908 0.15801,0.14969 1.74061,0.79297 1.95087,0.79297 0.10388,0 -0.10466,-5.37591 -0.22849,-5.89032 -0.0821,-0.34102 -0.18737,-0.81773 -0.23396,-1.05934 -0.0498,-0.25817 -0.40191,-0.77054 -0.85403,-1.24266 -0.72787,-0.76006 -1.2095,-1.13179 -4.17069,-3.21896 -1.74413,-1.22934 -2.02443,-1.52085 -2.11942,-2.20425 -0.0446,-0.32079 -0.17746,-0.69333 -0.29526,-0.82786 -0.20922,-0.23896 -0.29532,-0.68545 -0.13217,-0.68545 0.20455,0 1.30419,0.6305 1.73185,0.99299 0.26026,0.22059 1.25394,0.9251 2.20818,1.56559 0.95425,0.64049 2.06946,1.38978 2.47825,1.6651 1.85611,1.25007 5.17069,2.84471 5.91293,2.84471 0.11335,0 0.47094,0.11161 0.79464,0.24802 0.32372,0.1364 0.66933,0.24801 0.76802,0.24801 0.0987,0 0.52561,0.12097 0.9487,0.26882 0.42309,0.14785 1.01767,0.27773 1.32129,0.2886 0.30363,0.0109 0.76498,0.0645 1.02523,0.11921 0.39025,0.082 0.43863,0.0705 0.27602,-0.0654 -0.10844,-0.0906 -0.19716,-0.34144 -0.19716,-0.55731 0,-0.21587 -0.12916,-0.52559 -0.28702,-0.68824 -0.15785,-0.16266 -0.54214,-0.65895 -0.85395,-1.10289 -0.31181,-0.44393 -0.94565,-1.11861 -1.40854,-1.49929 -0.46289,-0.38068 -1.05658,-0.88241 -1.3193,-1.11496 -0.26274,-0.23255 -0.96443,-0.72973 -1.55931,-1.10485 -0.59489,-0.37512 -1.4091,-0.9125 -1.80935,-1.19418 -0.40025,-0.28166 -1.40202,-0.77721 -2.22613,-1.1012 -0.82413,-0.324 -1.79511,-0.74922 -2.15774,-0.94495 -0.36263,-0.19573 -0.72188,-0.35587 -0.79832,-0.35587 -0.0765,0 -0.28867,-0.10963 -0.47159,-0.24361 -0.18294,-0.134 -0.5384,-0.31536 -0.78993,-0.40303 -0.25153,-0.0877 -1.06552,-0.67453 -1.80885,-1.30412 -1.40908,-1.19347 -1.4403,-1.24414 -1.6475,-2.67489 -0.0886,-0.61149 0.11398,-1.20521 0.54778,-1.6057 0.40736,-0.37609 0.98709,-0.25847 2.00002,0.4058 1.23489,0.80981 1.10591,0.74307 2.33113,1.20629 0.71426,0.27005 1.29917,0.40303 1.77276,0.40303 0.69255,0 0.70675,-0.008 0.7053,-0.40303 -6.8e-4,-0.22166 -0.20639,-0.68204 -0.45684,-1.02305 -0.49916,-0.6797 -2.99753,-2.66615 -3.35322,-2.66615 -0.12229,0 -0.57457,-0.28209 -1.00506,-0.62687 -0.43049,-0.34478 -1.20857,-0.81097 -1.72906,-1.03597 -3.08421,-1.33323 -3.88129,-1.74378 -4.72262,-2.43241 -0.49458,-0.40482 -0.85448,-0.79295 -0.79978,-0.86253 0.0646,-0.0822 2.07219,-0.12654 5.72886,-0.12661 l 5.62943,-1.1e-4 -1.0027,-0.37294 c -0.55148,-0.20512 -1.20488,-0.48613 -1.452,-0.62448 -0.24711,-0.13834 -0.68311,-0.31409 -0.96889,-0.39055 -0.28577,-0.0765 -0.83898,-0.34326 -1.22935,-0.59288 -0.39038,-0.24963 -0.99368,-0.58785 -1.34068,-0.7516 -1.50983,-0.7125 -3.70658,-2.25861 -3.70658,-2.60876 0,-0.054 -0.13832,-0.1327 -0.30738,-0.17489 -0.16907,-0.0422 -0.35489,-0.1994 -0.41293,-0.34937 -0.0581,-0.14997 -0.60066,-1.08182 -1.20582,-2.07077 -0.66108,-1.08035 -1.13163,-2.02023 -1.17883,-2.35455 -0.0432,-0.30605 -0.14455,-0.65344 -0.22525,-0.77199 -0.0807,-0.11855 -0.18704,-0.8447 -0.23632,-1.61367 -0.0493,-0.76897 -0.15854,-1.57676 -0.24281,-1.79508 -0.0965,-0.25 -0.0982,-0.47954 -0.004,-0.62004 0.0818,-0.1227 0.1785,-0.73125 0.21491,-1.35233 l 0.0662,-1.12925 -1.26988,1.04572 c -0.69842,0.57516 -1.48279,1.33587 -1.74305,1.69047 -0.26025,0.3546 -0.59739,0.78128 -0.7492,0.94816 -0.15181,0.16688 -0.27602,0.41755 -0.27602,0.55706 0,0.1395 -0.18256,0.46486 -0.40569,0.72303 -0.22314,0.25816 -0.53853,0.77295 -0.70089,1.14397 -0.16236,0.37101 -0.46758,0.85633 -0.67827,1.07847 -0.21069,0.22215 -0.34981,0.47581 -0.30917,0.56369 0.0407,0.0879 -0.10133,0.5064 -0.31549,0.93005 -0.52546,1.03944 -0.74503,1.60447 -0.74503,1.91728 0,0.14374 -0.0978,0.33826 -0.21736,0.43224 -0.11955,0.094 -0.26714,0.34909 -0.32798,0.56689 -0.0609,0.2178 -0.16487,0.396 -0.23115,0.396 -0.0663,0 -0.49227,0.59988 -0.94662,1.33307 -0.45435,0.7332 -1.07216,1.6121 -1.3729,1.95311 -0.97647,1.10725 -2.58215,4.05639 -2.58215,4.74263 0,0.12992 -0.18299,0.65056 -0.40665,1.15698 -0.22366,0.50643 -0.44341,1.08695 -0.48832,1.29006 -0.0449,0.20311 -0.22784,0.59373 -0.4065,0.86805 -0.2858,0.43883 -0.40507,0.72202 -0.66364,1.57577 -0.0348,0.11493 -0.14172,0.32419 -0.23759,0.46503 -0.35442,0.52066 -0.0828,0.35557 1.92945,-1.17247 0.54066,-0.41057 1.21453,-0.87521 1.49749,-1.03254 0.28295,-0.15732 0.48066,-0.32905 0.43935,-0.38159 -0.0862,-0.1097 0.57349,-0.61779 1.22298,-0.94191 0.243,-0.12127 0.54585,-0.37866 0.67302,-0.57199 0.12715,-0.19333 0.46066,-0.44441 0.74113,-0.55797 0.28047,-0.11355 0.64342,-0.32376 0.80656,-0.46712 0.29303,-0.25751 0.29532,-0.25126 0.18894,0.51712 -0.0592,0.42778 -0.21045,1.00678 -0.33606,1.28666 -0.1256,0.27988 -0.22836,0.67294 -0.22836,0.87346 0,0.20052 -0.0773,0.47817 -0.17182,0.61701 -0.15268,0.22428 -0.4934,1.7775 -0.72708,3.31444 -0.11769,0.77406 0.53346,2.36916 0.96714,2.36916 0.3693,0 1.06799,-0.34269 1.33237,-0.6535 0.50988,-0.59941 2.38122,-2.11883 2.49725,-2.02761 0.0655,0.0515 -0.0291,0.29911 -0.21029,0.5503 -0.18112,0.25119 -0.37987,0.62072 -0.44166,0.82117 -0.0618,0.20046 -0.24048,0.50737 -0.39708,0.68204 -0.40272,0.44917 -1.11383,1.58072 -1.11383,1.77238 0,0.0885 -0.15036,0.38153 -0.33414,0.65111 -0.39118,0.57382 -0.75374,1.48616 -0.93717,2.35834 -0.0717,0.34101 -0.17883,0.77616 -0.23801,0.96699 -0.0747,0.24092 -0.0351,0.3925 0.12989,0.49602 0.20866,0.13098 0.3463,0.40308 0.54588,1.07913 0.41508,1.40603 0.38881,6.6947 -0.0434,8.74249 -0.28387,1.34486 -0.56966,3.40173 -0.63751,4.58824 -0.0273,0.47743 -0.0976,1.44004 -0.15617,2.13913 -0.0723,0.86292 -0.053,1.27107 0.0601,1.27107 0.0917,0 0.5214,-0.58388 0.95499,-1.2975 0.9134,-1.50334 1.49074,-2.14804 2.01652,-2.25179 0.2057,-0.0406 0.37401,-0.12355 0.37401,-0.18436 0,-0.0608 0.10646,-0.11056 0.23659,-0.11056 0.13012,0 0.23659,0.10695 0.23659,0.23767 0,0.13073 0.073,0.25682 0.16223,0.2802 0.0892,0.0234 0.2249,0.71162 0.3015,1.52942 0.12258,1.30877 0.24017,1.9374 0.56227,3.00599 0.082,0.27203 0.39354,0.39801 0.39354,0.15913 0,-0.17768 1.59768,-2.78285 1.75604,-2.86341 0.0747,-0.038 0.3551,-0.0572 0.62301,-0.0426 1.26725,0.069 1.93875,1.37448 1.84343,3.58395 -0.0558,1.2918 -0.17614,1.73657 -0.70503,2.60414 -0.54909,0.90072 -1.76731,2.40197 -2.15066,2.65033 -0.14449,0.0936 -0.2627,0.26402 -0.2627,0.3787 0,0.21903 -0.93118,1.00119 -1.19195,1.00119 -0.0835,0 -0.24037,0.11161 -0.34872,0.24801 -0.10835,0.13641 -0.27953,0.24802 -0.38041,0.24802 -0.10086,0 -0.32061,0.0976 -0.48832,0.21701 -0.23365,0.16629 -0.73427,0.23901 -2.14173,0.3111 -1.01025,0.0518 -2.13199,0.0935 -2.49276,0.0927 -0.52601,-0.001 -0.72955,0.0673 -1.02749,0.34573 -0.20436,0.19094 -0.68993,0.46935 -1.07905,0.6187 -0.38913,0.14934 -0.96183,0.45624 -1.27268,0.68197 -0.31084,0.22576 -0.73707,0.51948 -0.94716,0.65272 -0.51141,0.32438 -0.86003,0.77493 -0.98347,1.27105 -0.056,0.2248 -0.298,0.61095 -0.53794,0.85809 -0.39076,0.40253 -0.43523,0.54738 -0.42652,1.38937 0.0114,1.10068 0.0797,1.44809 0.36791,1.87006 0.3809,0.55777 1.33881,1.25028 2.34316,1.69396 0.54218,0.23954 0.98579,0.48202 0.98579,0.53887 0,0.20872 1.54074,0.49212 3.07567,0.56575 0.8675,0.0416 1.7902,0.12228 2.05045,0.17926 0.9428,0.20644 5.44505,0.23873 7.09771,0.0509 z"
       style="stroke-width:0.13985424" />
    <path
       id="path5154-7-3"
       d="m 112.68485,110.39655 c 1.407,-0.21647 5.55117,-0.82429 9.20933,-1.35069 8.82803,-1.27034 16.98453,-2.63403 22.00002,-3.6782 3.07425,-0.64003 5.09588,-0.88911 8.12209,-1.00064 l 4.02908,-0.14847 v -1.02381 c 0,-0.86495 -0.0993,-1.05031 -0.63954,-1.19466 -0.35174,-0.094 -0.63953,-0.29106 -0.63953,-0.43797 0,-0.14692 -0.18195,-0.26712 -0.40432,-0.26712 -0.22239,0 -1.01134,-0.42889 -1.75323,-0.95308 -0.7419,-0.524192 -1.43644,-0.953052 -1.54344,-0.953052 -0.107,0 -1.01601,-0.53856 -2.02004,-1.19678 -1.00402,-0.65823 -2.06932,-1.27406 -2.36733,-1.36849 -0.29802,-0.0944 -0.74755,-0.41364 -0.99895,-0.70935 -0.25142,-0.29571 -0.61998,-0.53764 -0.81905,-0.53764 -0.19906,0 -0.84314,-0.34554 -1.43128,-0.76784 -0.58815,-0.4223 -2.16295,-1.33799 -3.49958,-2.03487 -1.33664,-0.69686 -3.00582,-1.6963 -3.70932,-2.22096 -0.70348,-0.52465 -1.96976,-1.32582 -2.81395,-1.78034 -0.84418,-0.4545 -1.89631,-1.10078 -2.33806,-1.43616 -0.44174,-0.33536 -1.13245,-0.82433 -1.53488,-1.08659 -1.51729,-0.98878 -2.52879,-1.8928 -2.71495,-2.42641 -0.10589,-0.30356 -0.4271,-0.61721 -0.71373,-0.697 -0.47761,-0.13296 -1.35004,-1.46923 -1.38292,-2.11815 -0.008,-0.14977 -0.33021,-0.79065 -0.71695,-1.42419 -0.38675,-0.63354 -0.70316,-1.317 -0.70316,-1.51881 0,-0.39013 -1.11976,-3.54333 -1.5403,-4.33747 -0.13773,-0.26005 -0.25011,-0.81148 -0.24974,-1.22536 8.7e-4,-0.91931 -0.61862,-3.94591 -1.29652,-6.33479 -0.27623,-0.97348 -0.50059,-1.95991 -0.49854,-2.19205 0.001,-0.23214 -0.1402,-0.5757 -0.31607,-0.76347 -0.41814,-0.44642 -0.37712,-6.82959 0.0457,-7.10774 0.17326,-0.11399 0.34919,-1.58408 0.44519,-3.72029 0.13003,-2.89409 0.086,-3.70176 -0.24367,-4.47288 -0.22129,-0.51759 -0.48151,-1.72547 -0.57822,-2.6842 -0.15843,-1.57018 -0.13281,-1.72553 0.25837,-1.56574 0.23884,0.0975 0.51591,0.17737 0.6157,0.17737 0.0998,0 0.92496,0.6112 1.83372,1.35825 2.63919,2.16948 5.42,4.24054 6.51922,4.85529 0.55925,0.31277 1.2879,0.88072 1.61924,1.26213 0.33133,0.38142 0.74892,0.69348 0.92797,0.69348 0.17907,0 0.47894,0.19673 0.6664,0.43717 0.25628,0.3287 2.82307,1.74126 3.16408,1.74126 0.16847,0 -0.16974,-11.80487 -0.37058,-12.93447 -0.13314,-0.74884 -0.3039,-1.79563 -0.37947,-2.32617 -0.0807,-0.56692 -0.65184,-1.69203 -1.38513,-2.72875 -1.18052,-1.66901 -1.96165,-2.48527 -6.76437,-7.06846 -2.82878,-2.6995 -3.28338,-3.33961 -3.43745,-4.84029 -0.0723,-0.70442 -0.28782,-1.52247 -0.47885,-1.81788 -0.33935,-0.52472 -0.47899,-1.50516 -0.21438,-1.50516 0.33175,0 2.11524,1.3845 2.80887,2.18049 0.4221,0.48438 2.03373,2.03141 3.5814,3.43786 1.54768,1.40643 3.35642,3.05179 4.01943,3.65636 3.01038,2.745 8.38624,6.24666 9.59007,6.24666 0.18382,0 0.7638,0.24508 1.28881,0.54461 0.52503,0.29953 1.08556,0.54461 1.24563,0.54461 0.16008,0 0.85247,0.26564 1.53867,0.5903 0.68621,0.32467 1.65054,0.60985 2.14299,0.63373 0.49244,0.0239 1.2407,0.14168 1.6628,0.26178 0.63293,0.18007 0.71139,0.1549 0.44767,-0.14359 -0.17588,-0.19905 -0.31978,-0.74976 -0.31978,-1.2238 0,-0.47403 -0.20947,-1.15413 -0.4655,-1.51129 -0.25603,-0.35718 -0.87929,-1.44699 -1.38501,-2.42182 -0.50573,-0.97482 -1.53374,-2.45635 -2.28449,-3.29228 -0.75075,-0.83592 -1.71364,-1.93767 -2.13975,-2.44831 -0.42613,-0.51066 -1.56418,-1.60241 -2.52901,-2.42613 -0.96484,-0.82372 -2.28539,-2.00374 -2.93455,-2.62227 -0.64916,-0.6185 -2.2739,-1.70667 -3.61052,-2.41813 -1.33665,-0.71146 -2.91145,-1.6452 -3.4996,-2.075 -0.58813,-0.4298 -1.17079,-0.78145 -1.29478,-0.78145 -0.12399,0 -0.46819,-0.24072 -0.76486,-0.53494 -0.2967,-0.29423 -0.87322,-0.69248 -1.28117,-0.88499 -0.40795,-0.19253 -1.72816,-1.48119 -2.93375,-2.86371 -2.28536,-2.62071 -2.33598,-2.73199 -2.67204,-5.8737399 -0.14364,-1.34277 0.18486,-2.64651 0.88843,-3.52593 0.66069,-0.82585 1.60094,-0.56757 3.2438,0.89108 2.00284,1.77825 1.79365,1.6317 3.78081,2.64888 1.15845,0.593 2.1071,0.885 2.87521,0.885 1.12323,0 1.14627,-0.0178 1.14391,-0.885 -0.001,-0.48674 -0.33473,-1.49768 -0.74093,-2.24651 -0.80959,-1.49253 -4.86164,-5.85456 -5.43853,-5.85456 -0.19834,0 -0.9319,-0.61944 -1.63009,-1.37653 -0.6982,-0.7571 -1.96017,-1.78079 -2.80433,-2.27486 -5.00222,-2.92763 -6.29501,-3.82914 -7.65953,-5.34131 -0.80215,-0.8889301 -1.38587,-1.7412301 -1.29715,-1.8940201 0.10479,-0.18044 3.36085,-0.27786 9.29153,-0.278 l 9.13027,-2.6e-4 -1.62625,-0.81893 c -0.89445,-0.45041 -1.95418,-1.06749 -2.35498,-1.37128 -0.40079,-0.30378 -1.10792,-0.6897 -1.57142,-0.85761 -0.46349,-0.16789 -1.36074,-0.75375 -1.99388,-1.3019 -0.63314,-0.54815 -1.61163,-1.29085 -2.17441,-1.65042 -2.44876,-1.56457 -6.01164,-4.95965 -6.01164,-5.72853 0,-0.11858 -0.22432,-0.2914 -0.49853,-0.38405 -0.2742,-0.0926 -0.57559,-0.43786 -0.66971,-0.76718 -0.0942,-0.32931 -0.9742,-2.37555 -1.95572,-4.54717 -1.07219,-2.37231 -1.83536,-4.43618 -1.91191,-5.17032 -0.07,-0.67204 -0.23445,-1.43488 -0.36532,-1.6952 -0.13088,-0.26032 -0.30336,-1.85487 -0.38329,-3.54344 -0.0799,-1.68857 -0.25713,-3.46238 -0.39381,-3.94179 -0.15649,-0.54897 -0.15919,-1.05301 -0.007,-1.36153 0.13265,-0.26942 0.2895,-1.60573 0.34855,-2.96956 l 0.10733,-2.47971 -2.0596,2.2963 c -1.13277,1.26297 -2.40492,2.9334 -2.82702,3.71207 -0.4221,0.77867 -0.9689,1.71559 -1.21512,2.08205 -0.24621,0.36644 -0.44766,0.9169 -0.44766,1.22323 0,0.30633 -0.29611,1.02079 -0.65799,1.5877 -0.36189,0.5669 -0.87343,1.69731 -1.13676,2.51202 -0.26334,0.81471 -0.75836,1.8804 -1.10007,2.36821 -0.34172,0.48781 -0.56735,1.04481 -0.50143,1.23779 0.066,0.19297 -0.16434,1.112 -0.5117,2.04228 -0.852243,2.2825 -1.208344,3.52323 -1.208344,4.21013 0,0.31564 -0.158628,0.74277 -0.352534,0.94916 -0.193885,0.20639 -0.433273,0.76656 -0.531943,1.24482 -0.09872,0.47826 -0.267391,0.86957 -0.374906,0.86957 -0.107548,0 -0.798384,1.31727 -1.535297,2.92727 -0.736914,1.61001 -1.738922,3.53997 -2.226686,4.2888 -1.583717,2.4314 -4.187936,8.9073601 -4.187936,10.4142601 0,0.28529 -0.296784,1.42857 -0.659532,2.54061 -0.362749,1.11205 -0.71917,2.38682 -0.792013,2.83282 -0.07288,0.446 -0.369517,1.30377 -0.659289,1.90613 -0.463517,0.96363 -0.656971,1.58549 -1.076331,3.46022 -0.05642,0.25238 -0.22987,0.71189 -0.385351,1.02114 -0.57483,1.14331 -0.134214,0.78081 3.129339,-2.5746 0.876891,-0.90156 1.969818,-1.92186 2.428741,-2.26734 0.458923,-0.34546 0.77958,-0.72255 0.712578,-0.83793 -0.139846,-0.24088 0.930124,-1.35659 1.983532,-2.06833 0.394118,-0.26628 0.885306,-0.83148 1.091546,-1.25601 0.20623,-0.42453 0.747161,-0.97589 1.202032,-1.22524 0.454904,-0.24935 1.043569,-0.71094 1.308154,-1.02575 0.475255,-0.56547 0.478965,-0.55173 0.306424,1.13554 -0.09606,0.93936 -0.341327,2.21077 -0.545028,2.82535 -0.203723,0.61459 -0.370389,1.47771 -0.370389,1.91802 0,0.44033 -0.125403,1.05002 -0.278664,1.35488 -0.247625,0.4925 -0.800228,3.9032 -1.179241,7.27813 -0.190881,1.6997599 0.86521,5.2024099 1.568578,5.2024099 0.598978,0 1.732164,-0.7525 2.16096,-1.43502 0.82695,-1.31623 3.86206,-4.6526899 4.05023,-4.4523899 0.10622,0.11302 -0.0473,0.65681 -0.34107,1.2084 -0.29374,0.55159 -0.61609,1.3630299 -0.71631,1.8031899 -0.10026,0.44018 -0.39002,1.11413 -0.64403,1.49768 -0.65315,0.98632 -1.80649,3.47108 -1.80649,3.89194 0,0.1944 -0.24386,0.83781 -0.54193,1.42977 -0.634443,1.26005 -1.222468,3.26344 -1.519992,5.17864 -0.116304,0.74883 -0.290037,1.70436 -0.386024,2.12339 -0.121185,0.52905 -0.05687,0.86189 0.210679,1.08921 0.338412,0.28761 0.561668,0.88511 0.885361,2.36964 0.673216,3.08749 0.630606,14.7008 -0.07045,19.19751 -0.460403,2.95316 -0.92392,7.46981 -1.033952,10.07526 -0.04428,1.04838 -0.158252,3.16215 -0.25329,4.69727 -0.117298,1.89487 -0.08602,2.79112 0.0975,2.79112 0.148657,0 0.845643,-1.28212 1.548879,-2.84916 1.481429,-3.30116 2.417799,-4.71684 3.270569,-4.94466 0.33362,-0.0891 0.60658,-0.27131 0.60658,-0.40483 0,-0.13354 0.17268,-0.24279 0.38373,-0.24279 0.21103,0 0.38372,0.23486 0.38372,0.52191 0,0.28706 0.1184,0.56393 0.26313,0.61528 0.14471,0.0513 0.36475,1.56264 0.48899,3.35843 0.1988,2.87391 0.38952,4.25431 0.91192,6.6008 0.13299,0.59735 0.63828,0.87398 0.63828,0.34944 0,-0.39016 2.59124,-6.11082 2.8481,-6.28773 0.12122,-0.0835 0.57592,-0.12561 1.01044,-0.0936 2.05533,0.15148 3.14441,3.01819 2.98983,7.86994 -0.0904,2.83665 -0.28569,3.81331 -1.14348,5.71839 -0.89056,1.97787 -2.86636,5.27446 -3.48812,5.81982 -0.23434,0.20554 -0.42606,0.57975 -0.42606,0.83159 0,0.48098 -1.51027,2.19849 -1.93321,2.19849 -0.13534,0 -0.38984,0.24509 -0.56557,0.54462 -0.17573,0.29952 -0.45337,0.54461 -0.61698,0.54461 -0.1636,0 -0.52,0.21443 -0.792,0.47653 -0.37896,0.36517 -1.1909,0.52483 -3.47364,0.68314 -1.638493,0.11365 -3.457821,0.20523 -4.042953,0.20347 -0.85313,-0.003 -1.183238,0.14786 -1.666475,0.75919 -0.331445,0.41928 -1.118975,1.03064 -1.750085,1.35858 -0.631121,0.32795 -1.559976,1.00185 -2.064127,1.49754 -0.504151,0.49573 -1.19544,1.14072 -1.536181,1.4333 -0.829456,0.71229 -1.394867,1.70165 -1.595079,2.79107 -0.09076,0.49364 -0.483326,1.34158 -0.872475,1.88428 -0.633761,0.88389 -0.705886,1.20197 -0.691764,3.05088 0.01844,2.416982 0.129323,3.179852 0.596704,4.106442 0.617772,1.22479 2.171388,2.74547 3.800332,3.71975 0.879355,0.52599 1.598833,1.05845 1.598833,1.1833 0,0.45831 2.498902,1.08063 4.988363,1.24231 1.406991,0.0913 2.903497,0.26851 3.325597,0.39364 1.5291,0.45333 8.83122,0.52423 11.51163,0.11181 z"
       style="stroke-width:0.26393074" />
    <path
       id="path5154-7-5-5"
       d="m 83.181814,95.341258 c -0.957884,-0.0986 -3.779297,-0.37538 -6.269774,-0.6151 -6.010202,-0.57851 -11.563213,-1.19953 -14.977786,-1.67505 -2.092991,-0.29146 -3.46933,-0.40489 -5.529603,-0.45568 l -2.743027,-0.0676 v -0.46624 c 0,-0.39389 0.06758,-0.47831 0.435415,-0.54404 0.239454,-0.0428 0.435393,-0.13255 0.435393,-0.19945 0,-0.0669 0.123879,-0.12165 0.275274,-0.12165 0.151384,0 0.688517,-0.19531 1.193607,-0.43403 0.505078,-0.23871 0.977947,-0.43402 1.050779,-0.43402 0.07288,0 0.69172,-0.24525 1.375257,-0.54501 0.683548,-0.29975 1.408824,-0.5802 1.611697,-0.6232 0.202905,-0.043 0.508942,-0.18837 0.680103,-0.32304 0.171171,-0.13466 0.422087,-0.24484 0.557615,-0.24484 0.135529,0 0.574013,-0.15736 0.974414,-0.34967 0.400423,-0.19231 1.472558,-0.60932 2.382542,-0.92667 0.910007,-0.31735 2.046394,-0.77249 2.525336,-1.01142 0.478943,-0.23893 1.341027,-0.60378 1.915769,-0.81077 0.574719,-0.20697 1.291029,-0.50129 1.591777,-0.65402 0.300726,-0.15272 0.770978,-0.3754 1.044938,-0.49483 1.032991,-0.45029 1.721641,-0.86197 1.848358,-1.10498 0.0721,-0.13824 0.290777,-0.28107 0.48592,-0.31741 0.325173,-0.0605 0.919117,-0.66908 0.941498,-0.9646 0.0055,-0.0682 0.224813,-0.36006 0.488107,-0.64857 0.263316,-0.28851 0.478733,-0.59976 0.478733,-0.69166 0,-0.17767 0.762321,-1.61363 1.048637,-1.97528 0.09375,-0.11842 0.170277,-0.36954 0.170034,-0.55802 -5.85e-4,-0.41865 0.421149,-1.79696 0.882667,-2.88485 0.188055,-0.44332 0.340808,-0.89254 0.339417,-0.99825 -8.72e-4,-0.10572 0.0954,-0.26217 0.215184,-0.34768 0.284682,-0.2033 0.256746,-3.11018 -0.03114,-3.23685 -0.117971,-0.0519 -0.237732,-0.72138 -0.303089,-1.69421 -0.08856,-1.31796 -0.05852,-1.68577 0.165883,-2.03694 0.150666,-0.2357 0.327812,-0.78577 0.393665,-1.22237 0.10788,-0.71506 0.09043,-0.7858 -0.175897,-0.71304 -0.162614,0.0444 -0.351232,0.0808 -0.419183,0.0808 -0.06791,0 -0.62972,0.27834 -1.248408,0.61854 -1.796781,0.98798 -3.68998,1.93113 -4.438333,2.21109 -0.380747,0.14243 -0.876815,0.40107 -1.102389,0.57477 -0.225575,0.17369 -0.509882,0.31581 -0.631773,0.31581 -0.121903,0 -0.326067,0.0896 -0.45369,0.19908 -0.174472,0.14969 -1.921962,0.79297 -2.154129,0.79297 -0.114703,0 0.115564,-5.37591 0.252296,-5.89032 0.09065,-0.34102 0.206892,-0.81773 0.258336,-1.05934 0.05499,-0.25817 0.443785,-0.77054 0.943011,-1.24266 0.803706,-0.76006 1.335517,-1.13179 4.605231,-3.21896 1.925849,-1.22934 2.235354,-1.52085 2.340241,-2.20425 0.04925,-0.32079 0.195949,-0.69333 0.326022,-0.82786 0.231019,-0.23896 0.32609,-0.68545 0.145941,-0.68545 -0.225862,0 -1.440072,0.6305 -1.91229,0.99299 -0.287376,0.22059 -1.384587,0.9251 -2.438249,1.56559 -1.053672,0.64049 -2.285075,1.38978 -2.736456,1.6651 -2.049497,1.25007 -5.709421,2.84471 -6.528994,2.84471 -0.12516,0 -0.520007,0.11161 -0.877433,0.24802 -0.357448,0.1364 -0.739067,0.24801 -0.848039,0.24801 -0.108984,0 -0.580373,0.12097 -1.047545,0.26882 -0.467171,0.14785 -1.1237,0.27773 -1.458954,0.2886 -0.335265,0.0109 -0.844683,0.0645 -1.132048,0.11921 -0.43091,0.082 -0.48433,0.0705 -0.304778,-0.0654 0.119738,-0.0906 0.217702,-0.34144 0.217702,-0.55731 0,-0.21587 0.142617,-0.52559 0.316924,-0.68824 0.174296,-0.16266 0.598625,-0.65895 0.942922,-1.10289 0.344298,-0.44393 1.044177,-1.11861 1.555295,-1.49929 0.511118,-0.38068 1.166664,-0.88241 1.456757,-1.11496 0.290115,-0.23255 1.064913,-0.72973 1.721773,-1.10485 0.656872,-0.37512 1.555913,-0.9125 1.997865,-1.19418 0.441952,-0.28166 1.548096,-0.77721 2.458069,-1.1012 0.909995,-0.324 1.982141,-0.74922 2.382553,-0.94495 0.400412,-0.19573 0.797092,-0.35587 0.881497,-0.35587 0.08447,0 0.318746,-0.10963 0.520724,-0.24361 0.202001,-0.134 0.594496,-0.31536 0.872232,-0.40303 0.277737,-0.0877 1.176536,-0.67453 1.997313,-1.30412 1.555891,-1.19347 1.590364,-1.24414 1.819152,-2.67489 0.09783,-0.61149 -0.125856,-1.20521 -0.604853,-1.6057 -0.449802,-0.37609 -1.089934,-0.25847 -2.208401,0.4058 -1.363552,0.80981 -1.221133,0.74307 -2.574008,1.20629 -0.788678,0.27005 -1.43453,0.40303 -1.957463,0.40303 -0.764706,0 -0.780385,-0.008 -0.778784,-0.40303 8.72e-4,-0.22166 0.227893,-0.68204 0.504437,-1.02305 0.551168,-0.6797 3.309841,-2.66615 3.70259,-2.66615 0.135031,0 0.634434,-0.28209 1.109776,-0.62687 0.475343,-0.34478 1.33449,-0.81097 1.90921,-1.03597 3.405552,-1.33323 4.285679,-1.74378 5.214666,-2.43241 0.54611,-0.40482 0.943508,-0.79295 0.883109,-0.86253 -0.07133,-0.0822 -2.28809,-0.12654 -6.325746,-0.12661 l -6.215956,-1.1e-4 1.10717,-0.37294 c 0.608939,-0.20512 1.330416,-0.48613 1.603283,-0.62448 0.272856,-0.13834 0.754283,-0.31409 1.069838,-0.39055 0.315544,-0.0765 0.926393,-0.34326 1.357435,-0.59288 0.431054,-0.24963 1.097211,-0.58785 1.480365,-0.7516 1.667138,-0.7125 4.092766,-2.25861 4.092766,-2.60876 0,-0.054 0.152731,-0.1327 0.339405,-0.17489 0.186686,-0.0422 0.391866,-0.1994 0.455953,-0.34937 0.06415,-0.14997 0.663243,-1.08182 1.331454,-2.07077 0.729957,-1.08035 1.249533,-2.02023 1.301651,-2.35455 0.0477,-0.30605 0.159611,-0.65344 0.248719,-0.77199 0.08911,-0.11855 0.206527,-0.8447 0.260942,-1.61367 0.05444,-0.76897 0.175058,-1.57676 0.268108,-1.79508 0.106554,-0.25 0.108431,-0.47954 0.0044,-0.62004 -0.09032,-0.1227 -0.197098,-0.73125 -0.237301,-1.35233 l -0.0731,-1.12925 1.402176,1.04572 c 0.771199,0.57516 1.637292,1.33587 1.924669,1.69047 0.287365,0.3546 0.659631,0.78128 0.827258,0.94816 0.167627,0.16688 0.304778,0.41755 0.304778,0.55706 0,0.1395 0.201581,0.46486 0.447959,0.72303 0.246389,0.25816 0.594639,0.77295 0.773904,1.14397 0.179287,0.37101 0.516308,0.85633 0.748939,1.07847 0.232641,0.22215 0.386267,0.47581 0.341393,0.56369 -0.04494,0.0879 0.111887,0.5064 0.348349,0.93005 0.580219,1.03944 0.822665,1.60447 0.822665,1.91728 0,0.14374 0.10799,0.33826 0.239996,0.43224 0.132017,0.094 0.294984,0.34909 0.362152,0.56689 0.06724,0.2178 0.182048,0.396 0.255244,0.396 0.07321,0 0.54356,0.59988 1.045248,1.33307 0.501688,0.7332 1.183868,1.6121 1.515941,1.95311 1.078208,1.10725 2.851183,4.05639 2.851183,4.74263 0,0.12992 0.202044,0.65056 0.449007,1.15698 0.246963,0.50643 0.489609,1.08695 0.539209,1.29006 0.04958,0.20311 0.251578,0.59373 0.448853,0.86805 0.31558,0.43883 0.44726,0.72202 0.73278,1.57577 0.0384,0.11493 0.15649,0.32419 0.26234,0.46503 0.39134,0.52066 0.0914,0.35557 -2.130481,-1.17247 -0.59698,-0.41057 -1.341071,-0.87521 -1.653501,-1.03254 -0.31243,-0.15732 -0.53074,-0.32905 -0.485137,-0.38159 0.09518,-0.1097 -0.633241,-0.61779 -1.35039,-0.94191 -0.268329,-0.12127 -0.602733,-0.37866 -0.743141,-0.57199 -0.140409,-0.19333 -0.508667,-0.44441 -0.818348,-0.55797 -0.309703,-0.11355 -0.710469,-0.32376 -0.890606,-0.46712 -0.32355,-0.25751 -0.326089,-0.25126 -0.208614,0.51712 0.06537,0.42778 0.232376,1.00678 0.371073,1.28666 0.138687,0.27988 0.252153,0.67294 0.252153,0.87346 0,0.20052 0.08535,0.47817 0.189722,0.61701 0.168587,0.22428 0.544807,1.7775 0.802834,3.31444 0.129952,0.77406 -0.589041,2.36916 -1.067917,2.36916 -0.407766,0 -1.179252,-0.34269 -1.471177,-0.6535 -0.563004,-0.59941 -2.629318,-2.11883 -2.757437,-2.02761 -0.07232,0.0515 0.03213,0.29911 0.2322,0.5503 0.199991,0.25119 0.419448,0.62072 0.487665,0.82117 0.06824,0.20046 0.265536,0.50737 0.438463,0.68204 0.444679,0.44917 1.229879,1.58072 1.229879,1.77238 0,0.0885 0.166026,0.38153 0.368953,0.65111 0.431937,0.57382 0.832272,1.48616 1.034814,2.35834 0.07917,0.34101 0.197451,0.77616 0.262808,0.96699 0.08248,0.24092 0.03876,0.3925 -0.143435,0.49602 -0.230389,0.13098 -0.38238,0.40308 -0.602754,1.07913 -0.458316,1.40603 -0.429309,6.6947 0.04792,8.74249 0.313446,1.34487 0.629012,3.40173 0.703931,4.58824 0.03014,0.47743 0.107769,1.44004 0.172441,2.13913 0.07983,0.86292 0.05852,1.27107 -0.06636,1.27107 -0.101254,0 -0.575724,-0.58388 -1.054489,-1.2975 -1.008567,-1.50334 -1.646059,-2.14804 -2.22662,-2.25179 -0.227132,-0.0406 -0.412978,-0.12355 -0.412978,-0.18436 0,-0.0608 -0.117552,-0.11056 -0.26124,-0.11056 -0.143677,0 -0.26124,0.10695 -0.26124,0.23767 0,0.13073 -0.08061,0.25683 -0.179133,0.2802 -0.09849,0.0234 -0.248332,0.71162 -0.332913,1.52943 -0.135351,1.30876 -0.265193,1.93739 -0.620852,3.00598 -0.09054,0.27203 -0.434543,0.39801 -0.434543,0.15913 0,-0.17768 -1.764141,-2.78284 -1.939,-2.86341 -0.08248,-0.038 -0.392098,-0.0572 -0.687921,-0.0426 -1.399284,0.069 -2.140747,1.37448 -2.035496,3.58395 0.06161,1.2918 0.194492,1.73657 0.778487,2.60414 0.606299,0.90072 1.951444,2.40197 2.374735,2.65033 0.159545,0.0936 0.290071,0.26402 0.290071,0.3787 0,0.21903 1.028199,1.00119 1.316138,1.00119 0.0922,0 0.265414,0.11161 0.385053,0.24801 0.119639,0.13641 0.308654,0.24802 0.420045,0.24802 0.111368,0 0.354014,0.0976 0.539198,0.21701 0.257993,0.1663 0.810773,0.23901 2.364875,0.3111 1.115507,0.0518 2.35412,0.0935 2.752478,0.0927 0.580815,-0.001 0.805562,0.0673 1.134544,0.34574 0.225652,0.19093 0.761813,0.46935 1.191475,0.61869 0.429673,0.14935 1.062043,0.45624 1.40528,0.68198 0.343226,0.22575 0.813865,0.51947 1.045844,0.65272 0.564693,0.32437 0.949636,0.77493 1.085937,1.27105 0.06183,0.2248 0.329047,0.61095 0.593987,0.85808 0.43147,0.40254 0.48058,0.54739 0.47096,1.38937 -0.0126,1.10068 -0.088,1.44809 -0.40624,1.87007 -0.420589,0.55776 -1.478303,1.25028 -2.587295,1.69396 -0.59867,0.23953 -1.088499,0.48201 -1.088499,0.53887 0,0.20871 -1.701269,0.49211 -3.396122,0.56575 -0.957884,0.0416 -1.976719,0.12228 -2.264085,0.17926 -1.041029,0.20643 -6.012365,0.23872 -7.837214,0.0509 z"
       style="stroke-width:0.14695941" />
  </g>
</svg>
