<?xml version="1.0" encoding="UTF-8" standalone="no"?>
<svg
   xmlns:dc="http://purl.org/dc/elements/1.1/"
   xmlns:cc="http://creativecommons.org/ns#"
   xmlns:rdf="http://www.w3.org/1999/02/22-rdf-syntax-ns#"
   xmlns:svg="http://www.w3.org/2000/svg"
   xmlns="http://www.w3.org/2000/svg"
   id="svg4595"
   version="1.1"
   viewBox="0 0 787 450"
   height="450mm"
   width="787mm">
  <defs
     id="defs4589" />
  <metadata
     id="metadata4592">
    <rdf:RDF>
      <cc:Work
         rdf:about="">
        <dc:format>image/svg+xml</dc:format>
        <dc:type
           rdf:resource="http://purl.org/dc/dcmitype/StillImage" />
        <dc:title></dc:title>
      </cc:Work>
    </rdf:RDF>
  </metadata>
  <g fill="#664444"
     transform="translate(0,153)"
     id="layer1">
    <path
       id="path5148"
       d="m 26.787572,278.55327 c -1.81632,-0.49053 -2.09123,-0.61414 -3.7163,-1.67104 -1.10881,-0.72114 -1.45646,-0.71312 -3.99202,0.092 -0.82177,0.26095 -3.05608,0.4683 -5.17902,0.48062 -3.11212,0.0181 -3.86121,-0.0797 -4.4995196,-0.58742 -1.01573,-0.8079 -1.13996,-1.56443 -0.62653,-3.81548 0.36298,-1.59142 0.5792,-1.99051 1.4085796,-2.59998 0.53887,-0.39598 1.37896,-1.07869 1.86686,-1.51714 0.85478,-0.76814 0.88688,-0.86946 0.88179,-2.78256 -0.003,-1.22156 -0.19039,-2.57857 -0.48639,-3.52721 -0.54776,-1.75549 -0.45602,-2.57795 0.44336,-3.97469 0.74246,-1.15303 1.51869,-1.22624 2.81474,-0.26547 1.00928,0.74819 0.93271,0.79838 1.75451,-1.14997 0.50373,-1.19426 1.23854,-1.50426 2.27981,-0.9618 0.43292,0.22552 1.76271,0.49562 2.95509,0.6002 1.8175,0.15942 2.36495,0.0758 3.38656,-0.51726 2.95541,-1.71567 5.33959,-1.19226 6.62672,1.45477 1.58216,3.25378 2.2857,4.42964 2.65037,4.42964 0.12302,0 0.22368,0.13857 0.22368,0.30794 0,0.16937 -0.78589,0.49696 -1.74641,0.728 -0.96053,0.23104 -2.28841,0.55435 -2.95084,0.71848 -1.43231,0.3549 -3.53811,1.4263 -4.07375,2.07268 -0.21044,0.25395 -0.38262,0.81643 -0.38262,1.24995 0,0.63155 0.34715,1.03348 1.74642,2.02195 2.58245,1.82431 7.11626,4.08474 8.97295,4.47363 0.26497,0.0555 1.75545,0.1 3.31217,0.0988 1.55671,-10e-4 2.83039,0.12486 2.83039,0.28002 0,0.15516 -0.45976,0.9057 -1.02169,1.66785 l -1.02169,1.38572 -2.53136,0.20746 c -1.39225,0.11409 -3.39854,0.45996 -4.45844,0.76859 -2.5992,0.75688 -5.42777,0.88249 -7.46742,0.33167 z"
       style="stroke-width:0.29046667" />
    <path
       id="path5148-3"
       d="m 719.13492,273.59032 c 5.1499,-1.0587 5.92938,-1.32548 10.53703,-3.60659 3.14385,-1.55643 4.12955,-1.53913 11.31875,0.19863 2.33003,0.56321 8.66508,1.01073 14.68434,1.03732 8.82396,0.039 10.94788,-0.17208 12.75772,-1.26783 2.87996,-1.74368 3.2322,-3.37651 1.77644,-8.23494 -1.02917,-3.43475 -1.64223,-4.29612 -3.99381,-5.61153 -1.52791,-0.85465 -3.90984,-2.32814 -5.2932,-3.27443 -2.4236,-1.65787 -2.51463,-1.87655 -2.50018,-6.00559 0.009,-2.63649 0.5398,-5.56532 1.37907,-7.61277 1.55311,-3.78886 1.29298,-5.56398 -1.25708,-8.57856 -2.10512,-2.48859 -4.30601,-2.6466 -7.98078,-0.57296 -2.86167,1.61481 -2.64456,1.72313 -4.97464,-2.48198 -1.42825,-2.57757 -3.51169,-3.24664 -6.46406,-2.07586 -1.22748,0.48675 -4.99791,1.06971 -8.37872,1.29542 -5.15327,0.34407 -6.70547,0.1636 -9.60209,-1.11641 -8.37963,-3.70292 -15.13963,-2.57325 -18.78909,3.13984 -4.48598,7.02262 -6.48077,9.56046 -7.51473,9.56046 -0.34881,0 -0.63421,0.29908 -0.63421,0.66463 0,0.36555 2.22826,1.07259 4.9517,1.57125 2.72343,0.49864 6.48843,1.19645 8.36666,1.5507 4.0611,0.76597 10.03179,3.07837 11.55052,4.47344 0.59667,0.54811 1.08485,1.7621 1.08485,2.69777 0,1.36308 -0.98429,2.23055 -4.9517,4.36396 -7.32215,3.93742 -20.1771,8.81608 -25.44148,9.65544 -0.75129,0.1198 -4.97731,0.21577 -9.39116,0.21328 -4.41384,-0.003 -8.02516,0.26948 -8.02516,0.60436 0,0.33489 1.30358,1.95477 2.89686,3.59971 l 2.89685,2.9908 7.17728,0.44775 c 3.94752,0.24625 9.63608,0.99275 12.64125,1.65886 7.36964,1.63357 15.38963,1.90468 21.17277,0.71583 z"
       style="stroke-width:0.71854728" />
  </g>
</svg>
