<?xml version="1.0" encoding="utf-8"?>
<!-- Generator: Adobe Illustrator 24.1.2, SVG Export Plug-In . SVG Version: 6.00 Build 0)  -->
<svg version="1.1" id="Layer_1" xmlns="http://www.w3.org/2000/svg" xmlns:xlink="http://www.w3.org/1999/xlink" x="0px" y="0px"
	 viewBox="0 0 221.75 126.91" style="enable-background:new 0 0 221.75 126.91;" xml:space="preserve">
<style type="text/css">
	.st0{fill:url(#SVGID_1_);}
	.st1{fill:url(#SVGID_2_);}
	.st2{fill:url(#SVGID_3_);}
	.st3{fill:url(#SVGID_4_);}
	.st4{fill:url(#SVGID_5_);}
	.st5{fill:url(#SVGID_6_);}
	.st6{fill:url(#SVGID_7_);}
	.st7{fill:url(#SVGID_8_);}
	.st8{fill:url(#SVGID_9_);}
	.st9{fill:url(#SVGID_10_);}
	.st10{fill:url(#SVGID_11_);}
	.st11{fill:url(#SVGID_12_);}
	.st12{fill:url(#SVGID_13_);}
	.st13{fill:url(#SVGID_14_);}
	.st14{fill:url(#SVGID_15_);}
	.st15{fill:url(#SVGID_16_);}
	.st16{fill:url(#SVGID_17_);}
	.st17{fill:url(#SVGID_18_);}
	.st18{fill:url(#SVGID_19_);}
	.st19{fill:url(#SVGID_20_);}
	.st20{fill:url(#SVGID_21_);}
	.st21{fill:url(#SVGID_22_);}
	.st22{fill:url(#SVGID_23_);}
	.st23{fill:url(#SVGID_24_);}
	.st24{fill:url(#SVGID_25_);}
	.st25{fill:url(#SVGID_26_);}
	.st26{fill:url(#SVGID_27_);}
	.st27{fill:url(#SVGID_28_);}
	.st28{fill:url(#SVGID_29_);}
	.st29{fill:url(#SVGID_30_);}
	.st30{fill:url(#SVGID_31_);}
	.st31{fill:url(#SVGID_32_);}
	.st32{fill:url(#SVGID_33_);}
	.st33{fill:url(#SVGID_34_);}
	.st34{fill:url(#SVGID_35_);}
	.st35{fill:url(#SVGID_36_);}
</style>
<g>
	<g>
		<g>
			
				<linearGradient id="SVGID_1_" gradientUnits="userSpaceOnUse" x1="547.6381" y1="546.6509" x2="602.9338" y2="546.6509" gradientTransform="matrix(0.9915 -0.1302 0.1302 0.9915 -515.4512 -375.1459)">
				<stop  offset="0" style="stop-color:#525728"/>
				<stop  offset="1" style="stop-color:#2E3717"/>
			</linearGradient>
			<path class="st0" d="M152.06,86.4c-7.51,5.03-16.44,7.62-25.41,8.69s-18.92,1-27.94,0.47c4.94-3.59,11.27-4.52,17.33-5.34
				c12.36-1.68,24.72-3.36,37.08-5.03L152.06,86.4z"/>
		</g>
		<g>
			
				<linearGradient id="SVGID_2_" gradientUnits="userSpaceOnUse" x1="529.7012" y1="532.4794" x2="594.4938" y2="532.4794" gradientTransform="matrix(0.9915 -0.1302 0.1302 0.9915 -515.4512 -375.1459)">
				<stop  offset="0" style="stop-color:#525728"/>
				<stop  offset="1" style="stop-color:#2E3717"/>
			</linearGradient>
			<path class="st1" d="M143.57,77.34c-20.9,5.52-42.6,8.63-64.22,8.61c3.68-2.66,7.42-5.34,11.65-6.96
				c3.85-1.47,7.98-2.01,12.07-2.48c12.53-1.43,25.12-2.25,37.73-2.47L143.57,77.34z"/>
		</g>
		<g>
			
				<linearGradient id="SVGID_3_" gradientUnits="userSpaceOnUse" x1="512.9001" y1="519.3668" x2="586.4346" y2="519.3668" gradientTransform="matrix(0.9915 -0.1302 0.1302 0.9915 -515.4512 -375.1459)">
				<stop  offset="0" style="stop-color:#525728"/>
				<stop  offset="1" style="stop-color:#2E3717"/>
			</linearGradient>
			<path class="st2" d="M134.02,66.51C109.95,70.38,85.11,77.44,61.36,78c3.24-6.2,9.67-9.04,16.31-11.25s13.53-4.02,20.5-4.48
				c9.13-0.6,20.44-0.13,29.58-0.73L134.02,66.51z"/>
		</g>
		<g>
			
				<linearGradient id="SVGID_4_" gradientUnits="userSpaceOnUse" x1="497.6951" y1="505.202" x2="571.2147" y2="505.202" gradientTransform="matrix(0.9915 -0.1302 0.1302 0.9915 -515.4512 -375.1459)">
				<stop  offset="0" style="stop-color:#525728"/>
				<stop  offset="1" style="stop-color:#2E3717"/>
			</linearGradient>
			<path class="st3" d="M117.08,54.42c-16.33-0.75-31.83,7.24-47.97,9.78c-7.84,1.23-16.75,1.95-24.68,1.6
				c1.49-1.99,3.72-3.83,5.95-4.92c9.05-4.41,18.34-8.01,28.1-10.47s20.77-3.82,30.41-0.91L117.08,54.42z"/>
		</g>
		<g>
			
				<linearGradient id="SVGID_5_" gradientUnits="userSpaceOnUse" x1="485.3298" y1="493.4583" x2="544.5552" y2="493.4583" gradientTransform="matrix(0.9915 -0.1302 0.1302 0.9915 -515.4512 -375.1459)">
				<stop  offset="0" style="stop-color:#525728"/>
				<stop  offset="1" style="stop-color:#2E3717"/>
			</linearGradient>
			<path class="st4" d="M88.48,41.34c-12.37,2.91-23.09,10.81-35.41,13.91c-7.23,1.82-14.77,1.94-22.22,2.04
				c4.67-7.58,12.67-12.27,21.01-15.38c8.34-3.12,17.33-4.12,26.23-4.36L88.48,41.34z"/>
		</g>
		<g>
			
				<linearGradient id="SVGID_6_" gradientUnits="userSpaceOnUse" x1="475.1991" y1="481.364" x2="515.9928" y2="481.364" gradientTransform="matrix(0.9915 -0.1302 0.1302 0.9915 -515.4512 -375.1459)">
				<stop  offset="0" style="stop-color:#525728"/>
				<stop  offset="1" style="stop-color:#2E3717"/>
			</linearGradient>
			<path class="st5" d="M58.53,32.7c-12.23,6.19-26.02,11.43-39.71,10.91c3.32-3.3,6.82-6.71,11.27-8.15
				c1.79-0.58,3.66-0.82,5.53-1.05c5.74-0.72,11.39-2.11,17.13-2.83L58.53,32.7z"/>
		</g>
		<g>
			
				<linearGradient id="SVGID_7_" gradientUnits="userSpaceOnUse" x1="471.508" y1="470.2999" x2="497.938" y2="470.2999" gradientTransform="matrix(0.9915 -0.1302 0.1302 0.9915 -515.4512 -375.1459)">
				<stop  offset="0" style="stop-color:#525728"/>
				<stop  offset="1" style="stop-color:#2E3717"/>
			</linearGradient>
			<path class="st6" d="M39.63,27.44c-8.02,1.76-17.92,4.28-26.13,4.02c4.19-3.2,11.41-6.38,16.66-5.96L39.63,27.44z"/>
		</g>
		<g>
			
				<linearGradient id="SVGID_8_" gradientUnits="userSpaceOnUse" x1="460.0462" y1="459.1835" x2="477.6756" y2="459.1835" gradientTransform="matrix(0.9915 -0.1302 0.1302 0.9915 -515.4512 -375.1459)">
				<stop  offset="0" style="stop-color:#525728"/>
				<stop  offset="1" style="stop-color:#2E3717"/>
			</linearGradient>
			<path class="st7" d="M18.42,21.52C11.97,22,5.37,20.26,0,16.66C5.09,15.63,14.6,18.01,18.42,21.52L18.42,21.52z"/>
		</g>
		<g>
			
				<linearGradient id="SVGID_9_" gradientUnits="userSpaceOnUse" x1="478.1563" y1="458.0946" x2="486.9423" y2="458.0946" gradientTransform="matrix(0.9915 -0.1302 0.1302 0.9915 -515.4512 -375.1459)">
				<stop  offset="0" style="stop-color:#525728"/>
				<stop  offset="1" style="stop-color:#2E3717"/>
			</linearGradient>
			<path class="st8" d="M24.55,22.6c-3.15-2.21-7.73-9.91-7.09-13.7c4.98,3.55,8.76,8.76,10.56,14.61L24.55,22.6z"/>
		</g>
		<g>
			
				<linearGradient id="SVGID_10_" gradientUnits="userSpaceOnUse" x1="490.8232" y1="463.4446" x2="506.0886" y2="463.4446" gradientTransform="matrix(0.9915 -0.1302 0.1302 0.9915 -515.4512 -375.1459)">
				<stop  offset="0" style="stop-color:#525728"/>
				<stop  offset="1" style="stop-color:#2E3717"/>
			</linearGradient>
			<path class="st9" d="M41.18,26.48c-6.22-1.43-11.08-9.1-10.64-15.46c6.32,5.01,11.97,10.82,17.36,16.82L41.18,26.48z"/>
		</g>
		<g>
			
				<linearGradient id="SVGID_11_" gradientUnits="userSpaceOnUse" x1="505.6552" y1="466.9792" x2="519.7995" y2="466.9792" gradientTransform="matrix(0.9915 -0.1302 0.1302 0.9915 -515.4512 -375.1459)">
				<stop  offset="0" style="stop-color:#525728"/>
				<stop  offset="1" style="stop-color:#2E3717"/>
			</linearGradient>
			<path class="st10" d="M45.27,11.06c8.8,3.64,15.3,10.68,16.9,20.07l-5.15-0.62C51.63,25.1,48.34,17.18,45.27,11.06"/>
		</g>
		<g>
			
				<linearGradient id="SVGID_12_" gradientUnits="userSpaceOnUse" x1="527.2006" y1="471.0172" x2="537.6805" y2="471.0172" gradientTransform="matrix(0.9915 -0.1302 0.1302 0.9915 -515.4512 -375.1459)">
				<stop  offset="0" style="stop-color:#2E3717"/>
				<stop  offset="1" style="stop-color:#525728"/>
			</linearGradient>
			<path class="st11" d="M71.67,33.61c-5.11-6.78-1.25-16.87-4.63-24.65c3.61,3.79,7.25,7.63,9.85,12.17s4.08,9.94,3.01,15.06
				L71.67,33.61z"/>
		</g>
		<g>
			
				<linearGradient id="SVGID_13_" gradientUnits="userSpaceOnUse" x1="544.5528" y1="476.7444" x2="555.6754" y2="476.7444" gradientTransform="matrix(0.9915 -0.1302 0.1302 0.9915 -515.4512 -375.1459)">
				<stop  offset="0" style="stop-color:#2E3717"/>
				<stop  offset="1" style="stop-color:#525728"/>
			</linearGradient>
			<path class="st12" d="M88.17,37.24c0.06-2.43-0.68-4.79-1.13-7.18c-1.18-6.2-0.39-12.77,2.22-18.52c2.17,5.76,4.1,9.42,6.6,13.86
				c2.5,4.44,4.14,10.09,1.61,14.51L88.17,37.24z"/>
		</g>
		<g>
			
				<linearGradient id="SVGID_14_" gradientUnits="userSpaceOnUse" x1="562.2197" y1="485.6205" x2="573.6038" y2="485.6205" gradientTransform="matrix(0.9915 -0.1302 0.1302 0.9915 -515.4512 -375.1459)">
				<stop  offset="0" style="stop-color:#2E3717"/>
				<stop  offset="1" style="stop-color:#525728"/>
			</linearGradient>
			<path class="st13" d="M107.24,44.66c-0.21-3.65-2.36-9.58-1.94-13.21s2.03-9.65,1.62-14.95c2.88,2.9,4.93,7.31,7.15,10.74
				c0.65,1,1.01,2.15,1.34,3.28c0.62,2.12,1.17,4.26,1.65,6.42c0.38,1.73,0.72,3.52,0.4,5.27c-0.43,2.36-1.99,4.33-3.5,6.2
				L107.24,44.66z"/>
		</g>
		<g>
			
				<linearGradient id="SVGID_15_" gradientUnits="userSpaceOnUse" x1="576.7565" y1="498.1033" x2="590.2692" y2="498.1033" gradientTransform="matrix(0.9915 -0.1302 0.1302 0.9915 -515.4512 -375.1459)">
				<stop  offset="0" style="stop-color:#2E3717"/>
				<stop  offset="1" style="stop-color:#525728"/>
			</linearGradient>
			<path class="st14" d="M122.55,53.53c1.97-7.47,0.43-12.83,1.24-25.06c4.86,2.56,10.56,9.14,11.01,14.62
				c0.44,5.48-2.08,11.1-6.47,14.42L122.55,53.53z"/>
		</g>
		<g>
			
				<linearGradient id="SVGID_16_" gradientUnits="userSpaceOnUse" x1="589.552" y1="510.2211" x2="601.6173" y2="510.2211" gradientTransform="matrix(0.9915 -0.1302 0.1302 0.9915 -515.4512 -375.1459)">
				<stop  offset="0" style="stop-color:#2E3717"/>
				<stop  offset="1" style="stop-color:#525728"/>
			</linearGradient>
			<path class="st15" d="M136.86,64.2c1.45-7.42,2.18-16.53,6.57-24.23c2.61,1.91,3.42,6.63,3.66,9.86s-0.46,6.44-1.15,9.6
				c-0.59,2.68-3.12,6.82-5.87,6.89L136.86,64.2z"/>
		</g>
		<g>
			
				<linearGradient id="SVGID_17_" gradientUnits="userSpaceOnUse" x1="597.3898" y1="523.7565" x2="607.5394" y2="523.7565" gradientTransform="matrix(0.9915 -0.1302 0.1302 0.9915 -515.4512 -375.1459)">
				<stop  offset="0" style="stop-color:#2E3717"/>
				<stop  offset="1" style="stop-color:#525728"/>
			</linearGradient>
			<path class="st16" d="M145.73,71.51c2.64-4.72,5.36-10.02,8.33-14.53c0.29,2.93,0.61,6.69-0.14,9.54
				c-0.75,2.85-3.25,6.98-6.11,7.7L145.73,71.51z"/>
		</g>
		<g>
			
				<linearGradient id="SVGID_18_" gradientUnits="userSpaceOnUse" x1="469.2014" y1="506.3717" x2="612.5945" y2="506.3717" gradientTransform="matrix(0.9915 -0.1302 0.1302 0.9915 -515.4512 -375.1459)">
				<stop  offset="0" style="stop-color:#383A29"/>
				<stop  offset="1" style="stop-color:#1D211F"/>
			</linearGradient>
			<path class="st17" d="M157.14,95.15c-18.08-27.61-46.77-48.08-78.76-56.2C57.6,33.68,29.46,26.57,9.51,18.73
				c4.86-0.64,48.93,10.75,69.82,15.57c32.16,7.43,65.8,30.75,84.47,57.97L157.14,95.15z"/>
		</g>
	</g>
	<g>
		<g>
			
				<linearGradient id="SVGID_19_" gradientUnits="userSpaceOnUse" x1="-2669.6733" y1="-948.0562" x2="-2629.7676" y2="-948.0562" gradientTransform="matrix(-0.7592 -0.6508 -0.6508 0.7592 -2455.1033 -901.9142)">
				<stop  offset="0" style="stop-color:#2E3717"/>
				<stop  offset="1" style="stop-color:#525728"/>
			</linearGradient>
			<path class="st18" d="M193.8,105.17c-3.68-1.83-8.02,0.06-12.12,0.26c-2.33,0.11-4.65-0.34-6.94-0.81
				c-7.97-1.67-15.86-3.72-23.64-6.15c7.04,5.11,13.4,10.49,21.43,13.83c2.09,0.87,4.27,1.62,6.53,1.81
				c4.99,0.41,10.4-1.99,14.86-4.27L193.8,105.17z"/>
		</g>
		<g>
			
				<linearGradient id="SVGID_20_" gradientUnits="userSpaceOnUse" x1="-2675.4744" y1="-979.2466" x2="-2665.0654" y2="-979.2466" gradientTransform="matrix(-0.7592 -0.6508 -0.6508 0.7592 -2455.1033 -901.9142)">
				<stop  offset="0" style="stop-color:#525728"/>
				<stop  offset="1" style="stop-color:#2E3717"/>
			</linearGradient>
			<path class="st19" d="M221.75,80.07c-2.72,1.97-5.75,4.22-8.11,6.61c-5.07,5.12-11.37,10.49-17.77,13.8l1.08,4.19
				c3.46,1.29,8.67-1.33,11.6-3.58c2.93-2.25,4.99-5.41,6.97-8.53C218.03,88.62,220.54,84.58,221.75,80.07z"/>
		</g>
		<g>
			
				<linearGradient id="SVGID_21_" gradientUnits="userSpaceOnUse" x1="-2660.3918" y1="-954.6472" x2="-2614.7676" y2="-954.6472" gradientTransform="matrix(-0.7592 -0.6508 -0.6508 0.7592 -2455.1033 -901.9142)">
				<stop  offset="0" style="stop-color:#2E3717"/>
				<stop  offset="1" style="stop-color:#525728"/>
			</linearGradient>
			<path class="st20" d="M191.33,91.22c-3.15-2.23-7.14-2.99-11.01-3.04c-3.87-0.05-7.71,0.54-11.57,0.74
				c-8.57,0.43-18.42,0-26.29-3.41c6.54,4.49,13.31,8.77,20.71,11.64s15.52,4.29,23.34,2.91c2.11-0.37,5.05-1.16,6.08-3.04
				L191.33,91.22z"/>
		</g>
		<g>
			
				<linearGradient id="SVGID_22_" gradientUnits="userSpaceOnUse" x1="-2663.1824" y1="-991.2197" x2="-2651.0564" y2="-991.2197" gradientTransform="matrix(-0.7592 -0.6508 -0.6508 0.7592 -2455.1033 -901.9142)">
				<stop  offset="0" style="stop-color:#2E3717"/>
				<stop  offset="1" style="stop-color:#525728"/>
			</linearGradient>
			<path class="st21" d="M217.82,56.29c-2.55,0.44-4.69,2.24-6.16,4.36c-1.47,2.12-2.39,4.57-3.39,6.95
				c-3.14,7.48-9.1,14.59-15.75,19.22l1.11,3.87c2.85,0.89,4.88,0.12,6.34-0.64c5.89-3.08,10.27-8.57,13.02-14.62
				C215.73,69.38,217.04,62.89,217.82,56.29z"/>
		</g>
		<g>
			
				<linearGradient id="SVGID_23_" gradientUnits="userSpaceOnUse" x1="-2645.0007" y1="-961.8401" x2="-2593.3884" y2="-961.8401" gradientTransform="matrix(-0.7592 -0.6508 -0.6508 0.7592 -2455.1033 -901.9142)">
				<stop  offset="0" style="stop-color:#2E3717"/>
				<stop  offset="1" style="stop-color:#525728"/>
			</linearGradient>
			<path class="st22" d="M131.75,65.15c2.71,2.88,8.54,4.6,12.47,5.1c13.09,1.64,26.17,3.29,39.26,4.93l3.24,5.15
				C167.67,85.87,142.92,81.56,131.75,65.15z"/>
		</g>
		<g>
			
				<linearGradient id="SVGID_24_" gradientUnits="userSpaceOnUse" x1="-2629.9832" y1="-967.6436" x2="-2574.4502" y2="-967.6436" gradientTransform="matrix(-0.7592 -0.6508 -0.6508 0.7592 -2455.1033 -901.9142)">
				<stop  offset="0" style="stop-color:#2E3717"/>
				<stop  offset="1" style="stop-color:#525728"/>
			</linearGradient>
			<path class="st23" d="M123.32,45.88c12.76,4.14,23.87,11.46,36.21,12.86c5.56,0.63,10.57-0.54,14.64,3.3l3.96,5.23
				c-9.92,1.33-25.46,0.12-34.73-3.65S127.86,54.19,123.32,45.88z"/>
		</g>
		<g>
			
				<linearGradient id="SVGID_25_" gradientUnits="userSpaceOnUse" x1="-2609.1428" y1="-973.4111" x2="-2566.2039" y2="-973.4111" gradientTransform="matrix(-0.7592 -0.6508 -0.6508 0.7592 -2455.1033 -901.9142)">
				<stop  offset="0" style="stop-color:#2E3717"/>
				<stop  offset="1" style="stop-color:#525728"/>
			</linearGradient>
			<path class="st24" d="M121.07,35.85c12.83,3.27,25.48,5.61,38.19,9.28l5.22,6.05c-7.93,0.21-15.95-0.47-23.51-2.84
				C133.4,45.96,126.28,41.82,121.07,35.85z"/>
		</g>
		<g>
			
				<linearGradient id="SVGID_26_" gradientUnits="userSpaceOnUse" x1="-2592.4768" y1="-982.9272" x2="-2559.281" y2="-982.9272" gradientTransform="matrix(-0.7592 -0.6508 -0.6508 0.7592 -2455.1033 -901.9142)">
				<stop  offset="0" style="stop-color:#2E3717"/>
				<stop  offset="1" style="stop-color:#525728"/>
			</linearGradient>
			<path class="st25" d="M125.49,20.05c1.94,0.72,4.78,0.39,6.72,1.11c6.43,2.38,14.88,6.05,18.8,11.69l2.87,5.1
				c-2.84-1.55-6.22-1.72-9.24-2.89c-1.15-0.44-2.23-1.03-3.29-1.65C135.78,30.17,129.67,24.95,125.49,20.05z"/>
		</g>
		<g>
			
				<linearGradient id="SVGID_27_" gradientUnits="userSpaceOnUse" x1="-2576.3525" y1="-990.718" x2="-2555.875" y2="-990.718" gradientTransform="matrix(-0.7592 -0.6508 -0.6508 0.7592 -2455.1033 -901.9142)">
				<stop  offset="0" style="stop-color:#2E3717"/>
				<stop  offset="1" style="stop-color:#525728"/>
			</linearGradient>
			<path class="st26" d="M129.85,9.73c3.81,2.03,9.93,5.22,13.51,7.62l1.8,5.98C139.4,21.87,132.52,15.04,129.85,9.73z"/>
		</g>
		<g>
			
				<linearGradient id="SVGID_28_" gradientUnits="userSpaceOnUse" x1="-2564.5842" y1="-997.347" x2="-2553.8291" y2="-997.347" gradientTransform="matrix(-0.7592 -0.6508 -0.6508 0.7592 -2455.1033 -901.9142)">
				<stop  offset="0" style="stop-color:#2E3717"/>
				<stop  offset="1" style="stop-color:#525728"/>
			</linearGradient>
			<path class="st27" d="M133.34,2.51c1.65,1.1,5.55,2.8,6.39,4.59l0.59,3.79C137.64,9.85,133.52,5.38,133.34,2.51z"/>
		</g>
		<g>
			
				<linearGradient id="SVGID_29_" gradientUnits="userSpaceOnUse" x1="-2649.595" y1="-995.333" x2="-2634.3538" y2="-995.333" gradientTransform="matrix(-0.7592 -0.6508 -0.6508 0.7592 -2455.1033 -901.9142)">
				<stop  offset="0" style="stop-color:#2E3717"/>
				<stop  offset="1" style="stop-color:#525728"/>
			</linearGradient>
			<path class="st28" d="M190.27,81.01c4.59-2.48,9.59-8.14,11.3-13.07c0.67-1.94,1.06-3.96,1.44-5.97
				c1.19-6.27,2.88-12.66,4.07-18.93c-2.82,1.69-5.73,3.45-7.61,6.15c-1.65,2.36-2.36,5.23-3.15,8c-1.93,6.85-4.46,13.54-7.55,19.95
				L190.27,81.01z"/>
		</g>
		<g>
			
				<linearGradient id="SVGID_30_" gradientUnits="userSpaceOnUse" x1="-2636.2336" y1="-997.4365" x2="-2619.9856" y2="-997.4365" gradientTransform="matrix(-0.7592 -0.6508 -0.6508 0.7592 -2455.1033 -901.9142)">
				<stop  offset="0" style="stop-color:#2E3717"/>
				<stop  offset="1" style="stop-color:#525728"/>
			</linearGradient>
			<path class="st29" d="M183.94,69.94c3.48-3.35,6.7-8.8,8.21-13.38s2.28-9.38,3.04-14.15c0.52-3.3,1.01-6.85-0.47-9.85
				c-2.76,3.95-5.6,7.91-7.21,12.45c-2.34,6.59-3.33,15.01-6.9,21.03L183.94,69.94z"/>
		</g>
		<g>
			
				<linearGradient id="SVGID_31_" gradientUnits="userSpaceOnUse" x1="-2622.0825" y1="-998.4025" x2="-2603.0073" y2="-998.4025" gradientTransform="matrix(-0.7592 -0.6508 -0.6508 0.7592 -2455.1033 -901.9142)">
				<stop  offset="0" style="stop-color:#2E3717"/>
				<stop  offset="1" style="stop-color:#525728"/>
			</linearGradient>
			<path class="st30" d="M170.83,54.13c0.36-2.74,0.98-4.39,1.65-7.07c0.48-1.93,1.33-4,2.03-5.86c2.8-7.41,4.46-10.51,6.82-19.11
				c4.21,5.08,4.76,12.43,3.04,18.79s-5.7,12.35-9.33,17.85L170.83,54.13z"/>
		</g>
		<g>
			
				<linearGradient id="SVGID_32_" gradientUnits="userSpaceOnUse" x1="-2603.0232" y1="-999.4046" x2="-2589.7031" y2="-999.4046" gradientTransform="matrix(-0.7592 -0.6508 -0.6508 0.7592 -2455.1033 -901.9142)">
				<stop  offset="0" style="stop-color:#2E3717"/>
				<stop  offset="1" style="stop-color:#525728"/>
			</linearGradient>
			<path class="st31" d="M162.08,44.55c3.47-3.85,7.44-9.48,8.39-14.58c1-5.36,1.19-10.88,0.55-16.29c-3.37,4.9-3.54,5.13-5.23,7.63
				c-1.22,1.8-4.94,6.74-5.54,8.83c-1.28,4.47-2.11,5.9-2.71,10.51L162.08,44.55z"/>
		</g>
		<g>
			
				<linearGradient id="SVGID_33_" gradientUnits="userSpaceOnUse" x1="-2588.2549" y1="-998.5262" x2="-2576.3318" y2="-998.5262" gradientTransform="matrix(-0.7592 -0.6508 -0.6508 0.7592 -2455.1033 -901.9142)">
				<stop  offset="0" style="stop-color:#2E3717"/>
				<stop  offset="1" style="stop-color:#525728"/>
			</linearGradient>
			<path class="st32" d="M157.93,8.41c-3.88,4.55-6.35,7.45-7.8,10.77c-0.91,2.1-2.64,6.36-2.34,8.63l4.7,4.89
				c1.7-1.03,4.37-5.21,4.88-7.14s0.52-3.95,0.52-5.94C157.9,15.89,157.92,12.15,157.93,8.41"/>
		</g>
		<g>
			
				<linearGradient id="SVGID_34_" gradientUnits="userSpaceOnUse" x1="-2573.2004" y1="-999.1812" x2="-2566.9819" y2="-999.1812" gradientTransform="matrix(-0.7592 -0.6508 -0.6508 0.7592 -2455.1033 -901.9142)">
				<stop  offset="0" style="stop-color:#2E3717"/>
				<stop  offset="1" style="stop-color:#525728"/>
			</linearGradient>
			<path class="st33" d="M144.4,19.37c3.23-3.58,5.27-9.39,4.39-14.12c-3.13,2.18-5.71,6.82-5.98,10.63L144.4,19.37z"/>
		</g>
		<g>
			
				<linearGradient id="SVGID_35_" gradientUnits="userSpaceOnUse" x1="-2564.5842" y1="-1001.2286" x2="-2559.6431" y2="-1001.2286" gradientTransform="matrix(-0.7592 -0.6508 -0.6508 0.7592 -2455.1033 -901.9142)">
				<stop  offset="0" style="stop-color:#2E3717"/>
				<stop  offset="1" style="stop-color:#525728"/>
			</linearGradient>
			<path class="st34" d="M140.32,10.9c1.74-2.24,3.54-8.15,2.83-10.9c-1.16,1.47-2.81,4.73-3.47,6.49L140.32,10.9z"/>
		</g>
		<g>
			
				<linearGradient id="SVGID_36_" gradientUnits="userSpaceOnUse" x1="-2680.459" y1="-971.4657" x2="-2557.9534" y2="-971.4657" gradientTransform="matrix(-0.7592 -0.6508 -0.6508 0.7592 -2455.1033 -901.9142)">
				<stop  offset="0" style="stop-color:#1D211F"/>
				<stop  offset="1" style="stop-color:#383A29"/>
			</linearGradient>
			<path class="st35" d="M139.64,1.5c-3.83,4.47,7.75,30.31,17.93,41.95s21.81,24.39,29.13,38.01c7.32,13.62,9.73,31.23,1.24,44.15
				l5.55,1.29c8.49-12.92,3.44-35.22-3.88-48.84c-7.32-13.62-18.8-24.43-28.98-36.07S141.11,16.9,139.64,1.5"/>
		</g>
	</g>
</g>
</svg>
