<?xml version="1.0" encoding="UTF-8" standalone="no"?>
<!-- Generator: Adobe Illustrator 24.1.2, SVG Export Plug-In . SVG Version: 6.00 Build 0)  -->

<svg
   xmlns:dc="http://purl.org/dc/elements/1.1/"
   xmlns:cc="http://creativecommons.org/ns#"
   xmlns:rdf="http://www.w3.org/1999/02/22-rdf-syntax-ns#"
   xmlns:svg="http://www.w3.org/2000/svg"
   xmlns="http://www.w3.org/2000/svg"
   xmlns:sodipodi="http://sodipodi.sourceforge.net/DTD/sodipodi-0.dtd"
   xmlns:inkscape="http://www.inkscape.org/namespaces/inkscape"
   version="1.1"
   id="Layer_1"
   x="0px"
   y="0px"
   viewBox="0 0 276.79 92.04"
   style="enable-background:new 0 0 276.79 92.04;"
   xml:space="preserve"
   sodipodi:docname="forest_background_right.svg"
   inkscape:version="0.92.5 (2060ec1f9f, 2020-04-08)"><metadata
   id="metadata76"><rdf:RDF><cc:Work
       rdf:about=""><dc:format>image/svg+xml</dc:format><dc:type
         rdf:resource="http://purl.org/dc/dcmitype/StillImage" /></cc:Work></rdf:RDF></metadata><defs
   id="defs74" /><sodipodi:namedview
   pagecolor="#ffffff"
   bordercolor="#666666"
   borderopacity="1"
   objecttolerance="10"
   gridtolerance="10"
   guidetolerance="10"
   inkscape:pageopacity="0"
   inkscape:pageshadow="2"
   inkscape:window-width="1541"
   inkscape:window-height="1187"
   id="namedview72"
   showgrid="false"
   inkscape:zoom="2.528993"
   inkscape:cx="150.25743"
   inkscape:cy="46.02"
   inkscape:window-x="134"
   inkscape:window-y="55"
   inkscape:window-maximized="0"
   inkscape:current-layer="Layer_1" />
<style
   type="text/css"
   id="style2">
	.st0{fill:url(#SVGID_1_);}
	.st1{fill:url(#SVGID_2_);}
	.st2{fill:url(#SVGID_3_);}
	.st3{fill:url(#SVGID_4_);}
	.st4{fill:url(#SVGID_5_);}
	.st5{fill:url(#SVGID_6_);}
	.st6{fill:url(#SVGID_7_);}
</style>
<g
   id="g69"
   transform="rotate(-180,138.395,46.02)">
	<g
   id="g11">
		<linearGradient
   id="SVGID_1_"
   gradientUnits="userSpaceOnUse"
   x1="53.6768"
   y1="50.976601"
   x2="92.469498"
   y2="50.976601">
			<stop
   offset="0"
   style="stop-color:#525728"
   id="stop4" />
			<stop
   offset="1"
   style="stop-color:#2E3717"
   id="stop6" />
		</linearGradient>
		<path
   class="st0"
   d="M 92.47,55.95 C 78.56,56.28 63.64,57.6 53.68,47.89 66.75,43.18 82.35,46.42 92.47,55.95 Z"
   id="path9"
   style="fill:url(#SVGID_1_)"
   inkscape:connector-curvature="0" />
	</g>
	<g
   id="g20">
		<linearGradient
   id="SVGID_2_"
   gradientUnits="userSpaceOnUse"
   x1="125.0784"
   y1="71.308403"
   x2="150.0549"
   y2="71.308403">
			<stop
   offset="0"
   style="stop-color:#525728"
   id="stop13" />
			<stop
   offset="1"
   style="stop-color:#2E3717"
   id="stop15" />
		</linearGradient>
		<path
   class="st1"
   d="m 125.45,86.42 c 6.19,-3.18 12.49,-6.43 17.38,-11.39 4.88,-4.95 8.2,-11.98 6.97,-18.83 -4.07,3.92 -7.72,5 -11.79,8.92 -2.06,1.98 -6.16,4.03 -7.33,6.64 -1.17,2.6 -7.14,12.53 -5.23,14.66 z"
   id="path18"
   style="fill:url(#SVGID_2_)"
   inkscape:connector-curvature="0" />
	</g>
	<g
   id="g67">
		<g
   id="g29">
			<linearGradient
   id="SVGID_3_"
   gradientUnits="userSpaceOnUse"
   x1="16.8643"
   y1="39.6077"
   x2="276.7916"
   y2="39.6077">
				<stop
   offset="0"
   style="stop-color:#4E523C"
   id="stop22" />
				<stop
   offset="1"
   style="stop-color:#212522"
   id="stop24" />
			</linearGradient>
			<path
   class="st2"
   d="m 153.27,47.02 c 11.05,1.83 24.22,2.98 31.67,-5.39 28.9,-9.36 61.75,-37.6 91.85,-41.63 l -4.66,38.57 c -25.17,5.16 -50.34,10.33 -75.51,15.49 -20.77,4.26 -42.29,8.52 -62.98,3.89 -3.24,-0.73 -6.47,-1.67 -9.79,-1.85 -3.95,-0.21 -7.87,0.67 -11.73,1.54 C 80.44,64.83 48.76,72.02 17.08,79.21 L 16.86,74.95 C 50.21,66.84 87.7,53.33 125.57,42.8 c 4.62,-2.28 12.03,0.58 17.1,-0.3 -0.26,5.16 4.39,7.02 9.18,5.05"
   id="path27"
   style="fill:url(#SVGID_3_)"
   inkscape:connector-curvature="0" />
		</g>
		<g
   id="g38">
			<linearGradient
   id="SVGID_4_"
   gradientUnits="userSpaceOnUse"
   x1="0"
   y1="83.513802"
   x2="20.9412"
   y2="83.513802">
				<stop
   offset="0"
   style="stop-color:#525728"
   id="stop31" />
				<stop
   offset="1"
   style="stop-color:#2E3717"
   id="stop33" />
			</linearGradient>
			<path
   class="st3"
   d="M 0,92.04 C 5.68,91.48 11.47,90.66 16.55,88.05 21.63,85.44 20.29,80.66 20.94,74.99 11.97,77.09 3.43,83.48 0,92.04 Z"
   id="path36"
   style="fill:url(#SVGID_4_)"
   inkscape:connector-curvature="0" />
		</g>
		<g
   id="g47">
			<linearGradient
   id="SVGID_5_"
   gradientUnits="userSpaceOnUse"
   x1="79.842003"
   y1="33.975601"
   x2="101.4169"
   y2="33.975601">
				<stop
   offset="0"
   style="stop-color:#525728"
   id="stop40" />
				<stop
   offset="1"
   style="stop-color:#2E3717"
   id="stop42" />
			</linearGradient>
			<path
   class="st4"
   d="m 95.27,53.87 c -5.62,-2.56 -9.74,-9.07 -12,-16.19 -2.26,-7.12 -2.78,-15.94 -3.43,-23.6 5.83,3.32 11.27,7.81 16.06,13.25 2.68,3.04 5.3,6.8 5.5,11.4 0.22,4.92 -3.67,11.38 -6.13,15.14 z"
   id="path45"
   style="fill:url(#SVGID_5_)"
   inkscape:connector-curvature="0" />
		</g>
		<g
   id="g56">
			<linearGradient
   id="SVGID_6_"
   gradientUnits="userSpaceOnUse"
   x1="193.7175"
   y1="66.294502"
   x2="209.7581"
   y2="66.294502">
				<stop
   offset="0"
   style="stop-color:#525728"
   id="stop49" />
				<stop
   offset="1"
   style="stop-color:#2E3717"
   id="stop51" />
			</linearGradient>
			<path
   class="st5"
   d="m 196.72,82.42 c 4.93,-3.88 9.43,-8.61 11.68,-14.46 2.24,-5.86 1.84,-13.01 -2.23,-17.79 -5.35,2.91 -11.02,8.59 -11.47,14.67 -0.44,6.08 -2.85,13.92 2.02,17.58 z"
   id="path54"
   style="fill:url(#SVGID_6_)"
   inkscape:connector-curvature="0" />
		</g>
		<g
   id="g65">
			<linearGradient
   id="SVGID_7_"
   gradientUnits="userSpaceOnUse"
   x1="216.55"
   y1="66.100304"
   x2="232.2509"
   y2="66.100304">
				<stop
   offset="0"
   style="stop-color:#525728"
   id="stop58" />
				<stop
   offset="1"
   style="stop-color:#2E3717"
   id="stop60" />
			</linearGradient>
			<path
   class="st6"
   d="m 230.34,86.66 c 1.37,-7.75 2.73,-15.7 1.31,-23.44 -1.42,-7.74 -6.24,-15.35 -13.71,-17.83 -1.89,8.96 -2.22,21.85 1.31,30.3 2.71,6.5 2.71,6.5 11.09,10.97 -1.17,-0.59 1.75,0.56 0.58,-0.03 z"
   id="path63"
   style="fill:url(#SVGID_7_)"
   inkscape:connector-curvature="0" />
		</g>
	</g>
</g>
</svg>