<?xml version="1.0" encoding="UTF-8" standalone="no"?>
<!-- Generator: Adobe Illustrator 24.1.2, SVG Export Plug-In . SVG Version: 6.00 Build 0)  -->

<svg
   xmlns:dc="http://purl.org/dc/elements/1.1/"
   xmlns:cc="http://creativecommons.org/ns#"
   xmlns:rdf="http://www.w3.org/1999/02/22-rdf-syntax-ns#"
   xmlns:svg="http://www.w3.org/2000/svg"
   xmlns="http://www.w3.org/2000/svg"
   xmlns:sodipodi="http://sodipodi.sourceforge.net/DTD/sodipodi-0.dtd"
   xmlns:inkscape="http://www.inkscape.org/namespaces/inkscape"
   version="1.1"
   id="Layer_1"
   x="0px"
   y="0px"
   viewBox="0 0 322.69 351.37"
   style="enable-background:new 0 0 322.69 351.37;"
   xml:space="preserve"
   sodipodi:docname="forest_foreground_left.svg"
   inkscape:version="0.92.5 (2060ec1f9f, 2020-04-08)"><metadata
   id="metadata195"><rdf:RDF><cc:Work
       rdf:about=""><dc:format>image/svg+xml</dc:format><dc:type
         rdf:resource="http://purl.org/dc/dcmitype/StillImage" /></cc:Work></rdf:RDF></metadata><defs
   id="defs193" /><sodipodi:namedview
   pagecolor="#ffffff"
   bordercolor="#666666"
   borderopacity="1"
   objecttolerance="10"
   gridtolerance="10"
   guidetolerance="10"
   inkscape:pageopacity="0"
   inkscape:pageshadow="2"
   inkscape:window-width="1381"
   inkscape:window-height="1151"
   id="namedview191"
   showgrid="false"
   inkscape:zoom="1.8997319"
   inkscape:cx="99.995447"
   inkscape:cy="179.70097"
   inkscape:window-x="134"
   inkscape:window-y="55"
   inkscape:window-maximized="0"
   inkscape:current-layer="g22" />
<style
   type="text/css"
   id="style2">
	.st0{fill:url(#SVGID_1_);}
	.st1{fill:url(#SVGID_2_);}
	.st2{fill:url(#SVGID_3_);}
	.st3{fill:url(#SVGID_4_);}
	.st4{fill:url(#SVGID_5_);}
	.st5{fill:url(#SVGID_6_);}
	.st6{fill:url(#SVGID_7_);}
	.st7{fill:url(#SVGID_8_);}
	.st8{fill:url(#SVGID_9_);}
	.st9{fill:url(#SVGID_10_);}
	.st10{fill:url(#SVGID_11_);}
	.st11{fill:url(#SVGID_12_);}
	.st12{fill:url(#SVGID_13_);}
	.st13{fill:url(#SVGID_14_);}
	.st14{fill:url(#SVGID_15_);}
	.st15{fill:url(#SVGID_16_);}
	.st16{fill:url(#SVGID_17_);}
	.st17{fill:url(#SVGID_18_);}
	.st18{fill:url(#SVGID_19_);}
	.st19{fill:url(#SVGID_20_);}
</style>
<g
   id="g188">
	<g
   id="g22">
		<g
   id="g11">
			<linearGradient
   id="SVGID_1_"
   gradientUnits="userSpaceOnUse"
   x1="0"
   y1="187.2748"
   x2="142.8767"
   y2="187.2748">
				<stop
   offset="0"
   style="stop-color:#4E523C"
   id="stop4" />
				<stop
   offset="1"
   style="stop-color:#212522"
   id="stop6" />
			</linearGradient>
			<path
   class="st0"
   d="m 0.81,216.05 c 6.26,7.97 9.52,22.95 15.78,30.92 2.15,2.74 4.4,5.56 7.49,7.16 2.07,1.07 4.43,1.54 6.41,2.78 3.09,1.94 4.78,5.44 6.31,8.75 6.1,13.21 16.962365,73.15627 23.062365,86.35627 L 142.87,351.37 c -16.08,-28.01 -32.28,-56.29 -41.9,-87.12 -3.81,-12.22 -6.56,-24.76 -10.6,-36.91 -6.44,-19.42 -15.86,-40.79 -28.33,-57.02 -5.95,-15.67 -6.89,-33.19 -2.65,-49.41 0.82,-3.15 1.82,-6.6 0.42,-9.54 -0.73,-1.54 -2.03,-2.72 -3.3,-3.85 C 49.22,101 41.19,90.22 33.9,83.7 26.97,62.97 10.259772,44.679294 -0.28022848,18.169294 l 0.66514532,19.15054 C 9.3249168,54.089834 23.35,90.82 30.02,108.62 c 1.16,3.09 2.3,6.32 2.06,9.62 -0.48,6.4 -6.08,12.56 -3.62,18.49 1.55,6.28 6.46,16.17 11.23,20.53 -0.39,5.55 -2.48,11.63 -2.71,17.19 -0.15,3.6 0.74,7.14 1.59,10.64 9.26,38.17 7.58,17.31 12.3,56.31 C 41.69,234.16 26.51,219.91 17.32,212.67 10,206.88 2.24,200.44 0,191.39 Z"
   id="path9"
   inkscape:connector-curvature="0"
   style="fill:url(#SVGID_1_)"
   sodipodi:nodetypes="cccccccccccccccccccccccccc" />
		</g>
		<g
   id="g20">
			<linearGradient
   id="SVGID_2_"
   gradientUnits="userSpaceOnUse"
   x1="25.4787"
   y1="31.3009"
   x2="53.4918"
   y2="31.3009">
				<stop
   offset="0"
   style="stop-color:#2E3717"
   id="stop13" />
				<stop
   offset="1"
   style="stop-color:#525728"
   id="stop15" />
			</linearGradient>
			<path
   class="st1"
   d="M25.84,62.6C23.4,39.19,33.48,14.84,51.76,0c2.14,14.92,3.42,31.36-3.07,44.97     C44.31,54.13,35.44,59.28,25.84,62.6z"
   id="path18" />
		</g>
	</g>
	<g
   id="g186">
		<g
   id="g31">
			<linearGradient
   id="SVGID_3_"
   gradientUnits="userSpaceOnUse"
   x1="70.6512"
   y1="288.0554"
   x2="157.4719"
   y2="288.0554">
				<stop
   offset="0"
   style="stop-color:#2E3717"
   id="stop24" />
				<stop
   offset="1"
   style="stop-color:#525728"
   id="stop26" />
			</linearGradient>
			<path
   class="st2"
   d="M77.46,263.37c8.66,2.19,13.15,11.45,19.64,17.59c3.69,3.49,8.16,6.03,12.62,8.48     c15.53,8.53,31.48,16.31,47.76,23.31c-18.86-1.53-36.98-1.64-54.98-7.5c-4.69-1.53-9.34-3.37-13.34-6.26     c-8.83-6.39-14.37-18.01-18.5-28.1L77.46,263.37z"
   id="path29" />
		</g>
		<g
   id="g40">
			<linearGradient
   id="SVGID_4_"
   gradientUnits="userSpaceOnUse"
   x1="58.0299"
   y1="220.1961"
   x2="80.6763"
   y2="220.1961">
				<stop
   offset="0"
   style="stop-color:#525728"
   id="stop33" />
				<stop
   offset="1"
   style="stop-color:#2E3717"
   id="stop35" />
			</linearGradient>
			<path
   class="st3"
   d="M66.83,182.33c1.71,7.11,3.52,15.11,4.04,22.4c1.12,15.63,3.93,33.43,9.8,47.96l-7.72,5.38     c-7.54-2.76-12.44-14.47-14.08-22.33c-1.64-7.86-0.58-16.01,0.56-23.96C60.87,201.71,62.45,191.5,66.83,182.33z"
   id="path38" />
		</g>
		<g
   id="g49">
			<linearGradient
   id="SVGID_5_"
   gradientUnits="userSpaceOnUse"
   x1="90.8444"
   y1="273.7157"
   x2="190.1067"
   y2="273.7157">
				<stop
   offset="0"
   style="stop-color:#2E3717"
   id="stop42" />
				<stop
   offset="1"
   style="stop-color:#525728"
   id="stop44" />
			</linearGradient>
			<path
   class="st4"
   d="M101.3,243.83c8.37,0.77,16.03,5.17,22.49,10.56c6.46,5.39,11.96,11.81,18.07,17.6     c13.54,12.85,30.42,26.09,48.26,31.61c-17.17-1.84-34.41-4.36-50.7-10.1s-31.71-14.9-42.67-28.25c-2.95-3.6-6.7-9.08-5.74-13.63     L101.3,243.83z"
   id="path47" />
		</g>
		<g
   id="g58">
			<linearGradient
   id="SVGID_6_"
   gradientUnits="userSpaceOnUse"
   x1="84.7733"
   y1="194.1469"
   x2="111.1552"
   y2="194.1469">
				<stop
   offset="0"
   style="stop-color:#2E3717"
   id="stop51" />
				<stop
   offset="1"
   style="stop-color:#525728"
   id="stop53" />
			</linearGradient>
			<path
   class="st5"
   d="M107,148.61c3.59,4.32,4.57,10.33,4.01,15.92c-0.57,5.59-2.52,10.93-4.24,16.28     c-5.41,16.8-5.63,36.98-1.19,54.06l-7.31,4.82c-5.97-2.56-8.24-6.71-9.57-10.04c-5.36-13.43-4.83-28.69-0.8-42.57     C91.92,173.19,98.94,160.62,107,148.61z"
   id="path56" />
		</g>
		<g
   id="g67">
			<linearGradient
   id="SVGID_7_"
   gradientUnits="userSpaceOnUse"
   x1="124.3299"
   y1="258.0664"
   x2="236.6207"
   y2="258.0664">
				<stop
   offset="0"
   style="stop-color:#2E3717"
   id="stop60" />
				<stop
   offset="1"
   style="stop-color:#525728"
   id="stop62" />
			</linearGradient>
			<path
   class="st6"
   d="M236.62,285.14c-8.55,0.92-20.63-4.49-27.8-9.23c-23.95-15.81-47.89-31.63-71.84-47.44l-12.65,3.91     C147.94,268.49,194.94,296.42,236.62,285.14z"
   id="path65" />
		</g>
		<g
   id="g76">
			<linearGradient
   id="SVGID_8_"
   gradientUnits="userSpaceOnUse"
   x1="157.0031"
   y1="245.4402"
   x2="277.8236"
   y2="245.4402">
				<stop
   offset="0"
   style="stop-color:#2E3717"
   id="stop69" />
				<stop
   offset="1"
   style="stop-color:#525728"
   id="stop71" />
			</linearGradient>
			<path
   class="st7"
   d="M277.82,265.23c-26.94-11.23-55.66-14.86-78.03-30.03c-10.08-6.83-16.7-15.87-28.86-15.29L157,222.94     c14.5,16.24,41.87,36.25,62.53,43.15S258.56,272.53,277.82,265.23z"
   id="path74" />
		</g>
		<g
   id="g85">
			<linearGradient
   id="SVGID_9_"
   gradientUnits="userSpaceOnUse"
   x1="202.3444"
   y1="232.892"
   x2="295.7647"
   y2="232.892">
				<stop
   offset="0"
   style="stop-color:#2E3717"
   id="stop78" />
				<stop
   offset="1"
   style="stop-color:#525728"
   id="stop80" />
			</linearGradient>
			<path
   class="st8"
   d="M295.76,251.85c-25.82-12.75-50.03-26.8-76.23-38.75l-17.19,2.59c12.79,11.58,27,21.8,42.87,28.59     S278.69,254.33,295.76,251.85z"
   id="path83" />
		</g>
		<g
   id="g94">
			<linearGradient
   id="SVGID_10_"
   gradientUnits="userSpaceOnUse"
   x1="238.604"
   y1="212.1882"
   x2="310.8265"
   y2="212.1882">
				<stop
   offset="0"
   style="stop-color:#2E3717"
   id="stop87" />
				<stop
   offset="1"
   style="stop-color:#525728"
   id="stop89" />
			</linearGradient>
			<path
   class="st9"
   d="M310.83,219.49c-4.22-1.56-8.45-6.12-12.67-7.69c-14-5.18-33.15-11.08-47.6-7.31l-11.95,4.36     c6.88,1.47,12.71,5.97,19.34,8.31c2.52,0.89,5.14,1.46,7.77,1.94C279.5,221.65,296.99,221.67,310.83,219.49z"
   id="path92" />
		</g>
		<g
   id="g103">
			<linearGradient
   id="SVGID_11_"
   gradientUnits="userSpaceOnUse"
   x1="273.6847"
   y1="195.2383"
   x2="318.2365"
   y2="195.2383">
				<stop
   offset="0"
   style="stop-color:#2E3717"
   id="stop96" />
				<stop
   offset="1"
   style="stop-color:#525728"
   id="stop98" />
			</linearGradient>
			<path
   class="st10"
   d="M318.24,196.28c-9.17-2.04-23.79-5.44-33.11-6.54l-11.44,7.32C285.27,202.8,306.3,201.27,318.24,196.28z"
   id="path101" />
		</g>
		<g
   id="g112">
			<linearGradient
   id="SVGID_12_"
   gradientUnits="userSpaceOnUse"
   x1="299.2887"
   y1="180.816"
   x2="322.6881"
   y2="180.816">
				<stop
   offset="0"
   style="stop-color:#2E3717"
   id="stop105" />
				<stop
   offset="1"
   style="stop-color:#525728"
   id="stop107" />
			</linearGradient>
			<path
   class="st11"
   d="M322.69,179.41c-4.27-0.52-13.14-3.24-17.06-1.46l-6.34,5.43C305.19,185.43,318.34,183.9,322.69,179.41z"
   id="path110" />
		</g>
		<g
   id="g121">
			<linearGradient
   id="SVGID_13_"
   gradientUnits="userSpaceOnUse"
   x1="114.3348"
   y1="185.1976"
   x2="147.4944"
   y2="185.1976">
				<stop
   offset="0"
   style="stop-color:#2E3717"
   id="stop114" />
				<stop
   offset="1"
   style="stop-color:#525728"
   id="stop116" />
			</linearGradient>
			<path
   class="st12"
   d="M117.51,228.46c-4.08-10.59-4.32-27.03-0.16-37.59c1.63-4.15,3.86-8.03,6.08-11.9     c6.91-12.05,13.16-24.98,20.08-37.03c2.27,6.78,4.58,13.82,3.87,20.94c-0.62,6.24-3.5,11.98-6.14,17.67     c-6.51,14.05-11.8,28.68-15.79,43.64L117.51,228.46z"
   id="path119" />
		</g>
		<g
   id="g130">
			<linearGradient
   id="SVGID_14_"
   gradientUnits="userSpaceOnUse"
   x1="143.4043"
   y1="180.6212"
   x2="178.7543"
   y2="180.6212">
				<stop
   offset="0"
   style="stop-color:#2E3717"
   id="stop123" />
				<stop
   offset="1"
   style="stop-color:#525728"
   id="stop125" />
			</linearGradient>
			<path
   class="st13"
   d="M143.63,219.13c-1.01-10.46,1.4-24.02,5.39-33.74s9.51-18.72,15.01-27.67c3.81-6.2,8.03-12.76,14.72-15.61     c-1.04,10.43-1.95,21-5.72,30.78c-5.47,14.2-15.75,29.51-18.38,44.5L143.63,219.13z"
   id="path128" />
		</g>
		<g
   id="g139">
			<linearGradient
   id="SVGID_15_"
   gradientUnits="userSpaceOnUse"
   x1="174.1923"
   y1="178.5195"
   x2="215.6934"
   y2="178.5195">
				<stop
   offset="0"
   style="stop-color:#2E3717"
   id="stop132" />
				<stop
   offset="1"
   style="stop-color:#525728"
   id="stop134" />
			</linearGradient>
			<path
   class="st14"
   d="M187.67,211.59c3.29-5.04,4.59-8.64,7.29-14.01c1.94-3.86,3.48-8.49,4.95-12.55     c5.86-16.2,7.52-23.66,15.79-41.23c-14.15,2.42-25.46,13.78-31.63,26.74c-6.18,12.95-8.06,28.47-9.87,42.71L187.67,211.59z"
   id="path137" />
		</g>
		<g
   id="g148">
			<linearGradient
   id="SVGID_16_"
   gradientUnits="userSpaceOnUse"
   x1="215.6588"
   y1="176.3392"
   x2="244.6386"
   y2="176.3392">
				<stop
   offset="0"
   style="stop-color:#2E3717"
   id="stop141" />
				<stop
   offset="1"
   style="stop-color:#525728"
   id="stop143" />
			</linearGradient>
			<path
   class="st15"
   d="M215.69,208.16c-0.29-11.27,1.14-26.19,6.78-35.96c5.94-10.28,13.44-19.65,22.17-27.69     c-1.37,12.87-1.41,13.49-2.16,20.01c-0.54,4.7-1.38,18.13-3.36,22.43c-4.22,9.19-4.86,12.74-10.4,21.2H215.69z"
   id="path146" />
		</g>
		<g
   id="g157">
			<linearGradient
   id="SVGID_17_"
   gradientUnits="userSpaceOnUse"
   x1="247.7896"
   y1="178.2504"
   x2="273.7299"
   y2="178.2504">
				<stop
   offset="0"
   style="stop-color:#2E3717"
   id="stop150" />
				<stop
   offset="1"
   style="stop-color:#525728"
   id="stop152" />
			</linearGradient>
			<path
   class="st16"
   d="M273.73,154.34c-0.05,13.01-0.06,21.3-2.38,28.84c-1.47,4.76-4.65,14.23-8.35,17.57l-14.69,1.43     c-1.35-4.12,0.16-14.79,2.05-18.7c1.89-3.9,4.73-7.25,7.54-10.55C263.17,166.72,268.45,160.53,273.73,154.34"
   id="path155" />
		</g>
		<g
   id="g166">
			<linearGradient
   id="SVGID_18_"
   gradientUnits="userSpaceOnUse"
   x1="280.5425"
   y1="176.8253"
   x2="294.0721"
   y2="176.8253">
				<stop
   offset="0"
   style="stop-color:#2E3717"
   id="stop159" />
				<stop
   offset="1"
   style="stop-color:#525728"
   id="stop161" />
			</linearGradient>
			<path
   class="st17"
   d="M280.55,191.59c-0.27-10.48,4.59-22.96,12.75-29.54c2.08,8.03-0.23,19.36-5.18,26.02L280.55,191.59z"
   id="path164" />
		</g>
		<g
   id="g175">
			<linearGradient
   id="SVGID_19_"
   gradientUnits="userSpaceOnUse"
   x1="299.2887"
   y1="172.3708"
   x2="310.0388"
   y2="172.3708">
				<stop
   offset="0"
   style="stop-color:#2E3717"
   id="stop168" />
				<stop
   offset="1"
   style="stop-color:#525728"
   id="stop170" />
			</linearGradient>
			<path
   class="st18"
   d="M299.29,183.38c0.3-6.16,5.69-18.49,10.75-22.01c-0.16,4.07-2.06,11.8-3.45,15.63L299.29,183.38z"
   id="path173" />
		</g>
		<g
   id="g184">
			<linearGradient
   id="SVGID_20_"
   gradientUnits="userSpaceOnUse"
   x1="47.1851"
   y1="237.1245"
   x2="313.7151"
   y2="237.1245">
				<stop
   offset="0"
   style="stop-color:#1D211F"
   id="stop177" />
				<stop
   offset="1"
   style="stop-color:#383A29"
   id="stop179" />
			</linearGradient>
			<path
   class="st19"
   d="M313.72,168.82c0,12.8-55.73,39.1-89.02,43.9s-70.56,9.41-101.94,21.54c-31.38,12.13-60.3,37.8-64.57,71.17     l-11-5.73c4.27-33.37,44.19-63.04,75.57-75.17c31.38-12.13,65.64-13.73,98.94-18.54S289.49,192.17,313.72,168.82"
   id="path182" />
		</g>
	</g>
</g>
</svg>