<?xml version="1.0" encoding="UTF-8" standalone="no"?>
<!-- Generator: Adobe Illustrator 24.1.2, SVG Export Plug-In . SVG Version: 6.00 Build 0)  -->

<svg
   xmlns:dc="http://purl.org/dc/elements/1.1/"
   xmlns:cc="http://creativecommons.org/ns#"
   xmlns:rdf="http://www.w3.org/1999/02/22-rdf-syntax-ns#"
   xmlns:svg="http://www.w3.org/2000/svg"
   xmlns="http://www.w3.org/2000/svg"
   xmlns:sodipodi="http://sodipodi.sourceforge.net/DTD/sodipodi-0.dtd"
   xmlns:inkscape="http://www.inkscape.org/namespaces/inkscape"
   version="1.1"
   id="Layer_1"
   x="0px"
   y="0px"
   viewBox="0 0 434.58 318.96"
   style="enable-background:new 0 0 434.58 318.96;"
   xml:space="preserve"
   sodipodi:docname="forest_foreground_right.svg"
   inkscape:version="0.92.5 (2060ec1f9f, 2020-04-08)"><metadata
   id="metadata415"><rdf:RDF><cc:Work
       rdf:about=""><dc:format>image/svg+xml</dc:format><dc:type
         rdf:resource="http://purl.org/dc/dcmitype/StillImage" /></cc:Work></rdf:RDF></metadata><defs
   id="defs413" /><sodipodi:namedview
   pagecolor="#ffffff"
   bordercolor="#666666"
   borderopacity="1"
   objecttolerance="10"
   gridtolerance="10"
   guidetolerance="10"
   inkscape:pageopacity="0"
   inkscape:pageshadow="2"
   inkscape:window-width="2281"
   inkscape:window-height="1097"
   id="namedview411"
   showgrid="false"
   inkscape:zoom="2.9596188"
   inkscape:cx="330.16141"
   inkscape:cy="65.440107"
   inkscape:window-x="134"
   inkscape:window-y="55"
   inkscape:window-maximized="0"
   inkscape:current-layer="g33" />
<style
   type="text/css"
   id="style2">
	.st0{fill:url(#SVGID_1_);}
	.st1{fill:url(#SVGID_2_);}
	.st2{fill:url(#SVGID_3_);}
	.st3{fill:url(#SVGID_4_);}
	.st4{fill:url(#SVGID_5_);}
	.st5{fill:url(#SVGID_6_);}
	.st6{fill:url(#SVGID_7_);}
	.st7{fill:url(#SVGID_8_);}
	.st8{fill:url(#SVGID_9_);}
	.st9{fill:url(#SVGID_10_);}
	.st10{fill:url(#SVGID_11_);}
	.st11{fill:url(#SVGID_12_);}
	.st12{fill:url(#SVGID_13_);}
	.st13{fill:url(#SVGID_14_);}
	.st14{fill:url(#SVGID_15_);}
	.st15{fill:url(#SVGID_16_);}
	.st16{fill:url(#SVGID_17_);}
	.st17{fill:url(#SVGID_18_);}
	.st18{fill:url(#SVGID_19_);}
	.st19{fill:url(#SVGID_20_);}
	.st20{fill:url(#SVGID_21_);}
	.st21{fill:url(#SVGID_22_);}
	.st22{fill:url(#SVGID_23_);}
	.st23{fill:url(#SVGID_24_);}
	.st24{fill:url(#SVGID_25_);}
	.st25{fill:url(#SVGID_26_);}
	.st26{fill:url(#SVGID_27_);}
	.st27{fill:url(#SVGID_28_);}
	.st28{fill:url(#SVGID_29_);}
	.st29{fill:url(#SVGID_30_);}
	.st30{fill:url(#SVGID_31_);}
	.st31{fill:url(#SVGID_32_);}
	.st32{fill:url(#SVGID_33_);}
	.st33{fill:url(#SVGID_34_);}
	.st34{fill:url(#SVGID_35_);}
	.st35{fill:url(#SVGID_36_);}
	.st36{fill:url(#SVGID_37_);}
	.st37{fill:url(#SVGID_38_);}
	.st38{fill:url(#SVGID_39_);}
	.st39{fill:url(#SVGID_40_);}
	.st40{fill:url(#SVGID_41_);}
	.st41{fill:url(#SVGID_42_);}
	.st42{fill:url(#SVGID_43_);}
	.st43{fill:url(#SVGID_44_);}
</style>
<g
   id="g408">
	<g
   id="g33">
		<g
   id="g13">
			<g
   id="g11">
				<linearGradient
   id="SVGID_1_"
   gradientUnits="userSpaceOnUse"
   x1="0"
   y1="262.9745"
   x2="434.5803"
   y2="262.9745"
   gradientTransform="translate(0,11.229155)">
					<stop
   offset="0"
   style="stop-color:#4E523C"
   id="stop4" />
					<stop
   offset="1"
   style="stop-color:#212522"
   id="stop6" />
				</linearGradient>
				<path
   class="st0"
   d="m 434.58,229.72916 c -50.01,-1.65 -84.05,16.87 -139.92,29.11 -10.27,-1.58 -19.79,5.59 -30.07,7.08 -5.14,0.75 -10.36,0.05 -15.51,-0.64 -9.14,-1.23 -18.27,-2.46 -27.41,-3.68 -3.51,0.65 -12.62,-5.58 -15.68,-7.42 -1.23,-0.74 -2.72,-0.84 -4.15,-0.93 -7.27,-0.45 -14.53,-0.9 -21.8,-1.35 -3.08,-0.19 -6.22,-0.37 -9.2,0.39 -6.5,1.67 -24.63,18.02 -28.62,23.42 -47,15.65 -94.43,30.02 -142.22,43.07 l 434.84105,0.23892 z"
   id="path9"
   inkscape:connector-curvature="0"
   style="fill:url(#SVGID_1_)"
   sodipodi:nodetypes="ccccccccccccc" />
			</g>
		</g>
		<g
   id="g22"
   transform="translate(0.33788135,8.4470337)">
			<linearGradient
   id="SVGID_2_"
   gradientUnits="userSpaceOnUse"
   x1="114.0418"
   y1="272.57269"
   x2="114.0418"
   y2="224.49471">
				<stop
   offset="0"
   style="stop-color:#2E3717"
   id="stop15" />
				<stop
   offset="1"
   style="stop-color:#525728"
   id="stop17" />
			</linearGradient>
			<path
   class="st1"
   d="m 95.37,224.49 c 0.54,6.67 1.58,13.3 3.11,19.81 0.83,3.54 1.86,7.14 4.04,10.04 2.01,2.67 4.86,4.57 7.7,6.34 7.2,4.48 14.72,8.45 22.48,11.89 -1.26,-22.33 -15.82,-41.94 -37.33,-48.08 z"
   id="path20"
   style="fill:url(#SVGID_2_)"
   inkscape:connector-curvature="0" />
		</g>
		<g
   id="g31"
   transform="translate(0.33788135,8.4470337)">
			<linearGradient
   id="SVGID_3_"
   gradientUnits="userSpaceOnUse"
   x1="93.979202"
   y1="280.09921"
   x2="93.979202"
   y2="259.78479">
				<stop
   offset="0"
   style="stop-color:#2E3717"
   id="stop24" />
				<stop
   offset="1"
   style="stop-color:#525728"
   id="stop26" />
			</linearGradient>
			<path
   class="st2"
   d="m 114.03,279.93 c -15.44,1.4 -31.38,-6.12 -40.12,-18.93 9.43,-0.75 18.09,-2.59 27.02,0.56 8.93,3.15 13.34,8.91 13.1,18.37 z"
   id="path29"
   style="fill:url(#SVGID_3_)"
   inkscape:connector-curvature="0" />
		</g>
	</g>
	<g
   id="g197"
   transform="translate(-4.3005275,-12.901582)">
		<g
   id="g42">
			<linearGradient
   id="SVGID_4_"
   gradientUnits="userSpaceOnUse"
   x1="309.2356"
   y1="308.2135"
   x2="391.55121"
   y2="308.2135">
				<stop
   offset="0"
   style="stop-color:#525728"
   id="stop35" />
				<stop
   offset="1"
   style="stop-color:#2E3717"
   id="stop37" />
			</linearGradient>
			<path
   class="st3"
   d="m 389.76,305.06 c -12.06,5.96 -25.74,8.06 -39.19,7.89 -13.45,-0.17 -28.13,-2.19 -41.34,-4.73 7.99,-4.34 17.51,-4.48 26.61,-4.52 18.57,-0.08 37.14,-0.16 55.71,-0.24 z"
   id="path40"
   style="fill:url(#SVGID_4_)"
   inkscape:connector-curvature="0" />
		</g>
		<g
   id="g51">
			<linearGradient
   id="SVGID_5_"
   gradientUnits="userSpaceOnUse"
   x1="282.53409"
   y1="287.11731"
   x2="378.98691"
   y2="287.11731">
				<stop
   offset="0"
   style="stop-color:#525728"
   id="stop44" />
				<stop
   offset="1"
   style="stop-color:#2E3717"
   id="stop46" />
			</linearGradient>
			<path
   class="st4"
   d="m 378.99,290.05 c -31.92,4.1 -64.55,4.48 -96.45,0.25 5.95,-3.21 11.98,-6.45 18.55,-8.02 5.96,-1.43 12.17,-1.42 18.3,-1.32 18.77,0.32 37.52,1.54 56.17,3.66 z"
   id="path49"
   style="fill:url(#SVGID_5_)"
   inkscape:connector-curvature="0" />
		</g>
		<g
   id="g60">
			<linearGradient
   id="SVGID_6_"
   gradientUnits="userSpaceOnUse"
   x1="257.52341"
   y1="267.59729"
   x2="366.98981"
   y2="267.59729">
				<stop
   offset="0"
   style="stop-color:#525728"
   id="stop53" />
				<stop
   offset="1"
   style="stop-color:#2E3717"
   id="stop55" />
			</linearGradient>
			<path
   class="st5"
   d="m 366.99,272.21 c -36.27,1.05 -74.32,6.65 -109.47,2.87 5.98,-8.52 16.03,-11.47 26.25,-13.45 10.22,-1.98 20.74,-3.31 31.13,-2.63 13.6,0.88 30.2,3.77 43.79,4.65 z"
   id="path58"
   style="fill:url(#SVGID_6_)"
   inkscape:connector-curvature="0" />
		</g>
		<g
   id="g69">
			<linearGradient
   id="SVGID_7_"
   gradientUnits="userSpaceOnUse"
   x1="234.8886"
   y1="246.511"
   x2="344.3327"
   y2="246.511">
				<stop
   offset="0"
   style="stop-color:#525728"
   id="stop62" />
				<stop
   offset="1"
   style="stop-color:#2E3717"
   id="stop64" />
			</linearGradient>
			<path
   class="st6"
   d="m 344.33,251.09 c -23.95,-4.27 -48.38,4.52 -72.7,5.14 -11.82,0.3 -25.1,-0.37 -36.74,-2.42 2.58,-2.65 6.23,-4.93 9.74,-6.11 14.21,-4.76 28.62,-8.26 43.5,-10.01 14.88,-1.75 31.4,-1.61 45.06,4.55 z"
   id="path67"
   style="fill:url(#SVGID_7_)"
   inkscape:connector-curvature="0" />
		</g>
		<g
   id="g78">
			<linearGradient
   id="SVGID_8_"
   gradientUnits="userSpaceOnUse"
   x1="216.48109"
   y1="229.02879"
   x2="304.6463"
   y2="229.02879">
				<stop
   offset="0"
   style="stop-color:#525728"
   id="stop71" />
				<stop
   offset="1"
   style="stop-color:#2E3717"
   id="stop73" />
			</linearGradient>
			<path
   class="st7"
   d="m 304.65,226.23 c -18.82,1.9 -36.18,11.47 -54.97,13.67 -11.03,1.29 -22.17,0 -33.2,-1.3 8.36,-10.29 21.07,-15.65 33.99,-18.64 12.92,-2.98 26.38,-2.72 39.56,-1.35 z"
   id="path76"
   style="fill:url(#SVGID_8_)"
   inkscape:connector-curvature="0" />
		</g>
		<g
   id="g87">
			<linearGradient
   id="SVGID_9_"
   gradientUnits="userSpaceOnUse"
   x1="201.4001"
   y1="211.0248"
   x2="262.12729"
   y2="211.0248">
				<stop
   offset="0"
   style="stop-color:#525728"
   id="stop80" />
				<stop
   offset="1"
   style="stop-color:#2E3717"
   id="stop82" />
			</linearGradient>
			<path
   class="st8"
   d="m 262.13,207.67 c -19.24,6.77 -40.62,11.83 -60.73,8.41 5.54,-4.23 11.36,-8.58 18.22,-9.85 2.75,-0.51 5.57,-0.5 8.36,-0.48 8.61,0.05 17.22,-0.91 25.84,-0.86 z"
   id="path85"
   style="fill:url(#SVGID_9_)"
   inkscape:connector-curvature="0" />
		</g>
		<g
   id="g96">
			<linearGradient
   id="SVGID_10_"
   gradientUnits="userSpaceOnUse"
   x1="195.9054"
   y1="194.5544"
   x2="235.2502"
   y2="194.5544">
				<stop
   offset="0"
   style="stop-color:#525728"
   id="stop89" />
				<stop
   offset="1"
   style="stop-color:#2E3717"
   id="stop91" />
			</linearGradient>
			<path
   class="st9"
   d="m 235.25,196.24 c -12.18,1.05 -27.28,2.84 -39.34,0.87 6.81,-3.91 18.07,-7.21 25.75,-5.57 z"
   id="path94"
   style="fill:url(#SVGID_10_)"
   inkscape:connector-curvature="0" />
		</g>
		<g
   id="g105">
			<linearGradient
   id="SVGID_11_"
   gradientUnits="userSpaceOnUse"
   x1="178.8428"
   y1="178.0061"
   x2="205.0867"
   y2="178.0061">
				<stop
   offset="0"
   style="stop-color:#525728"
   id="stop98" />
				<stop
   offset="1"
   style="stop-color:#2E3717"
   id="stop100" />
			</linearGradient>
			<path
   class="st10"
   d="m 205.09,183.4 c -9.61,-0.55 -19.01,-4.4 -26.24,-10.76 7.7,-0.52 21.28,4.83 26.24,10.76 z"
   id="path103"
   style="fill:url(#SVGID_11_)"
   inkscape:connector-curvature="0" />
		</g>
		<g
   id="g114">
			<linearGradient
   id="SVGID_12_"
   gradientUnits="userSpaceOnUse"
   x1="205.80231"
   y1="176.38499"
   x2="218.8815"
   y2="176.38499">
				<stop
   offset="0"
   style="stop-color:#525728"
   id="stop107" />
				<stop
   offset="1"
   style="stop-color:#2E3717"
   id="stop109" />
			</linearGradient>
			<path
   class="st11"
   d="m 213.93,186.18 c -4.22,-3.88 -9.49,-16.12 -7.8,-21.59 6.67,6.2 11.23,14.63 12.76,23.61 z"
   id="path112"
   style="fill:url(#SVGID_12_)"
   inkscape:connector-curvature="0" />
		</g>
		<g
   id="g123">
			<linearGradient
   id="SVGID_13_"
   gradientUnits="userSpaceOnUse"
   x1="224.6588"
   y1="184.3493"
   x2="247.3835"
   y2="184.3493">
				<stop
   offset="0"
   style="stop-color:#525728"
   id="stop116" />
				<stop
   offset="1"
   style="stop-color:#2E3717"
   id="stop118" />
			</linearGradient>
			<path
   class="st12"
   d="m 237.72,195.14 c -8.9,-3.32 -14.59,-15.58 -12.7,-24.88 8.35,8.61 15.57,18.3 22.36,28.19 z"
   id="path121"
   style="fill:url(#SVGID_13_)"
   inkscape:connector-curvature="0" />
		</g>
		<g
   id="g132">
			<linearGradient
   id="SVGID_14_"
   gradientUnits="userSpaceOnUse"
   x1="246.7382"
   y1="189.6111"
   x2="267.79401"
   y2="189.6111">
				<stop
   offset="0"
   style="stop-color:#525728"
   id="stop125" />
				<stop
   offset="1"
   style="stop-color:#2E3717"
   id="stop127" />
			</linearGradient>
			<path
   class="st13"
   d="m 246.74,173.16 c 12.29,7.08 20.52,18.73 21.06,32.9 l -7.48,-1.91 c -6.91,-9.04 -10.23,-21.36 -13.58,-30.99"
   id="path130"
   style="fill:url(#SVGID_14_)"
   inkscape:connector-curvature="0" />
		</g>
		<g
   id="g141">
			<linearGradient
   id="SVGID_15_"
   gradientUnits="userSpaceOnUse"
   x1="278.81161"
   y1="195.6221"
   x2="294.41241"
   y2="195.6221">
				<stop
   offset="0"
   style="stop-color:#2E3717"
   id="stop134" />
				<stop
   offset="1"
   style="stop-color:#525728"
   id="stop136" />
			</linearGradient>
			<path
   class="st14"
   d="m 281.35,211.57 c -6.23,-11 1.43,-25.14 -2.06,-37.29 4.59,6.29 9.22,12.67 12.17,19.88 2.95,7.21 4.09,15.45 1.52,22.81 z"
   id="path139"
   style="fill:url(#SVGID_15_)"
   inkscape:connector-curvature="0" />
		</g>
		<g
   id="g150">
			<linearGradient
   id="SVGID_16_"
   gradientUnits="userSpaceOnUse"
   x1="304.64279"
   y1="204.1478"
   x2="321.20029"
   y2="204.1478">
				<stop
   offset="0"
   style="stop-color:#2E3717"
   id="stop143" />
				<stop
   offset="1"
   style="stop-color:#525728"
   id="stop145" />
			</linearGradient>
			<path
   class="st15"
   d="m 304.99,220.12 c 0.56,-3.57 -0.07,-7.2 -0.28,-10.81 -0.54,-9.39 1.89,-18.92 6.86,-26.9 2.09,8.92 4.22,14.7 7.05,21.74 2.83,7.04 4.16,15.7 -0.44,21.73 z"
   id="path148"
   style="fill:url(#SVGID_16_)"
   inkscape:connector-curvature="0" />
		</g>
		<g
   id="g159">
			<linearGradient
   id="SVGID_17_"
   gradientUnits="userSpaceOnUse"
   x1="330.9425"
   y1="217.3611"
   x2="347.88931"
   y2="217.3611">
				<stop
   offset="0"
   style="stop-color:#2E3717"
   id="stop152" />
				<stop
   offset="1"
   style="stop-color:#525728"
   id="stop154" />
			</linearGradient>
			<path
   class="st16"
   d="m 331.7,234.76 c 0.4,-5.43 -1.63,-14.6 -0.3,-19.88 1.33,-5.28 4.86,-13.85 5.29,-21.75 3.69,4.84 5.86,11.74 8.48,17.24 0.76,1.6 1.07,3.36 1.35,5.11 0.51,3.25 0.91,6.51 1.19,9.79 0.23,2.63 0.38,5.34 -0.43,7.85 -1.09,3.4 -3.78,6.01 -6.37,8.47 z"
   id="path157"
   style="fill:url(#SVGID_17_)"
   inkscape:connector-curvature="0" />
		</g>
		<g
   id="g168">
			<linearGradient
   id="SVGID_18_"
   gradientUnits="userSpaceOnUse"
   x1="352.58261"
   y1="235.9436"
   x2="372.698"
   y2="235.9436">
				<stop
   offset="0"
   style="stop-color:#2E3717"
   id="stop161" />
				<stop
   offset="1"
   style="stop-color:#525728"
   id="stop163" />
			</linearGradient>
			<path
   class="st17"
   d="m 352.58,250.82 c 4.36,-10.64 3.12,-18.86 6.69,-36.74 6.68,4.73 13.82,15.54 13.41,23.71 -0.41,8.17 -5.23,15.99 -12.34,20.02 z"
   id="path166"
   style="fill:url(#SVGID_18_)"
   inkscape:connector-curvature="0" />
		</g>
		<g
   id="g177">
			<linearGradient
   id="SVGID_19_"
   gradientUnits="userSpaceOnUse"
   x1="371.6304"
   y1="253.9827"
   x2="389.59131"
   y2="253.9827">
				<stop
   offset="0"
   style="stop-color:#2E3717"
   id="stop170" />
				<stop
   offset="1"
   style="stop-color:#525728"
   id="stop172" />
			</linearGradient>
			<path
   class="st18"
   d="m 371.63,269.35 c 3.57,-10.68 6.43,-23.97 14.39,-34.49 3.48,3.33 3.76,10.45 3.49,15.26 -0.27,4.81 -1.92,9.42 -3.56,13.94 -1.39,3.85 -5.93,9.46 -10,9.03 z"
   id="path175"
   style="fill:url(#SVGID_19_)"
   inkscape:connector-curvature="0" />
		</g>
		<g
   id="g186">
			<linearGradient
   id="SVGID_20_"
   gradientUnits="userSpaceOnUse"
   x1="383.298"
   y1="274.1319"
   x2="398.4072"
   y2="274.1319">
				<stop
   offset="0"
   style="stop-color:#2E3717"
   id="stop179" />
				<stop
   offset="1"
   style="stop-color:#525728"
   id="stop181" />
			</linearGradient>
			<path
   class="st19"
   d="m 383.3,281.85 c 4.81,-6.46 9.85,-13.74 15.11,-19.84 -0.14,4.39 -0.4,9.99 -2.06,14.06 -1.66,4.07 -6.15,9.67 -10.51,10.17 z"
   id="path184"
   style="fill:url(#SVGID_20_)"
   inkscape:connector-curvature="0" />
		</g>
		<g
   id="g195">
			<linearGradient
   id="SVGID_21_"
   gradientUnits="userSpaceOnUse"
   x1="192.4716"
   y1="248.2523"
   x2="405.9325"
   y2="248.2523">
				<stop
   offset="0"
   style="stop-color:#383A29"
   id="stop188" />
				<stop
   offset="1"
   style="stop-color:#1D211F"
   id="stop190" />
			</linearGradient>
			<path
   class="st20"
   d="M 395.56,318.96 C 374.23,274.7 335.85,238.92 290.2,220.74 c -29.65,-11.81 -69.81,-27.75 -97.74,-43.19 7.3,0 70.14,25.34 100.03,36.51 46.02,17.2 91.16,58.14 113.43,101.94 z"
   id="path193"
   style="fill:url(#SVGID_21_)"
   inkscape:connector-curvature="0" />
		</g>
	</g>
	<g
   id="g406"
   transform="translate(-4.2605275,-3.351582)">
		<g
   id="g206">
			<linearGradient
   id="SVGID_22_"
   gradientUnits="userSpaceOnUse"
   x1="321.6965"
   y1="250.4944"
   x2="409.89859"
   y2="250.4944">
				<stop
   offset="0"
   style="stop-color:#525728"
   id="stop199" />
				<stop
   offset="1"
   style="stop-color:#2E3717"
   id="stop201" />
			</linearGradient>
			<path
   class="st21"
   d="m 409.9,240.9 c -8.77,8.37 -17.99,17 -29.57,20.59 -8.34,2.59 -17.25,2.34 -25.97,2.07 -10.67,-0.33 -21.99,-0.01 -32.66,-0.34 9.02,-10.25 22.94,-14.63 36.39,-16.98 13.45,-2.35 30.48,-4.35 48.83,-8.96 z"
   id="path204"
   style="fill:url(#SVGID_22_)"
   inkscape:connector-curvature="0" />
		</g>
		<g
   id="g215">
			<linearGradient
   id="SVGID_23_"
   gradientUnits="userSpaceOnUse"
   x1="279.61581"
   y1="222.2556"
   x2="400.34131"
   y2="222.2556">
				<stop
   offset="0"
   style="stop-color:#525728"
   id="stop208" />
				<stop
   offset="1"
   style="stop-color:#2E3717"
   id="stop210" />
			</linearGradient>
			<path
   class="st22"
   d="m 279.62,228 c 13.35,-12.27 32.64,-15.79 50.76,-15.38 18.12,0.41 36.07,4.19 54.2,4.23 3.6,0.01 8.29,0.85 11.6,-0.57 l 4.17,7.19 c -33.31,12.88 -85.22,8.15 -120.73,4.53 z"
   id="path213"
   style="fill:url(#SVGID_23_)"
   inkscape:connector-curvature="0" />
		</g>
		<g
   id="g224">
			<linearGradient
   id="SVGID_24_"
   gradientUnits="userSpaceOnUse"
   x1="258.58469"
   y1="192.86259"
   x2="386.90579"
   y2="192.86259">
				<stop
   offset="0"
   style="stop-color:#525728"
   id="stop217" />
				<stop
   offset="1"
   style="stop-color:#2E3717"
   id="stop219" />
			</linearGradient>
			<path
   class="st23"
   d="m 386.91,201.17 c -41.06,1.37 -84.4,3.37 -128.32,0.44 2.34,-6.74 13.85,-11.17 20.38,-14.03 6.54,-2.86 13.75,-3.76 20.86,-4.31 27.67,-2.12 55.71,0.78 82.37,8.49 z"
   id="path222"
   style="fill:url(#SVGID_24_)"
   inkscape:connector-curvature="0" />
		</g>
		<g
   id="g233">
			<linearGradient
   id="SVGID_25_"
   gradientUnits="userSpaceOnUse"
   x1="224.9774"
   y1="163.26131"
   x2="374.0051"
   y2="163.26131">
				<stop
   offset="0"
   style="stop-color:#525728"
   id="stop226" />
				<stop
   offset="1"
   style="stop-color:#2E3717"
   id="stop228" />
			</linearGradient>
			<path
   class="st24"
   d="m 224.98,160.71 c 33.03,-11.8 69.57,-13.54 103.57,-4.94 12.76,3.23 21.3,7.62 38.62,12.51 l 6.84,7.85 c -47.77,-4.04 -100.63,-2.28 -149.03,-15.42 z"
   id="path231"
   style="fill:url(#SVGID_25_)"
   inkscape:connector-curvature="0" />
		</g>
		<g
   id="g242">
			<linearGradient
   id="SVGID_26_"
   gradientUnits="userSpaceOnUse"
   x1="196.2412"
   y1="136.1774"
   x2="353.24539"
   y2="136.1774">
				<stop
   offset="0"
   style="stop-color:#525728"
   id="stop235" />
				<stop
   offset="1"
   style="stop-color:#2E3717"
   id="stop237" />
			</linearGradient>
			<path
   class="st25"
   d="m 353.25,150.64 c -52.5,-1.76 -105.39,-8.21 -157,-17.95 20.39,-10.74 44.96,-12.81 67.78,-9.6 27.36,3.85 51.91,10.96 82.09,20.55 z"
   id="path240"
   style="fill:url(#SVGID_26_)"
   inkscape:connector-curvature="0" />
		</g>
		<g
   id="g251">
			<linearGradient
   id="SVGID_27_"
   gradientUnits="userSpaceOnUse"
   x1="189.0809"
   y1="109.1036"
   x2="334.4812"
   y2="109.1036">
				<stop
   offset="0"
   style="stop-color:#525728"
   id="stop244" />
				<stop
   offset="1"
   style="stop-color:#2E3717"
   id="stop246" />
			</linearGradient>
			<path
   class="st26"
   d="m 334.48,129.85 c -50.08,-6.73 -103.65,-13.02 -145.4,-41.49 34.74,2.31 55.71,8.3 81.3,14.31 18.04,4.24 35.68,10.15 52.63,17.64 z"
   id="path249"
   style="fill:url(#SVGID_27_)"
   inkscape:connector-curvature="0" />
		</g>
		<g
   id="g260">
			<linearGradient
   id="SVGID_28_"
   gradientUnits="userSpaceOnUse"
   x1="186.981"
   y1="80.401199"
   x2="299.5076"
   y2="80.401199">
				<stop
   offset="0"
   style="stop-color:#525728"
   id="stop253" />
				<stop
   offset="1"
   style="stop-color:#2E3717"
   id="stop255" />
			</linearGradient>
			<path
   class="st27"
   d="m 299.51,100.26 c -15.45,-4.43 -42.36,-9.28 -42.36,-9.28 0,0 -17.92,-4.99 -24.62,-7.7 C 217.5,77.19 211.96,77 186.98,60.55 c 27.31,1.62 59.37,6.54 84.86,16.49 z"
   id="path258"
   style="fill:url(#SVGID_28_)"
   inkscape:connector-curvature="0" />
		</g>
		<g
   id="g269">
			<linearGradient
   id="SVGID_29_"
   gradientUnits="userSpaceOnUse"
   x1="182.058"
   y1="46.845798"
   x2="236.742"
   y2="46.845798">
				<stop
   offset="0"
   style="stop-color:#525728"
   id="stop262" />
				<stop
   offset="1"
   style="stop-color:#2E3717"
   id="stop264" />
			</linearGradient>
			<path
   class="st28"
   d="m 182.06,42.89 c 10.97,-5.68 28.94,-5.05 39.36,1.59 l 15.32,9.99 c -18.02,1.28 -38.27,-4.02 -54.68,-11.58 z"
   id="path267"
   style="fill:url(#SVGID_29_)"
   inkscape:connector-curvature="0" />
		</g>
		<g
   id="g278">
			<linearGradient
   id="SVGID_30_"
   gradientUnits="userSpaceOnUse"
   x1="164.8936"
   y1="27.7311"
   x2="199.92171"
   y2="27.7311">
				<stop
   offset="0"
   style="stop-color:#525728"
   id="stop271" />
				<stop
   offset="1"
   style="stop-color:#2E3717"
   id="stop273" />
			</linearGradient>
			<path
   class="st29"
   d="m 199.92,31.69 c -10.72,1.29 -24.87,-0.47 -35.03,-4.14 6.49,-4 14.63,-5.23 22.02,-3.33 z"
   id="path276"
   style="fill:url(#SVGID_30_)"
   inkscape:connector-curvature="0" />
		</g>
		<g
   id="g287">
			<linearGradient
   id="SVGID_31_"
   gradientUnits="userSpaceOnUse"
   x1="137.2511"
   y1="12.4181"
   x2="174.06219"
   y2="12.4181">
				<stop
   offset="0"
   style="stop-color:#525728"
   id="stop280" />
				<stop
   offset="1"
   style="stop-color:#2E3717"
   id="stop282" />
			</linearGradient>
			<path
   class="st30"
   d="M 174.06,17.2 C 163,16.82 147.19,13.92 137.25,9.05 c 9.69,-3.23 20.63,-0.52 29.82,3.94 z"
   id="path285"
   style="fill:url(#SVGID_31_)"
   inkscape:connector-curvature="0" />
		</g>
		<g
   id="g296">
			<linearGradient
   id="SVGID_32_"
   gradientUnits="userSpaceOnUse"
   x1="170.39391"
   y1="12.9443"
   x2="195.008"
   y2="12.9443">
				<stop
   offset="0"
   style="stop-color:#525728"
   id="stop289" />
				<stop
   offset="1"
   style="stop-color:#2E3717"
   id="stop291" />
			</linearGradient>
			<path
   class="st31"
   d="m 170.39,0 c 13.02,0.92 24.05,12.85 24.61,25.89 l -5.1,-2.66 C 183.02,21.76 170.63,7.04 170.39,0 Z"
   id="path294"
   style="fill:url(#SVGID_32_)"
   inkscape:connector-curvature="0" />
		</g>
		<g
   id="g305">
			<linearGradient
   id="SVGID_33_"
   gradientUnits="userSpaceOnUse"
   x1="196.7421"
   y1="20.5935"
   x2="215.8074"
   y2="20.5935">
				<stop
   offset="0"
   style="stop-color:#525728"
   id="stop298" />
				<stop
   offset="1"
   style="stop-color:#2E3717"
   id="stop300" />
			</linearGradient>
			<path
   class="st32"
   d="M 206.58,29.98 C 203.36,20 199.97,10.4 196.75,0.42 210.99,7.59 218.9,25.4 214.68,40.77 Z"
   id="path303"
   style="fill:url(#SVGID_33_)"
   inkscape:connector-curvature="0" />
		</g>
		<g
   id="g314">
			<linearGradient
   id="SVGID_34_"
   gradientUnits="userSpaceOnUse"
   x1="222.5258"
   y1="32.868801"
   x2="246.6187"
   y2="32.868801">
				<stop
   offset="0"
   style="stop-color:#525728"
   id="stop307" />
				<stop
   offset="1"
   style="stop-color:#2E3717"
   id="stop309" />
			</linearGradient>
			<path
   class="st33"
   d="m 222.58,10.19 c 11.74,12.71 20.11,28.5 24.04,45.35 l -11.9,-7.69 C 227.93,38.41 221.9,21.81 222.58,10.19 Z"
   id="path312"
   style="fill:url(#SVGID_34_)"
   inkscape:connector-curvature="0" />
		</g>
		<g
   id="g323">
			<linearGradient
   id="SVGID_35_"
   gradientUnits="userSpaceOnUse"
   x1="257.2803"
   y1="48.827099"
   x2="272.0015"
   y2="48.827099">
				<stop
   offset="0"
   style="stop-color:#2E3717"
   id="stop316" />
				<stop
   offset="1"
   style="stop-color:#525728"
   id="stop318" />
			</linearGradient>
			<path
   class="st34"
   d="m 259.9,64.65 c -3.53,-11.64 -3.5,-26.34 0.09,-37.96 7.11,13.38 14.88,29.66 10.94,44.29 z"
   id="path321"
   style="fill:url(#SVGID_35_)"
   inkscape:connector-curvature="0" />
		</g>
		<g
   id="g332">
			<linearGradient
   id="SVGID_36_"
   gradientUnits="userSpaceOnUse"
   x1="284.19958"
   y1="63.229401"
   x2="295.63559"
   y2="63.229401">
				<stop
   offset="0"
   style="stop-color:#2E3717"
   id="stop325" />
				<stop
   offset="1"
   style="stop-color:#525728"
   id="stop327" />
			</linearGradient>
			<path
   class="st35"
   d="m 284.99,82.74 c -2.35,-13.11 1.16,-32.56 2.54,-45.81 11.17,18.61 8.78,36.51 4.72,52.6 z"
   id="path330"
   style="fill:url(#SVGID_36_)"
   inkscape:connector-curvature="0" />
		</g>
		<g
   id="g341">
			<linearGradient
   id="SVGID_37_"
   gradientUnits="userSpaceOnUse"
   x1="307.0542"
   y1="80.685303"
   x2="323.30859"
   y2="80.685303">
				<stop
   offset="0"
   style="stop-color:#2E3717"
   id="stop334" />
				<stop
   offset="1"
   style="stop-color:#525728"
   id="stop336" />
			</linearGradient>
			<path
   class="st36"
   d="m 309.03,101.36 c -2.42,-7.24 -2.62,-18.21 -0.59,-25.57 2.06,-7.43 7.08,-15.08 7.48,-22.78 8.61,16.96 9.76,37.55 3.08,55.36 z"
   id="path339"
   style="fill:url(#SVGID_37_)"
   inkscape:connector-curvature="0" />
		</g>
		<g
   id="g350">
			<linearGradient
   id="SVGID_38_"
   gradientUnits="userSpaceOnUse"
   x1="332.60339"
   y1="97.658997"
   x2="351.49149"
   y2="97.658997">
				<stop
   offset="0"
   style="stop-color:#2E3717"
   id="stop343" />
				<stop
   offset="1"
   style="stop-color:#525728"
   id="stop345" />
			</linearGradient>
			<path
   class="st37"
   d="m 345.28,65.81 c 4.07,9.95 6.57,14.88 6.17,31.65 -0.25,10.75 -3.64,23.06 -9.54,32.05 l -9.18,-8.98 c -1.31,-15.78 7.62,-39.68 12.55,-54.72 z"
   id="path348"
   style="fill:url(#SVGID_38_)"
   inkscape:connector-curvature="0" />
		</g>
		<g
   id="g359">
			<linearGradient
   id="SVGID_39_"
   gradientUnits="userSpaceOnUse"
   x1="353.49991"
   y1="120.5193"
   x2="378.633"
   y2="120.5193">
				<stop
   offset="0"
   style="stop-color:#2E3717"
   id="stop352" />
				<stop
   offset="1"
   style="stop-color:#525728"
   id="stop354" />
			</linearGradient>
			<path
   class="st38"
   d="m 353.5,142.38 c 0.93,-14.04 15.97,-41.94 20.98,-55.09 9.74,16.81 0.63,49.93 -9.59,66.45 z"
   id="path357"
   style="fill:url(#SVGID_39_)"
   inkscape:connector-curvature="0" />
		</g>
		<g
   id="g368">
			<linearGradient
   id="SVGID_40_"
   gradientUnits="userSpaceOnUse"
   x1="374.48489"
   y1="150.5107"
   x2="398.76981"
   y2="150.5107">
				<stop
   offset="0"
   style="stop-color:#2E3717"
   id="stop361" />
				<stop
   offset="1"
   style="stop-color:#525728"
   id="stop363" />
			</linearGradient>
			<path
   class="st39"
   d="m 374.48,166.3 c 1.91,-10.75 16.79,-34.77 23.04,-43.72 5.47,14.76 -8.23,44.51 -19.16,55.85 z"
   id="path366"
   style="fill:url(#SVGID_40_)"
   inkscape:connector-curvature="0" />
		</g>
		<g
   id="g377">
			<linearGradient
   id="SVGID_41_"
   gradientUnits="userSpaceOnUse"
   x1="390.03989"
   y1="178.90331"
   x2="411.8783"
   y2="178.90331">
				<stop
   offset="0"
   style="stop-color:#2E3717"
   id="stop370" />
				<stop
   offset="1"
   style="stop-color:#525728"
   id="stop372" />
			</linearGradient>
			<path
   class="st40"
   d="m 390.04,191.14 c 3.01,-7.89 14.83,-26.08 20.99,-31.86 4.1,10.5 -7.48,32.74 -16.69,39.24 z"
   id="path375"
   style="fill:url(#SVGID_41_)"
   inkscape:connector-curvature="0" />
		</g>
		<g
   id="g386">
			<linearGradient
   id="SVGID_42_"
   gradientUnits="userSpaceOnUse"
   x1="401.77689"
   y1="206.04021"
   x2="417.54749"
   y2="206.04021">
				<stop
   offset="0"
   style="stop-color:#2E3717"
   id="stop379" />
				<stop
   offset="1"
   style="stop-color:#525728"
   id="stop381" />
			</linearGradient>
			<path
   class="st41"
   d="m 401.78,211.88 c 0.22,-2.54 5.87,-10.48 15.77,-18.29 0,6.61 -0.38,10.32 -1.58,14.32 -1.19,4 -5.91,10.12 -10.06,10.6 z"
   id="path384"
   style="fill:url(#SVGID_42_)"
   inkscape:connector-curvature="0" />
		</g>
		<g
   id="g395">
			<linearGradient
   id="SVGID_43_"
   gradientUnits="userSpaceOnUse"
   x1="409.04599"
   y1="225.7182"
   x2="422.9707"
   y2="225.7182">
				<stop
   offset="0"
   style="stop-color:#2E3717"
   id="stop388" />
				<stop
   offset="1"
   style="stop-color:#525728"
   id="stop390" />
			</linearGradient>
			<path
   class="st42"
   d="m 409.05,227.03 c 2.49,-3.74 9.9,-7.18 13.92,-5.19 -1.95,4.05 -8.52,7.92 -13,8.34 z"
   id="path393"
   style="fill:url(#SVGID_43_)"
   inkscape:connector-curvature="0" />
		</g>
		<g
   id="g404">
			<linearGradient
   id="SVGID_44_"
   gradientUnits="userSpaceOnUse"
   x1="162.8257"
   y1="149.8716"
   x2="434.58029"
   y2="149.8716">
				<stop
   offset="0"
   style="stop-color:#383A29"
   id="stop397" />
				<stop
   offset="1"
   style="stop-color:#1D211F"
   id="stop399" />
			</linearGradient>
			<path
   class="st43"
   d="M 424.39,288.78 C 406.63,240.92 385.2,193.7 353.09,154.01 309.8,100.5 221.67,46.68 162.83,10.96 199.9,17.93 322,99.5 365.29,153.02 c 32.11,39.69 51.53,85.91 69.3,133.77 z"
   id="path402"
   style="fill:url(#SVGID_44_)"
   inkscape:connector-curvature="0" />
		</g>
	</g>
</g>
</svg>